<svg width="88" height="125" viewBox="0 0 88 125" fill="none" xmlns="http://www.w3.org/2000/svg">
<path d="M14.2109 104H13.0801V96.3945H8.87305V104H7.74805V95.4688H14.2109V104ZM21.4473 100.9C21.4473 101.865 21.2266 102.643 20.7852 103.232C20.3438 103.822 19.7461 104.117 18.9922 104.117C18.2227 104.117 17.6172 103.873 17.1758 103.385V106.438H16.0918V97.6602H17.082L17.1348 98.3633C17.5762 97.8164 18.1895 97.543 18.9746 97.543C19.7363 97.543 20.3379 97.8301 20.7793 98.4043C21.2246 98.9785 21.4473 99.7773 21.4473 100.801V100.9ZM20.3633 100.777C20.3633 100.062 20.2109 99.498 19.9062 99.084C19.6016 98.6699 19.1836 98.4629 18.6523 98.4629C17.9961 98.4629 17.5039 98.7539 17.1758 99.3359V102.365C17.5 102.943 17.9961 103.232 18.6641 103.232C19.1836 103.232 19.5957 103.027 19.9004 102.617C20.209 102.203 20.3633 101.59 20.3633 100.777ZM22.543 100.771C22.543 100.15 22.6641 99.5918 22.9062 99.0957C23.1523 98.5996 23.4922 98.2168 23.9258 97.9473C24.3633 97.6777 24.8613 97.543 25.4199 97.543C26.2832 97.543 26.9805 97.8418 27.5117 98.4395C28.0469 99.0371 28.3145 99.832 28.3145 100.824V100.9C28.3145 101.518 28.1953 102.072 27.957 102.564C27.7227 103.053 27.3848 103.434 26.9434 103.707C26.5059 103.98 26.002 104.117 25.4316 104.117C24.5723 104.117 23.875 103.818 23.3398 103.221C22.8086 102.623 22.543 101.832 22.543 100.848V100.771ZM23.6328 100.9C23.6328 101.604 23.7949 102.168 24.1191 102.594C24.4473 103.02 24.8848 103.232 25.4316 103.232C25.9824 103.232 26.4199 103.018 26.7441 102.588C27.0684 102.154 27.2305 101.549 27.2305 100.771C27.2305 100.076 27.0645 99.5137 26.7324 99.084C26.4043 98.6504 25.9668 98.4336 25.4199 98.4336C24.8848 98.4336 24.4531 98.6465 24.125 99.0723C23.7969 99.498 23.6328 100.107 23.6328 100.9ZM33.7754 97.6602H34.8594V104H33.7754V99.377L30.8516 104H29.7676V97.6602H30.8516V102.289L33.7754 97.6602ZM40.0859 99.3945C40.0859 99.0977 39.9727 98.8633 39.7461 98.6914C39.5195 98.5156 39.209 98.4277 38.8145 98.4277C38.4316 98.4277 38.1113 98.5273 37.8535 98.7266C37.5996 98.9258 37.4727 99.1602 37.4727 99.4297H36.3945C36.3945 98.8789 36.625 98.4277 37.0859 98.0762C37.5469 97.7246 38.123 97.5488 38.8145 97.5488C39.5566 97.5488 40.1348 97.709 40.5488 98.0293C40.9629 98.3457 41.1699 98.7988 41.1699 99.3887C41.1699 99.6738 41.084 99.9355 40.9121 100.174C40.7402 100.412 40.4961 100.602 40.1797 100.742C40.918 100.992 41.2871 101.484 41.2871 102.219C41.2871 102.801 41.0625 103.262 40.6133 103.602C40.1641 103.941 39.5645 104.111 38.8145 104.111C38.084 104.111 37.4805 103.934 37.0039 103.578C36.5312 103.219 36.2949 102.734 36.2949 102.125H37.373C37.373 102.434 37.5098 102.699 37.7832 102.922C38.0605 103.141 38.4043 103.25 38.8145 103.25C39.2285 103.25 39.5625 103.154 39.8164 102.963C40.0703 102.771 40.1973 102.523 40.1973 102.219C40.1973 101.863 40.0898 101.609 39.875 101.457C39.6641 101.301 39.334 101.223 38.8848 101.223H37.8008V100.309H38.9785C39.7168 100.289 40.0859 99.9844 40.0859 99.3945ZM42.793 104V97.6602H45.2656C46.1094 97.6602 46.7559 97.8086 47.2051 98.1055C47.6582 98.3984 47.8848 98.8301 47.8848 99.4004C47.8848 99.6934 47.7969 99.959 47.6211 100.197C47.4453 100.432 47.1855 100.611 46.8418 100.736C47.2246 100.826 47.5312 101.002 47.7617 101.264C47.9961 101.525 48.1133 101.838 48.1133 102.201C48.1133 102.783 47.8984 103.229 47.4688 103.537C47.043 103.846 46.4395 104 45.6582 104H42.793ZM43.877 101.217V103.127H45.6699C46.123 103.127 46.4609 103.043 46.6836 102.875C46.9102 102.707 47.0234 102.471 47.0234 102.166C47.0234 101.533 46.5586 101.217 45.6289 101.217H43.877ZM43.877 100.35H45.2773C46.293 100.35 46.8008 100.053 46.8008 99.459C46.8008 98.8652 46.3203 98.5586 45.3594 98.5391H43.877V100.35ZM49.2617 100.771C49.2617 100.15 49.3828 99.5918 49.625 99.0957C49.8711 98.5996 50.2109 98.2168 50.6445 97.9473C51.082 97.6777 51.5801 97.543 52.1387 97.543C53.002 97.543 53.6992 97.8418 54.2305 98.4395C54.7656 99.0371 55.0332 99.832 55.0332 100.824V100.9C55.0332 101.518 54.9141 102.072 54.6758 102.564C54.4414 103.053 54.1035 103.434 53.6621 103.707C53.2246 103.98 52.7207 104.117 52.1504 104.117C51.291 104.117 50.5938 103.818 50.0586 103.221C49.5273 102.623 49.2617 101.832 49.2617 100.848V100.771ZM50.3516 100.9C50.3516 101.604 50.5137 102.168 50.8379 102.594C51.166 103.02 51.6035 103.232 52.1504 103.232C52.7012 103.232 53.1387 103.018 53.4629 102.588C53.7871 102.154 53.9492 101.549 53.9492 100.771C53.9492 100.076 53.7832 99.5137 53.4512 99.084C53.123 98.6504 52.6855 98.4336 52.1387 98.4336C51.6035 98.4336 51.1719 98.6465 50.8438 99.0723C50.5156 99.498 50.3516 100.107 50.3516 100.9ZM55.918 103.115L56.293 102.652C56.7148 102.105 56.9551 101.285 57.0137 100.191L57.1133 97.6602H61.1973V103.115H62.0117V105.863H60.9277V104H56.5039V105.863H55.4199L55.4258 103.115H55.918ZM57.2012 103.115H60.1133V98.6621H58.1621L58.0977 100.174C58.0312 101.436 57.7324 102.416 57.2012 103.115ZM65.7559 103.232C66.1426 103.232 66.4805 103.115 66.7695 102.881C67.0586 102.646 67.2188 102.354 67.25 102.002H68.2754C68.2559 102.365 68.1309 102.711 67.9004 103.039C67.6699 103.367 67.3613 103.629 66.9746 103.824C66.5918 104.02 66.1855 104.117 65.7559 104.117C64.8926 104.117 64.2051 103.83 63.6934 103.256C63.1855 102.678 62.9316 101.889 62.9316 100.889V100.707C62.9316 100.09 63.0449 99.541 63.2715 99.0605C63.498 98.5801 63.8223 98.207 64.2441 97.9414C64.6699 97.6758 65.1719 97.543 65.75 97.543C66.4609 97.543 67.0508 97.7559 67.5195 98.1816C67.9922 98.6074 68.2441 99.1602 68.2754 99.8398H67.25C67.2188 99.4297 67.0625 99.0938 66.7812 98.832C66.5039 98.5664 66.1602 98.4336 65.75 98.4336C65.1992 98.4336 64.7715 98.6328 64.4668 99.0312C64.166 99.4258 64.0156 99.998 64.0156 100.748V100.953C64.0156 101.684 64.166 102.246 64.4668 102.641C64.7676 103.035 65.1973 103.232 65.7559 103.232ZM74.2051 98.5391H72.0781V104H70.9941V98.5391H68.9082V97.6602H74.2051V98.5391ZM75.3594 104V97.6602H77.832C78.6758 97.6602 79.3223 97.8086 79.7715 98.1055C80.2246 98.3984 80.4512 98.8301 80.4512 99.4004C80.4512 99.6934 80.3633 99.959 80.1875 100.197C80.0117 100.432 79.752 100.611 79.4082 100.736C79.791 100.826 80.0977 101.002 80.3281 101.264C80.5625 101.525 80.6797 101.838 80.6797 102.201C80.6797 102.783 80.4648 103.229 80.0352 103.537C79.6094 103.846 79.0059 104 78.2246 104H75.3594ZM76.4434 101.217V103.127H78.2363C78.6895 103.127 79.0273 103.043 79.25 102.875C79.4766 102.707 79.5898 102.471 79.5898 102.166C79.5898 101.533 79.125 101.217 78.1953 101.217H76.4434ZM76.4434 100.35H77.8438C78.8594 100.35 79.3672 100.053 79.3672 99.459C79.3672 98.8652 78.8867 98.5586 77.9258 98.5391H76.4434V100.35ZM41.1113 116.771C41.1113 116.15 41.2324 115.592 41.4746 115.096C41.7207 114.6 42.0605 114.217 42.4941 113.947C42.9316 113.678 43.4297 113.543 43.9883 113.543C44.8516 113.543 45.5488 113.842 46.0801 114.439C46.6152 115.037 46.8828 115.832 46.8828 116.824V116.9C46.8828 117.518 46.7637 118.072 46.5254 118.564C46.291 119.053 45.9531 119.434 45.5117 119.707C45.0742 119.98 44.5703 120.117 44 120.117C43.1406 120.117 42.4434 119.818 41.9082 119.221C41.377 118.623 41.1113 117.832 41.1113 116.848V116.771ZM42.2012 116.9C42.2012 117.604 42.3633 118.168 42.6875 118.594C43.0156 119.02 43.4531 119.232 44 119.232C44.5508 119.232 44.9883 119.018 45.3125 118.588C45.6367 118.154 45.7988 117.549 45.7988 116.771C45.7988 116.076 45.6328 115.514 45.3008 115.084C44.9727 114.65 44.5352 114.434 43.9883 114.434C43.4531 114.434 43.0215 114.646 42.6934 115.072C42.3652 115.498 42.2012 116.107 42.2012 116.9Z" fill="#484848"/>
<g filter="url(#filter0_d)">
<circle cx="44" cy="43" r="40" fill="white"/>
</g>
<path fill-rule="evenodd" clip-rule="evenodd" d="M49 33C47.8954 33 47 33.8954 47 35V48C47 48.5523 47.4477 49 48 49C48.5523 49 49 48.5523 49 48V40H52V51H36V42H45C45.5523 42 46 41.5523 46 41C46 40.4477 45.5523 40 45 40H36C34.8954 40 34 40.8954 34 42V51C34 52.1046 34.8954 53 36 53H52C53.1046 53 54 52.1046 54 51V35C54 33.8954 53.1046 33 52 33H49ZM52 38V35H49V38H52Z" fill="#999999"/>
<path d="M39 47C38.4477 47 38 47.4477 38 48C38 48.5523 38.4477 49 39 49C39.5523 49 40 48.5523 40 48C40 47.4477 39.5523 47 39 47Z" fill="#999999"/>
<path d="M41 48C41 47.4477 41.4477 47 42 47C42.5523 47 43 47.4477 43 48C43 48.5523 42.5523 49 42 49C41.4477 49 41 48.5523 41 48Z" fill="#999999"/>
<path d="M45 47C44.4477 47 44 47.4477 44 48C44 48.5523 44.4477 49 45 49C45.5523 49 46 48.5523 46 48C46 47.4477 45.5523 47 45 47Z" fill="#999999"/>
<path d="M38 45C38 44.4477 38.4477 44 39 44C39.5523 44 40 44.4477 40 45C40 45.5523 39.5523 46 39 46C38.4477 46 38 45.5523 38 45Z" fill="#999999"/>
<path d="M42 44C41.4477 44 41 44.4477 41 45C41 45.5523 41.4477 46 42 46C42.5523 46 43 45.5523 43 45C43 44.4477 42.5523 44 42 44Z" fill="#999999"/>
<path d="M44 45C44 44.4477 44.4477 44 45 44C45.5523 44 46 44.4477 46 45C46 45.5523 45.5523 46 45 46C44.4477 46 44 45.5523 44 45Z" fill="#999999"/>
<defs>
<filter id="filter0_d" x="0" y="0" width="88" height="88" filterUnits="userSpaceOnUse" color-interpolation-filters="sRGB">
<feFlood flood-opacity="0" result="BackgroundImageFix"/>
<feColorMatrix in="SourceAlpha" type="matrix" values="0 0 0 0 0 0 0 0 0 0 0 0 0 0 0 0 0 0 127 0" result="hardAlpha"/>
<feOffset dy="1"/>
<feGaussianBlur stdDeviation="2"/>
<feColorMatrix type="matrix" values="0 0 0 0 0 0 0 0 0 0 0 0 0 0 0 0 0 0 0.15 0"/>
<feBlend mode="normal" in2="BackgroundImageFix" result="effect1_dropShadow"/>
<feBlend mode="normal" in="SourceGraphic" in2="effect1_dropShadow" result="shape"/>
</filter>
</defs>
</svg>
