<svg width="18" height="18" viewBox="0 0 18 18" fill="none" xmlns="http://www.w3.org/2000/svg">
<path fill-rule="evenodd" clip-rule="evenodd" d="M4 6C5.10449 6 6 5.10455 6 4C6 2.89545 5.10449 2 4 2C2.89551 2 2 2.89545 2 4C2 5.10455 2.89551 6 4 6ZM4 8C6.20898 8 8 6.20917 8 4C8 1.79083 6.20898 0 4 0C1.79102 0 0 1.79083 0 4C0 6.20917 1.79102 8 4 8ZM14 16C15.1045 16 16 15.1046 16 14C16 12.8954 15.1045 12 14 12C12.8955 12 12 12.8954 12 14C12 15.1046 12.8955 16 14 16ZM14 18C16.209 18 18 16.2092 18 14C18 11.7908 16.209 10 14 10C11.791 10 10 11.7908 10 14C10 16.2092 11.791 18 14 18ZM16.707 2.70709C17.0977 2.31659 17.0977 1.68341 16.707 1.29291C16.3164 0.902344 15.6836 0.902344 15.293 1.29291L1.29297 15.2929C0.902344 15.6834 0.902344 16.3166 1.29297 16.7071C1.68359 17.0977 2.31641 17.0977 2.70703 16.7071L16.707 2.70709Z" fill="#ED2F2F"/>
</svg>
