<svg width="88" height="142" viewBox="0 0 88 142" fill="none" xmlns="http://www.w3.org/2000/svg">
<path d="M33.2773 101.293C33.1719 102.195 32.8379 102.893 32.2754 103.385C31.7168 103.873 30.9727 104.117 30.043 104.117C29.0352 104.117 28.2266 103.756 27.6172 103.033C27.0117 102.311 26.709 101.344 26.709 100.133V99.3125C26.709 98.5195 26.8496 97.8223 27.1309 97.2207C27.416 96.6191 27.8184 96.1582 28.3379 95.8379C28.8574 95.5137 29.459 95.3516 30.1426 95.3516C31.0488 95.3516 31.7754 95.6055 32.3223 96.1133C32.8691 96.6172 33.1875 97.3164 33.2773 98.2109H32.1465C32.0488 97.5312 31.8359 97.0391 31.5078 96.7344C31.1836 96.4297 30.7285 96.2773 30.1426 96.2773C29.4238 96.2773 28.8594 96.543 28.4492 97.0742C28.043 97.6055 27.8398 98.3613 27.8398 99.3418V100.168C27.8398 101.094 28.0332 101.83 28.4199 102.377C28.8066 102.924 29.3477 103.197 30.043 103.197C30.668 103.197 31.1465 103.057 31.4785 102.775C31.8145 102.49 32.0371 101.996 32.1465 101.293H33.2773ZM39.834 104H38.75V98.5566H35.832V104H34.7422V97.6602H39.834V104ZM41.2871 100.771C41.2871 100.15 41.4082 99.5918 41.6504 99.0957C41.8965 98.5996 42.2363 98.2168 42.6699 97.9473C43.1074 97.6777 43.6055 97.543 44.1641 97.543C45.0273 97.543 45.7246 97.8418 46.2559 98.4395C46.791 99.0371 47.0586 99.832 47.0586 100.824V100.9C47.0586 101.518 46.9395 102.072 46.7012 102.564C46.4668 103.053 46.1289 103.434 45.6875 103.707C45.25 103.98 44.7461 104.117 44.1758 104.117C43.3164 104.117 42.6191 103.818 42.084 103.221C41.5527 102.623 41.2871 101.832 41.2871 100.848V100.771ZM42.377 100.9C42.377 101.604 42.5391 102.168 42.8633 102.594C43.1914 103.02 43.6289 103.232 44.1758 103.232C44.7266 103.232 45.1641 103.018 45.4883 102.588C45.8125 102.154 45.9746 101.549 45.9746 100.771C45.9746 100.076 45.8086 99.5137 45.4766 99.084C45.1484 98.6504 44.7109 98.4336 44.1641 98.4336C43.6289 98.4336 43.1973 98.6465 42.8691 99.0723C42.541 99.498 42.377 100.107 42.377 100.9ZM53.7734 100.9C53.7734 101.865 53.5527 102.643 53.1113 103.232C52.6699 103.822 52.0723 104.117 51.3184 104.117C50.5488 104.117 49.9434 103.873 49.502 103.385V106.438H48.418V97.6602H49.4082L49.4609 98.3633C49.9023 97.8164 50.5156 97.543 51.3008 97.543C52.0625 97.543 52.6641 97.8301 53.1055 98.4043C53.5508 98.9785 53.7734 99.7773 53.7734 100.801V100.9ZM52.6895 100.777C52.6895 100.062 52.5371 99.498 52.2324 99.084C51.9277 98.6699 51.5098 98.4629 50.9785 98.4629C50.3223 98.4629 49.8301 98.7539 49.502 99.3359V102.365C49.8262 102.943 50.3223 103.232 50.9902 103.232C51.5098 103.232 51.9219 103.027 52.2266 102.617C52.5352 102.203 52.6895 101.59 52.6895 100.777ZM59.3984 98.5391H57.2715V104H56.1875V98.5391H54.1016V97.6602H59.3984V98.5391ZM60.418 105.699L59.8027 105.277C60.1699 104.766 60.3613 104.238 60.377 103.695V102.717H61.4375V103.566C61.4375 103.961 61.3398 104.355 61.1445 104.75C60.9531 105.145 60.7109 105.461 60.418 105.699ZM16.6074 115.395C16.6074 115.098 16.4941 114.863 16.2676 114.691C16.041 114.516 15.7305 114.428 15.3359 114.428C14.9531 114.428 14.6328 114.527 14.375 114.727C14.1211 114.926 13.9941 115.16 13.9941 115.43H12.916C12.916 114.879 13.1465 114.428 13.6074 114.076C14.0684 113.725 14.6445 113.549 15.3359 113.549C16.0781 113.549 16.6562 113.709 17.0703 114.029C17.4844 114.346 17.6914 114.799 17.6914 115.389C17.6914 115.674 17.6055 115.936 17.4336 116.174C17.2617 116.412 17.0176 116.602 16.7012 116.742C17.4395 116.992 17.8086 117.484 17.8086 118.219C17.8086 118.801 17.584 119.262 17.1348 119.602C16.6855 119.941 16.0859 120.111 15.3359 120.111C14.6055 120.111 14.002 119.934 13.5254 119.578C13.0527 119.219 12.8164 118.734 12.8164 118.125H13.8945C13.8945 118.434 14.0312 118.699 14.3047 118.922C14.582 119.141 14.9258 119.25 15.3359 119.25C15.75 119.25 16.084 119.154 16.3379 118.963C16.5918 118.771 16.7188 118.523 16.7188 118.219C16.7188 117.863 16.6113 117.609 16.3965 117.457C16.1855 117.301 15.8555 117.223 15.4062 117.223H14.3223V116.309H15.5C16.2383 116.289 16.6074 115.984 16.6074 115.395ZM19.1621 119.115L19.5371 118.652C19.959 118.105 20.1992 117.285 20.2578 116.191L20.3574 113.66H24.4414V119.115H25.2559V121.863H24.1719V120H19.748V121.863H18.6641L18.6699 119.115H19.1621ZM20.4453 119.115H23.3574V114.662H21.4062L21.3418 116.174C21.2754 117.436 20.9766 118.416 20.4453 119.115ZM26.1699 116.771C26.1699 116.15 26.291 115.592 26.5332 115.096C26.7793 114.6 27.1191 114.217 27.5527 113.947C27.9902 113.678 28.4883 113.543 29.0469 113.543C29.9102 113.543 30.6074 113.842 31.1387 114.439C31.6738 115.037 31.9414 115.832 31.9414 116.824V116.9C31.9414 117.518 31.8223 118.072 31.584 118.564C31.3496 119.053 31.0117 119.434 30.5703 119.707C30.1328 119.98 29.6289 120.117 29.0586 120.117C28.1992 120.117 27.502 119.818 26.9668 119.221C26.4355 118.623 26.1699 117.832 26.1699 116.848V116.771ZM27.2598 116.9C27.2598 117.604 27.4219 118.168 27.7461 118.594C28.0742 119.02 28.5117 119.232 29.0586 119.232C29.6094 119.232 30.0469 119.018 30.3711 118.588C30.6953 118.154 30.8574 117.549 30.8574 116.771C30.8574 116.076 30.6914 115.514 30.3594 115.084C30.0312 114.65 29.5938 114.434 29.0469 114.434C28.5117 114.434 28.0801 114.646 27.752 115.072C27.4238 115.498 27.2598 116.107 27.2598 116.9ZM38.6562 116.9C38.6562 117.865 38.4355 118.643 37.9941 119.232C37.5527 119.822 36.9551 120.117 36.2012 120.117C35.4316 120.117 34.8262 119.873 34.3848 119.385V122.438H33.3008V113.66H34.291L34.3438 114.363C34.7852 113.816 35.3984 113.543 36.1836 113.543C36.9453 113.543 37.5469 113.83 37.9883 114.404C38.4336 114.979 38.6562 115.777 38.6562 116.801V116.9ZM37.5723 116.777C37.5723 116.062 37.4199 115.498 37.1152 115.084C36.8105 114.67 36.3926 114.463 35.8613 114.463C35.2051 114.463 34.7129 114.754 34.3848 115.336V118.365C34.709 118.943 35.2051 119.232 35.873 119.232C36.3926 119.232 36.8047 119.027 37.1094 118.617C37.418 118.203 37.5723 117.59 37.5723 116.777ZM39.752 116.771C39.752 116.15 39.873 115.592 40.1152 115.096C40.3613 114.6 40.7012 114.217 41.1348 113.947C41.5723 113.678 42.0703 113.543 42.6289 113.543C43.4922 113.543 44.1895 113.842 44.7207 114.439C45.2559 115.037 45.5234 115.832 45.5234 116.824V116.9C45.5234 117.518 45.4043 118.072 45.166 118.564C44.9316 119.053 44.5938 119.434 44.1523 119.707C43.7148 119.98 43.2109 120.117 42.6406 120.117C41.7812 120.117 41.084 119.818 40.5488 119.221C40.0176 118.623 39.752 117.832 39.752 116.848V116.771ZM40.8418 116.9C40.8418 117.604 41.0039 118.168 41.3281 118.594C41.6562 119.02 42.0938 119.232 42.6406 119.232C43.1914 119.232 43.6289 119.018 43.9531 118.588C44.2773 118.154 44.4395 117.549 44.4395 116.771C44.4395 116.076 44.2734 115.514 43.9414 115.084C43.6133 114.65 43.1758 114.434 42.6289 114.434C42.0938 114.434 41.6621 114.646 41.334 115.072C41.0059 115.498 40.8418 116.107 40.8418 116.9ZM46.9824 120V113.66H49.4551C50.2988 113.66 50.9453 113.809 51.3945 114.105C51.8477 114.398 52.0742 114.83 52.0742 115.4C52.0742 115.693 51.9863 115.959 51.8105 116.197C51.6348 116.432 51.375 116.611 51.0312 116.736C51.4141 116.826 51.7207 117.002 51.9512 117.264C52.1855 117.525 52.3027 117.838 52.3027 118.201C52.3027 118.783 52.0879 119.229 51.6582 119.537C51.2324 119.846 50.6289 120 49.8477 120H46.9824ZM48.0664 117.217V119.127H49.8594C50.3125 119.127 50.6504 119.043 50.873 118.875C51.0996 118.707 51.2129 118.471 51.2129 118.166C51.2129 117.533 50.748 117.217 49.8184 117.217H48.0664ZM48.0664 116.35H49.4668C50.4824 116.35 50.9902 116.053 50.9902 115.459C50.9902 114.865 50.5098 114.559 49.5488 114.539H48.0664V116.35ZM54.9219 115.846H56.5684C57.2871 115.854 57.8555 116.041 58.2734 116.408C58.6914 116.775 58.9004 117.273 58.9004 117.902C58.9004 118.535 58.6855 119.043 58.2559 119.426C57.8262 119.809 57.248 120 56.5215 120H53.8379V113.66H54.9219V115.846ZM54.9219 116.73V119.115H56.5332C56.9395 119.115 57.2539 119.012 57.4766 118.805C57.6992 118.594 57.8105 118.307 57.8105 117.943C57.8105 117.592 57.7012 117.305 57.4824 117.082C57.2676 116.855 56.9648 116.738 56.5742 116.73H54.9219ZM62.8848 120.117C62.0254 120.117 61.3262 119.836 60.7871 119.273C60.248 118.707 59.9785 117.951 59.9785 117.006V116.807C59.9785 116.178 60.0977 115.617 60.3359 115.125C60.5781 114.629 60.9141 114.242 61.3438 113.965C61.7773 113.684 62.2461 113.543 62.75 113.543C63.5742 113.543 64.2148 113.814 64.6719 114.357C65.1289 114.9 65.3574 115.678 65.3574 116.689V117.141H61.0625C61.0781 117.766 61.2598 118.271 61.6074 118.658C61.959 119.041 62.4043 119.232 62.9434 119.232C63.3262 119.232 63.6504 119.154 63.916 118.998C64.1816 118.842 64.4141 118.635 64.6133 118.377L65.2754 118.893C64.7441 119.709 63.9473 120.117 62.8848 120.117ZM62.75 114.434C62.3125 114.434 61.9453 114.594 61.6484 114.914C61.3516 115.23 61.168 115.676 61.0977 116.25H64.2734V116.168C64.2422 115.617 64.0938 115.191 63.8281 114.891C63.5625 114.586 63.2031 114.434 62.75 114.434ZM73.6953 113.66H74.7793V120H73.6953V115.377L70.7715 120H69.6875V113.66H70.7715V118.289L73.6953 113.66ZM24.3242 134.299H23.5332V137H22.4434V130.66H23.5332V133.344H24.2422L26.375 130.66H27.6875L25.1797 133.707L27.8984 137H26.5215L24.3242 134.299ZM34.1855 133.9C34.1855 134.865 33.9648 135.643 33.5234 136.232C33.082 136.822 32.4844 137.117 31.7305 137.117C30.9609 137.117 30.3555 136.873 29.9141 136.385V139.438H28.8301V130.66H29.8203L29.873 131.363C30.3145 130.816 30.9277 130.543 31.7129 130.543C32.4746 130.543 33.0762 130.83 33.5176 131.404C33.9629 131.979 34.1855 132.777 34.1855 133.801V133.9ZM33.1016 133.777C33.1016 133.062 32.9492 132.498 32.6445 132.084C32.3398 131.67 31.9219 131.463 31.3906 131.463C30.7344 131.463 30.2422 131.754 29.9141 132.336V135.365C30.2383 135.943 30.7344 136.232 31.4023 136.232C31.9219 136.232 32.334 136.027 32.6387 135.617C32.9473 135.203 33.1016 134.59 33.1016 133.777ZM39.4824 137C39.4199 136.875 39.3691 136.652 39.3301 136.332C38.8262 136.855 38.2246 137.117 37.5254 137.117C36.9004 137.117 36.3867 136.941 35.9844 136.59C35.5859 136.234 35.3867 135.785 35.3867 135.242C35.3867 134.582 35.6367 134.07 36.1367 133.707C36.6406 133.34 37.3477 133.156 38.2578 133.156H39.3125V132.658C39.3125 132.279 39.1992 131.979 38.9727 131.756C38.7461 131.529 38.4121 131.416 37.9707 131.416C37.584 131.416 37.2598 131.514 36.998 131.709C36.7363 131.904 36.6055 132.141 36.6055 132.418H35.5156C35.5156 132.102 35.627 131.797 35.8496 131.504C36.0762 131.207 36.3809 130.973 36.7637 130.801C37.1504 130.629 37.5742 130.543 38.0352 130.543C38.7656 130.543 39.3379 130.727 39.752 131.094C40.166 131.457 40.3809 131.959 40.3965 132.6V135.518C40.3965 136.1 40.4707 136.562 40.6191 136.906V137H39.4824ZM37.6836 136.174C38.0234 136.174 38.3457 136.086 38.6504 135.91C38.9551 135.734 39.1758 135.506 39.3125 135.225V133.924H38.4629C37.1348 133.924 36.4707 134.312 36.4707 135.09C36.4707 135.43 36.584 135.695 36.8105 135.887C37.0371 136.078 37.3281 136.174 37.6836 136.174ZM44.6387 136.232C45.0254 136.232 45.3633 136.115 45.6523 135.881C45.9414 135.646 46.1016 135.354 46.1328 135.002H47.1582C47.1387 135.365 47.0137 135.711 46.7832 136.039C46.5527 136.367 46.2441 136.629 45.8574 136.824C45.4746 137.02 45.0684 137.117 44.6387 137.117C43.7754 137.117 43.0879 136.83 42.5762 136.256C42.0684 135.678 41.8145 134.889 41.8145 133.889V133.707C41.8145 133.09 41.9277 132.541 42.1543 132.061C42.3809 131.58 42.7051 131.207 43.127 130.941C43.5527 130.676 44.0547 130.543 44.6328 130.543C45.3438 130.543 45.9336 130.756 46.4023 131.182C46.875 131.607 47.127 132.16 47.1582 132.84H46.1328C46.1016 132.43 45.9453 132.094 45.6641 131.832C45.3867 131.566 45.043 131.434 44.6328 131.434C44.082 131.434 43.6543 131.633 43.3496 132.031C43.0488 132.426 42.8984 132.998 42.8984 133.748V133.953C42.8984 134.684 43.0488 135.246 43.3496 135.641C43.6504 136.035 44.0801 136.232 44.6387 136.232ZM48.0898 133.771C48.0898 133.15 48.2109 132.592 48.4531 132.096C48.6992 131.6 49.0391 131.217 49.4727 130.947C49.9102 130.678 50.4082 130.543 50.9668 130.543C51.8301 130.543 52.5273 130.842 53.0586 131.439C53.5938 132.037 53.8613 132.832 53.8613 133.824V133.9C53.8613 134.518 53.7422 135.072 53.5039 135.564C53.2695 136.053 52.9316 136.434 52.4902 136.707C52.0527 136.98 51.5488 137.117 50.9785 137.117C50.1191 137.117 49.4219 136.818 48.8867 136.221C48.3555 135.623 48.0898 134.832 48.0898 133.848V133.771ZM49.1797 133.9C49.1797 134.604 49.3418 135.168 49.666 135.594C49.9941 136.02 50.4316 136.232 50.9785 136.232C51.5293 136.232 51.9668 136.018 52.291 135.588C52.6152 135.154 52.7773 134.549 52.7773 133.771C52.7773 133.076 52.6113 132.514 52.2793 132.084C51.9512 131.65 51.5137 131.434 50.9668 131.434C50.4316 131.434 50 131.646 49.6719 132.072C49.3438 132.498 49.1797 133.107 49.1797 133.9ZM59.8027 131.539H57.6758V137H56.5918V131.539H54.5059V130.66H59.8027V131.539ZM64.6777 137C64.6152 136.875 64.5645 136.652 64.5254 136.332C64.0215 136.855 63.4199 137.117 62.7207 137.117C62.0957 137.117 61.582 136.941 61.1797 136.59C60.7812 136.234 60.582 135.785 60.582 135.242C60.582 134.582 60.832 134.07 61.332 133.707C61.8359 133.34 62.543 133.156 63.4531 133.156H64.5078V132.658C64.5078 132.279 64.3945 131.979 64.168 131.756C63.9414 131.529 63.6074 131.416 63.166 131.416C62.7793 131.416 62.4551 131.514 62.1934 131.709C61.9316 131.904 61.8008 132.141 61.8008 132.418H60.7109C60.7109 132.102 60.8223 131.797 61.0449 131.504C61.2715 131.207 61.5762 130.973 61.959 130.801C62.3457 130.629 62.7695 130.543 63.2305 130.543C63.9609 130.543 64.5332 130.727 64.9473 131.094C65.3613 131.457 65.5762 131.959 65.5918 132.6V135.518C65.5918 136.1 65.666 136.562 65.8145 136.906V137H64.6777ZM62.8789 136.174C63.2188 136.174 63.541 136.086 63.8457 135.91C64.1504 135.734 64.3711 135.506 64.5078 135.225V133.924H63.6582C62.3301 133.924 61.666 134.312 61.666 135.09C61.666 135.43 61.7793 135.695 62.0059 135.887C62.2324 136.078 62.5234 136.174 62.8789 136.174Z" fill="#484848"/>
<g filter="url(#filter0_d)">
<circle cx="44" cy="43" r="40" fill="white"/>
</g>
<path d="M40.5 42.5L42 46.5H46L47.5 42.5L44 39.5L40.5 42.5Z" fill="#999999"/>
<path fill-rule="evenodd" clip-rule="evenodd" d="M54 43C54 48.5228 49.5228 53 44 53C38.4772 53 34 48.5228 34 43C34 37.4772 38.4772 33 44 33C49.5228 33 54 37.4772 54 43ZM46.66 50.5471C45.8278 50.8404 44.9325 51 44 51C43.0951 51 42.2253 50.8498 41.4142 50.5729L40.1046 47.7969L37.4189 47.5499C36.7567 46.5937 36.2974 45.4863 36.1034 44.2899L38.4971 41.8749L37.5481 38.2691C38.5497 36.9054 39.9733 35.8709 41.6265 35.358L44.5 37L46.9897 35.5773C48.4045 36.1478 49.6189 37.111 50.4976 38.3319L49.5652 41.8749L51.9051 44.2358C51.716 45.4554 51.2514 46.584 50.5768 47.5559L47.9574 47.7969L46.66 50.5471Z" fill="#999999"/>
<defs>
<filter id="filter0_d" x="0" y="0" width="88" height="88" filterUnits="userSpaceOnUse" color-interpolation-filters="sRGB">
<feFlood flood-opacity="0" result="BackgroundImageFix"/>
<feColorMatrix in="SourceAlpha" type="matrix" values="0 0 0 0 0 0 0 0 0 0 0 0 0 0 0 0 0 0 127 0" result="hardAlpha"/>
<feOffset dy="1"/>
<feGaussianBlur stdDeviation="2"/>
<feColorMatrix type="matrix" values="0 0 0 0 0 0 0 0 0 0 0 0 0 0 0 0 0 0 0.15 0"/>
<feBlend mode="normal" in2="BackgroundImageFix" result="effect1_dropShadow"/>
<feBlend mode="normal" in="SourceGraphic" in2="effect1_dropShadow" result="shape"/>
</filter>
</defs>
</svg>
