<svg width="88" height="108" viewBox="0 0 88 108" fill="none" xmlns="http://www.w3.org/2000/svg">
<path d="M36.2129 101.773H32.6387L31.8359 104H30.6758L33.9336 95.4688H34.918L38.1816 104H37.0273L36.2129 101.773ZM32.9785 100.848H35.8789L34.4258 96.8574L32.9785 100.848ZM39.2598 104V97.6602H41.7324C42.5762 97.6602 43.2227 97.8086 43.6719 98.1055C44.125 98.3984 44.3516 98.8301 44.3516 99.4004C44.3516 99.6934 44.2637 99.959 44.0879 100.197C43.9121 100.432 43.6523 100.611 43.3086 100.736C43.6914 100.826 43.998 101.002 44.2285 101.264C44.4629 101.525 44.5801 101.838 44.5801 102.201C44.5801 102.783 44.3652 103.229 43.9355 103.537C43.5098 103.846 42.9062 104 42.125 104H39.2598ZM40.3438 101.217V103.127H42.1367C42.5898 103.127 42.9277 103.043 43.1504 102.875C43.377 102.707 43.4902 102.471 43.4902 102.166C43.4902 101.533 43.0254 101.217 42.0957 101.217H40.3438ZM40.3438 100.35H41.7441C42.7598 100.35 43.2676 100.053 43.2676 99.459C43.2676 98.8652 42.7871 98.5586 41.8262 98.5391H40.3438V100.35ZM50.6562 98.5391H48.5293V104H47.4453V98.5391H45.3594V97.6602H50.6562V98.5391ZM51.1777 100.771C51.1777 100.15 51.2988 99.5918 51.541 99.0957C51.7871 98.5996 52.127 98.2168 52.5605 97.9473C52.998 97.6777 53.4961 97.543 54.0547 97.543C54.918 97.543 55.6152 97.8418 56.1465 98.4395C56.6816 99.0371 56.9492 99.832 56.9492 100.824V100.9C56.9492 101.518 56.8301 102.072 56.5918 102.564C56.3574 103.053 56.0195 103.434 55.5781 103.707C55.1406 103.98 54.6367 104.117 54.0664 104.117C53.207 104.117 52.5098 103.818 51.9746 103.221C51.4434 102.623 51.1777 101.832 51.1777 100.848V100.771ZM52.2676 100.9C52.2676 101.604 52.4297 102.168 52.7539 102.594C53.082 103.02 53.5195 103.232 54.0664 103.232C54.6172 103.232 55.0547 103.018 55.3789 102.588C55.7031 102.154 55.8652 101.549 55.8652 100.771C55.8652 100.076 55.6992 99.5137 55.3672 99.084C55.0391 98.6504 54.6016 98.4336 54.0547 98.4336C53.5195 98.4336 53.0879 98.6465 52.7598 99.0723C52.4316 99.498 52.2676 100.107 52.2676 100.9Z" fill="#484848"/>
<g filter="url(#filter0_d)">
<circle cx="44" cy="43" r="40" fill="white"/>
</g>
<path d="M40 45C40 45.5523 39.5523 46 39 46C38.4477 46 38 45.5523 38 45C38 44.4477 38.4477 44 39 44C39.5523 44 40 44.4477 40 45Z" fill="#999999"/>
<path d="M49 46C49.5523 46 50 45.5523 50 45C50 44.4477 49.5523 44 49 44C48.4477 44 48 44.4477 48 45C48 45.5523 48.4477 46 49 46Z" fill="#999999"/>
<path fill-rule="evenodd" clip-rule="evenodd" d="M38.618 34C37.8605 34 37.168 34.428 36.8292 35.1056L35.2364 38.2912L33 37L32 38.7321L34.3403 40.0832L34.2111 40.3416C34.0723 40.6194 34 40.9256 34 41.2361V51C34 51.5523 34.4477 52 35 52H36C36.5523 52 37 51.5523 37 51V50H51V51C51 51.5523 51.4477 52 52 52H53C53.5523 52 54 51.5523 54 51V41.2361C54 40.9256 53.9277 40.6194 53.7889 40.3416L53.6597 40.0832L56 38.7321L55 37L52.7636 38.2912L51.1708 35.1056C50.832 34.428 50.1395 34 49.382 34H38.618ZM52 48V42H36V48H52ZM38.618 36H49.382L51.382 40H46.5C47.3284 40 48 39.3284 48 38.5C48 37.6716 47.3284 37 46.5 37C45.6716 37 45 37.6716 45 38.5C45 39.3284 45.6716 40 46.5 40H41.5C42.3284 40 43 39.3284 43 38.5C43 37.6716 42.3284 37 41.5 37C40.6716 37 40 37.6716 40 38.5C40 39.3284 40.6716 40 41.5 40H36.618L38.618 36Z" fill="#999999"/>
<defs>
<filter id="filter0_d" x="0" y="0" width="88" height="88" filterUnits="userSpaceOnUse" color-interpolation-filters="sRGB">
<feFlood flood-opacity="0" result="BackgroundImageFix"/>
<feColorMatrix in="SourceAlpha" type="matrix" values="0 0 0 0 0 0 0 0 0 0 0 0 0 0 0 0 0 0 127 0" result="hardAlpha"/>
<feOffset dy="1"/>
<feGaussianBlur stdDeviation="2"/>
<feColorMatrix type="matrix" values="0 0 0 0 0 0 0 0 0 0 0 0 0 0 0 0 0 0 0.15 0"/>
<feBlend mode="normal" in2="BackgroundImageFix" result="effect1_dropShadow"/>
<feBlend mode="normal" in="SourceGraphic" in2="effect1_dropShadow" result="shape"/>
</filter>
</defs>
</svg>
