<svg width="88" height="125" viewBox="0 0 88 125" fill="none" xmlns="http://www.w3.org/2000/svg">
<path d="M13.0918 96.3242H13.2734C13.918 96.3281 14.5059 96.4785 15.0371 96.7754C15.5684 97.0723 15.9805 97.4824 16.2734 98.0059C16.5703 98.5254 16.7188 99.1074 16.7188 99.752C16.7188 100.4 16.5703 100.988 16.2734 101.516C15.9766 102.043 15.5664 102.455 15.043 102.752C14.5195 103.045 13.9375 103.195 13.2969 103.203H13.0918V104.352H12.002V103.203H11.8379C11.1855 103.203 10.5918 103.055 10.0566 102.758C9.52539 102.461 9.11133 102.051 8.81445 101.527C8.52148 101.004 8.375 100.416 8.375 99.7637C8.375 99.1113 8.52148 98.5234 8.81445 98C9.11133 97.4766 9.52539 97.0664 10.0566 96.7695C10.5918 96.4727 11.1855 96.3242 11.8379 96.3242H12.002V95.1172H13.0918V96.3242ZM11.8379 97.209C11.1035 97.209 10.5215 97.4355 10.0918 97.8887C9.66602 98.3379 9.45312 98.9629 9.45312 99.7637C9.45312 100.568 9.66602 101.195 10.0918 101.645C10.5176 102.09 11.1035 102.312 11.8496 102.312H12.002V97.209H11.8379ZM13.0918 97.209V102.312H13.2559C14.002 102.312 14.584 102.084 15.002 101.627C15.4238 101.166 15.6348 100.541 15.6348 99.752C15.6348 98.9707 15.4238 98.3516 15.002 97.8945C14.584 97.4375 13.9941 97.209 13.2324 97.209H13.0918ZM22.0684 97.6602H23.1523V104H22.0684V99.377L19.1445 104H18.0605V97.6602H19.1445V102.289L22.0684 97.6602ZM30.0723 104H28.9883V101.293H26.0762V104H24.9863V97.6602H26.0762V100.408H28.9883V97.6602H30.0723V104ZM35.7324 104C35.6699 103.875 35.6191 103.652 35.5801 103.332C35.0762 103.855 34.4746 104.117 33.7754 104.117C33.1504 104.117 32.6367 103.941 32.2344 103.59C31.8359 103.234 31.6367 102.785 31.6367 102.242C31.6367 101.582 31.8867 101.07 32.3867 100.707C32.8906 100.34 33.5977 100.156 34.5078 100.156H35.5625V99.6582C35.5625 99.2793 35.4492 98.9785 35.2227 98.7559C34.9961 98.5293 34.6621 98.416 34.2207 98.416C33.834 98.416 33.5098 98.5137 33.248 98.709C32.9863 98.9043 32.8555 99.1406 32.8555 99.418H31.7656C31.7656 99.1016 31.877 98.7969 32.0996 98.5039C32.3262 98.207 32.6309 97.9727 33.0137 97.8008C33.4004 97.6289 33.8242 97.543 34.2852 97.543C35.0156 97.543 35.5879 97.7266 36.002 98.0938C36.416 98.457 36.6309 98.959 36.6465 99.5996V102.518C36.6465 103.1 36.7207 103.562 36.8691 103.906V104H35.7324ZM33.9336 103.174C34.2734 103.174 34.5957 103.086 34.9004 102.91C35.2051 102.734 35.4258 102.506 35.5625 102.225V100.924H34.7129C33.3848 100.924 32.7207 101.312 32.7207 102.09C32.7207 102.43 32.834 102.695 33.0605 102.887C33.2871 103.078 33.5781 103.174 33.9336 103.174ZM43.5254 104H42.4414V101.293H39.5293V104H38.4395V97.6602H39.5293V100.408H42.4414V97.6602H43.5254V104ZM47.8145 103.232C48.2012 103.232 48.5391 103.115 48.8281 102.881C49.1172 102.646 49.2773 102.354 49.3086 102.002H50.334C50.3145 102.365 50.1895 102.711 49.959 103.039C49.7285 103.367 49.4199 103.629 49.0332 103.824C48.6504 104.02 48.2441 104.117 47.8145 104.117C46.9512 104.117 46.2637 103.83 45.752 103.256C45.2441 102.678 44.9902 101.889 44.9902 100.889V100.707C44.9902 100.09 45.1035 99.541 45.3301 99.0605C45.5566 98.5801 45.8809 98.207 46.3027 97.9414C46.7285 97.6758 47.2305 97.543 47.8086 97.543C48.5195 97.543 49.1094 97.7559 49.5781 98.1816C50.0508 98.6074 50.3027 99.1602 50.334 99.8398H49.3086C49.2773 99.4297 49.1211 99.0938 48.8398 98.832C48.5625 98.5664 48.2188 98.4336 47.8086 98.4336C47.2578 98.4336 46.8301 98.6328 46.5254 99.0312C46.2246 99.4258 46.0742 99.998 46.0742 100.748V100.953C46.0742 101.684 46.2246 102.246 46.5254 102.641C46.8262 103.035 47.2559 103.232 47.8145 103.232ZM51.2656 100.771C51.2656 100.15 51.3867 99.5918 51.6289 99.0957C51.875 98.5996 52.2148 98.2168 52.6484 97.9473C53.0859 97.6777 53.584 97.543 54.1426 97.543C55.0059 97.543 55.7031 97.8418 56.2344 98.4395C56.7695 99.0371 57.0371 99.832 57.0371 100.824V100.9C57.0371 101.518 56.918 102.072 56.6797 102.564C56.4453 103.053 56.1074 103.434 55.666 103.707C55.2285 103.98 54.7246 104.117 54.1543 104.117C53.2949 104.117 52.5977 103.818 52.0625 103.221C51.5312 102.623 51.2656 101.832 51.2656 100.848V100.771ZM52.3555 100.9C52.3555 101.604 52.5176 102.168 52.8418 102.594C53.1699 103.02 53.6074 103.232 54.1543 103.232C54.7051 103.232 55.1426 103.018 55.4668 102.588C55.791 102.154 55.9531 101.549 55.9531 100.771C55.9531 100.076 55.7871 99.5137 55.4551 99.084C55.127 98.6504 54.6895 98.4336 54.1426 98.4336C53.6074 98.4336 53.1758 98.6465 52.8477 99.0723C52.5195 99.498 52.3555 100.107 52.3555 100.9ZM58.4961 104V97.6602H60.9688C61.8125 97.6602 62.459 97.8086 62.9082 98.1055C63.3613 98.3984 63.5879 98.8301 63.5879 99.4004C63.5879 99.6934 63.5 99.959 63.3242 100.197C63.1484 100.432 62.8887 100.611 62.5449 100.736C62.9277 100.826 63.2344 101.002 63.4648 101.264C63.6992 101.525 63.8164 101.838 63.8164 102.201C63.8164 102.783 63.6016 103.229 63.1719 103.537C62.7461 103.846 62.1426 104 61.3613 104H58.4961ZM59.5801 101.217V103.127H61.373C61.8262 103.127 62.1641 103.043 62.3867 102.875C62.6133 102.707 62.7266 102.471 62.7266 102.166C62.7266 101.533 62.2617 101.217 61.332 101.217H59.5801ZM59.5801 100.35H60.9805C61.9961 100.35 62.5039 100.053 62.5039 99.459C62.5039 98.8652 62.0234 98.5586 61.0625 98.5391H59.5801V100.35ZM66.4355 99.8457H68.082C68.8008 99.8535 69.3691 100.041 69.7871 100.408C70.2051 100.775 70.4141 101.273 70.4141 101.902C70.4141 102.535 70.1992 103.043 69.7695 103.426C69.3398 103.809 68.7617 104 68.0352 104H65.3516V97.6602H66.4355V99.8457ZM72.6758 104H71.5859V97.6602H72.6758V104ZM66.4355 100.73V103.115H68.0469C68.4531 103.115 68.7676 103.012 68.9902 102.805C69.2129 102.594 69.3242 102.307 69.3242 101.943C69.3242 101.592 69.2148 101.305 68.9961 101.082C68.7812 100.855 68.4785 100.738 68.0879 100.73H66.4355ZM77.1992 104.117C76.3398 104.117 75.6406 103.836 75.1016 103.273C74.5625 102.707 74.293 101.951 74.293 101.006V100.807C74.293 100.178 74.4121 99.6172 74.6504 99.125C74.8926 98.6289 75.2285 98.2422 75.6582 97.9648C76.0918 97.6836 76.5605 97.543 77.0645 97.543C77.8887 97.543 78.5293 97.8145 78.9863 98.3574C79.4434 98.9004 79.6719 99.6777 79.6719 100.689V101.141H75.377C75.3926 101.766 75.5742 102.271 75.9219 102.658C76.2734 103.041 76.7188 103.232 77.2578 103.232C77.6406 103.232 77.9648 103.154 78.2305 102.998C78.4961 102.842 78.7285 102.635 78.9277 102.377L79.5898 102.893C79.0586 103.709 78.2617 104.117 77.1992 104.117ZM77.0645 98.4336C76.627 98.4336 76.2598 98.5938 75.9629 98.9141C75.666 99.2305 75.4824 99.6758 75.4121 100.25H78.5879V100.168C78.5566 99.6172 78.4082 99.1914 78.1426 98.8906C77.877 98.5859 77.5176 98.4336 77.0645 98.4336ZM28.6602 118.412L30.1367 113.66H31.2969L28.748 120.979C28.3535 122.033 27.7266 122.561 26.8672 122.561L26.6621 122.543L26.2578 122.467V121.588L26.5508 121.611C26.918 121.611 27.2031 121.537 27.4062 121.389C27.6133 121.24 27.7832 120.969 27.916 120.574L28.1562 119.93L25.8945 113.66H27.0781L28.6602 118.412ZM34.7305 119.232C35.1172 119.232 35.4551 119.115 35.7441 118.881C36.0332 118.646 36.1934 118.354 36.2246 118.002H37.25C37.2305 118.365 37.1055 118.711 36.875 119.039C36.6445 119.367 36.3359 119.629 35.9492 119.824C35.5664 120.02 35.1602 120.117 34.7305 120.117C33.8672 120.117 33.1797 119.83 32.668 119.256C32.1602 118.678 31.9062 117.889 31.9062 116.889V116.707C31.9062 116.09 32.0195 115.541 32.2461 115.061C32.4727 114.58 32.7969 114.207 33.2188 113.941C33.6445 113.676 34.1465 113.543 34.7246 113.543C35.4355 113.543 36.0254 113.756 36.4941 114.182C36.9668 114.607 37.2188 115.16 37.25 115.84H36.2246C36.1934 115.43 36.0371 115.094 35.7559 114.832C35.4785 114.566 35.1348 114.434 34.7246 114.434C34.1738 114.434 33.7461 114.633 33.4414 115.031C33.1406 115.426 32.9902 115.998 32.9902 116.748V116.953C32.9902 117.684 33.1406 118.246 33.4414 118.641C33.7422 119.035 34.1719 119.232 34.7305 119.232ZM43.666 113.66V120H42.5762V114.557H40.4199L40.291 116.93C40.2207 118.02 40.0371 118.799 39.7402 119.268C39.4473 119.736 38.9805 119.98 38.3398 120H37.9062V119.045L38.2168 119.021C38.5684 118.982 38.8203 118.779 38.9727 118.412C39.125 118.045 39.2227 117.365 39.2656 116.373L39.3828 113.66H43.666ZM47.4805 118.412L48.957 113.66H50.1172L47.5684 120.979C47.1738 122.033 46.5469 122.561 45.6875 122.561L45.4824 122.543L45.0781 122.467V121.588L45.3711 121.611C45.7383 121.611 46.0234 121.537 46.2266 121.389C46.4336 121.24 46.6035 120.969 46.7363 120.574L46.9766 119.93L44.7148 113.66H45.8984L47.4805 118.412ZM55.1855 114.557H52.2617V120H51.1719V113.66H55.1855V114.557ZM60.2305 113.66H61.3145V120H60.2305V115.377L57.3066 120H56.2227V113.66H57.3066V118.289L60.2305 113.66Z" fill="#484848"/>
<g filter="url(#filter0_d)">
<circle cx="44" cy="43" r="40" fill="white"/>
</g>
<path d="M40 42H38V44H40V42Z" fill="#999999"/>
<path d="M48 42H50V44H48V42Z" fill="#999999"/>
<path d="M45 37H43.5V38.0844C42.9091 38.2337 42.4317 38.5726 42.0936 39.0336C41.6592 39.626 41.5 40.3522 41.5 41C41.5 41.8429 41.8873 42.4641 42.3572 42.9116C42.7747 43.3093 43.3036 43.6112 43.7092 43.8428L43.7539 43.8682C44.218 44.1334 44.5402 44.324 44.7635 44.5366C44.9498 44.7141 45 44.8429 45 45C45 45.5105 44.8398 45.722 44.734 45.8166C44.6036 45.933 44.4079 46 44.2 46C43.4905 46 43 45.3879 43 45H41C41 46.385 42.1141 47.6045 43.5 47.9206V49H45V47.889C45.3686 47.7846 45.7394 47.6 46.066 47.3084C46.6602 46.778 47 45.9895 47 45C47 44.1571 46.6127 43.5359 46.1428 43.0884C45.7253 42.6907 45.1964 42.3888 44.7908 42.1572L44.7461 42.1318C44.282 41.8666 43.9598 41.676 43.7365 41.4634C43.5502 41.2859 43.5 41.1571 43.5 41C43.5 40.6478 43.5908 40.374 43.7064 40.2164C43.7934 40.0978 43.9191 40 44.2 40C44.4079 40 44.6036 40.067 44.734 40.1834C44.8398 40.278 45 40.4895 45 41H47C47 40.0105 46.6602 39.222 46.066 38.6916C45.7394 38.4 45.3686 38.2154 45 38.111V37Z" fill="#999999"/>
<path fill-rule="evenodd" clip-rule="evenodd" d="M36 34C34.8954 34 34 34.8954 34 36V50C34 51.1046 34.8954 52 36 52H52C53.1046 52 54 51.1046 54 50V36C54 34.8954 53.1046 34 52 34H36ZM38 36H50.0021L50 36C50 37.1046 50.8954 38 52 38L52 48.0021L52 48C50.8954 48 50 48.8954 50 50L50.0023 50H37.998L38 50C38 48.8954 37.1046 48 36 48L36 48.0023V37.997L36 38C37.1046 38 38 37.1046 38 36Z" fill="#999999"/>
<defs>
<filter id="filter0_d" x="0" y="0" width="88" height="88" filterUnits="userSpaceOnUse" color-interpolation-filters="sRGB">
<feFlood flood-opacity="0" result="BackgroundImageFix"/>
<feColorMatrix in="SourceAlpha" type="matrix" values="0 0 0 0 0 0 0 0 0 0 0 0 0 0 0 0 0 0 127 0" result="hardAlpha"/>
<feOffset dy="1"/>
<feGaussianBlur stdDeviation="2"/>
<feColorMatrix type="matrix" values="0 0 0 0 0 0 0 0 0 0 0 0 0 0 0 0 0 0 0.15 0"/>
<feBlend mode="normal" in2="BackgroundImageFix" result="effect1_dropShadow"/>
<feBlend mode="normal" in="SourceGraphic" in2="effect1_dropShadow" result="shape"/>
</filter>
</defs>
</svg>
