<svg width="20" height="20" viewBox="0 0 20 20" fill="none" xmlns="http://www.w3.org/2000/svg">
<path fill-rule="evenodd" clip-rule="evenodd" d="M11.4297 0.631496C10.6625 -0.210499 9.33749 -0.210499 8.57035 0.631496C8.06145 1.19005 7.27386 1.40109 6.55386 1.17181C5.4685 0.826193 4.321 1.4887 4.07764 2.60146C3.91619 3.33964 3.33964 3.91619 2.60146 4.07764C1.4887 4.321 0.826193 5.4685 1.17181 6.55386C1.40109 7.27386 1.19005 8.06145 0.631496 8.57035C-0.210499 9.33749 -0.210499 10.6625 0.631496 11.4297C1.19005 11.9386 1.40109 12.7261 1.17181 13.4461C0.826193 14.5315 1.4887 15.679 2.60146 15.9224C3.33964 16.0838 3.91619 16.6604 4.07764 17.3985C4.321 18.5113 5.4685 19.1738 6.55386 18.8282C7.27386 18.5989 8.06145 18.8099 8.57035 19.3685C9.33749 20.2105 10.6625 20.2105 11.4297 19.3685C11.9385 18.8099 12.7261 18.5989 13.4461 18.8282C14.5315 19.1738 15.679 18.5113 15.9224 17.3985C16.0838 16.6604 16.6604 16.0838 17.3985 15.9224C18.5113 15.679 19.1738 14.5315 18.8282 13.4461C18.5989 12.7261 18.8099 11.9385 19.3685 11.4297C20.2105 10.6625 20.2105 9.33749 19.3685 8.57035C18.8099 8.06145 18.5989 7.27386 18.8282 6.55386C19.1738 5.4685 18.5113 4.321 17.3985 4.07763C16.6604 3.91619 16.0838 3.33964 15.9224 2.60146C15.679 1.4887 14.5315 0.826193 13.4461 1.17181C12.7261 1.40109 11.9385 1.19005 11.4297 0.631496ZM7.77138 5.36362C7.50287 5.03816 7.05898 4.91624 6.6619 5.05889C6.26483 5.20154 6.00001 5.57807 6.00001 6V14C6.00001 14.5523 6.44772 15 7.00001 15C7.55229 15 8 14.5523 8 14V8.78351L12.8286 14.6364C13.0971 14.9618 13.541 15.0838 13.9381 14.9411C14.3351 14.7985 14.6 14.4219 14.6 14V6C14.6 5.44772 14.1523 5 13.6 5C13.0477 5 12.6 5.44772 12.6 6V11.2165L7.77138 5.36362Z" fill="#7B68EE"/>
</svg>
