<svg width="22" height="20" viewBox="0 0 22 20" fill="none" xmlns="http://www.w3.org/2000/svg">
<path d="M9.49273 4.1298C9.80624 4.30731 10 4.63973 10 5V12C10 12.5523 9.55231 13 9.00003 13C8.44774 13 8.00003 12.5523 8.00003 12V6.76619L7.01452 7.35749C6.54094 7.64164 5.92668 7.48808 5.64254 7.0145C5.35839 6.54092 5.51195 5.92666 5.98553 5.64251L8.48553 4.14251C8.79446 3.95715 9.17922 3.95229 9.49273 4.1298Z" fill="#0D870D"/>
<path fill-rule="evenodd" clip-rule="evenodd" d="M0 8.5C0 3.80558 3.80558 0 8.5 0C13.1944 0 17 3.80558 17 8.5C17 13.1944 13.1944 17 8.5 17C3.80558 17 0 13.1944 0 8.5ZM8.5 2C4.91015 2 2 4.91015 2 8.5C2 12.0899 4.91015 15 8.5 15C12.0899 15 15 12.0899 15 8.5C15 4.91015 12.0899 2 8.5 2Z" fill="#0D870D"/>
<path d="M13.5 20C12.0225 20 10.6331 19.6231 9.42261 18.96C10.6994 18.8489 11.9107 18.5093 13.0154 17.9822C13.1754 17.994 13.337 18 13.5 18C17.0899 18 20 15.0899 20 11.5C20 10.2186 19.6292 9.02387 18.9891 8.01713C18.9311 6.73657 18.6438 5.51577 18.1672 4.39484C20.476 5.91451 22 8.52929 22 11.5C22 16.1944 18.1944 20 13.5 20Z" fill="#0D870D"/>
</svg>
