<svg width="88" height="125" viewBox="0 0 88 125" fill="none" xmlns="http://www.w3.org/2000/svg">
<path d="M28.5898 100.01C28.5898 100.846 28.4492 101.576 28.168 102.201C27.8867 102.822 27.4883 103.297 26.9727 103.625C26.457 103.953 25.8555 104.117 25.168 104.117C24.4961 104.117 23.9004 103.953 23.3809 103.625C22.8613 103.293 22.457 102.822 22.168 102.213C21.8828 101.6 21.7363 100.891 21.7285 100.086V99.4707C21.7285 98.6504 21.8711 97.9258 22.1562 97.2969C22.4414 96.668 22.8438 96.1875 23.3633 95.8555C23.8867 95.5195 24.4844 95.3516 25.1562 95.3516C25.8398 95.3516 26.4414 95.5176 26.9609 95.8496C27.4844 96.1777 27.8867 96.6562 28.168 97.2852C28.4492 97.9102 28.5898 98.6387 28.5898 99.4707V100.01ZM27.4707 99.459C27.4707 98.4473 27.2676 97.6719 26.8613 97.1328C26.4551 96.5898 25.8867 96.3184 25.1562 96.3184C24.4453 96.3184 23.8848 96.5898 23.4746 97.1328C23.0684 97.6719 22.8594 98.4219 22.8477 99.3828V100.01C22.8477 100.99 23.0527 101.762 23.4629 102.324C23.877 102.883 24.4453 103.162 25.168 103.162C25.8945 103.162 26.457 102.898 26.8555 102.371C27.2539 101.84 27.459 101.08 27.4707 100.092V99.459ZM34.8184 98.5391H32.6914V104H31.6074V98.5391H29.5215V97.6602H34.8184V98.5391ZM35.3164 103.115L35.6914 102.652C36.1133 102.105 36.3535 101.285 36.4121 100.191L36.5117 97.6602H40.5957V103.115H41.4102V105.863H40.3262V104H35.9023V105.863H34.8184L34.8242 103.115H35.3164ZM36.5996 103.115H39.5117V98.6621H37.5605L37.4961 100.174C37.4297 101.436 37.1309 102.416 36.5996 103.115ZM43.7949 99.8457H45.4414C46.1602 99.8535 46.7285 100.041 47.1465 100.408C47.5645 100.775 47.7734 101.273 47.7734 101.902C47.7734 102.535 47.5586 103.043 47.1289 103.426C46.6992 103.809 46.1211 104 45.3945 104H42.7109V97.6602H43.7949V99.8457ZM50.0352 104H48.9453V97.6602H50.0352V104ZM43.7949 100.73V103.115H45.4062C45.8125 103.115 46.127 103.012 46.3496 102.805C46.5723 102.594 46.6836 102.307 46.6836 101.943C46.6836 101.592 46.5742 101.305 46.3555 101.082C46.1406 100.855 45.8379 100.738 45.4473 100.73H43.7949ZM54.0547 99.9746L55.4609 97.6602H56.7266L54.6523 100.795L56.791 104H55.5371L54.0723 101.627L52.6074 104H51.3477L53.4863 100.795L51.4121 97.6602H52.666L54.0547 99.9746ZM64.959 97.6602H66.043V104H64.959V99.377L62.0352 104H60.9512V97.6602H62.0352V102.289L64.959 97.6602ZM13.7539 116.9C13.7539 117.865 13.5332 118.643 13.0918 119.232C12.6504 119.822 12.0527 120.117 11.2988 120.117C10.5293 120.117 9.92383 119.873 9.48242 119.385V122.438H8.39844V113.66H9.38867L9.44141 114.363C9.88281 113.816 10.4961 113.543 11.2812 113.543C12.043 113.543 12.6445 113.83 13.0859 114.404C13.5312 114.979 13.7539 115.777 13.7539 116.801V116.9ZM12.6699 116.777C12.6699 116.062 12.5176 115.498 12.2129 115.084C11.9082 114.67 11.4902 114.463 10.959 114.463C10.3027 114.463 9.81055 114.754 9.48242 115.336V118.365C9.80664 118.943 10.3027 119.232 10.9707 119.232C11.4902 119.232 11.9023 119.027 12.207 118.617C12.5156 118.203 12.6699 117.59 12.6699 116.777ZM19.0508 120C18.9883 119.875 18.9375 119.652 18.8984 119.332C18.3945 119.855 17.793 120.117 17.0938 120.117C16.4688 120.117 15.9551 119.941 15.5527 119.59C15.1543 119.234 14.9551 118.785 14.9551 118.242C14.9551 117.582 15.2051 117.07 15.7051 116.707C16.209 116.34 16.916 116.156 17.8262 116.156H18.8809V115.658C18.8809 115.279 18.7676 114.979 18.541 114.756C18.3145 114.529 17.9805 114.416 17.5391 114.416C17.1523 114.416 16.8281 114.514 16.5664 114.709C16.3047 114.904 16.1738 115.141 16.1738 115.418H15.084C15.084 115.102 15.1953 114.797 15.418 114.504C15.6445 114.207 15.9492 113.973 16.332 113.801C16.7188 113.629 17.1426 113.543 17.6035 113.543C18.334 113.543 18.9062 113.727 19.3203 114.094C19.7344 114.457 19.9492 114.959 19.9648 115.6V118.518C19.9648 119.1 20.0391 119.562 20.1875 119.906V120H19.0508ZM17.252 119.174C17.5918 119.174 17.9141 119.086 18.2188 118.91C18.5234 118.734 18.7441 118.506 18.8809 118.225V116.924H18.0312C16.7031 116.924 16.0391 117.312 16.0391 118.09C16.0391 118.43 16.1523 118.695 16.3789 118.887C16.6055 119.078 16.8965 119.174 17.252 119.174ZM25.1504 115.395C25.1504 115.098 25.0371 114.863 24.8105 114.691C24.584 114.516 24.2734 114.428 23.8789 114.428C23.4961 114.428 23.1758 114.527 22.918 114.727C22.6641 114.926 22.5371 115.16 22.5371 115.43H21.459C21.459 114.879 21.6895 114.428 22.1504 114.076C22.6113 113.725 23.1875 113.549 23.8789 113.549C24.6211 113.549 25.1992 113.709 25.6133 114.029C26.0273 114.346 26.2344 114.799 26.2344 115.389C26.2344 115.674 26.1484 115.936 25.9766 116.174C25.8047 116.412 25.5605 116.602 25.2441 116.742C25.9824 116.992 26.3516 117.484 26.3516 118.219C26.3516 118.801 26.127 119.262 25.6777 119.602C25.2285 119.941 24.6289 120.111 23.8789 120.111C23.1484 120.111 22.5449 119.934 22.0684 119.578C21.5957 119.219 21.3594 118.734 21.3594 118.125H22.4375C22.4375 118.434 22.5742 118.699 22.8477 118.922C23.125 119.141 23.4688 119.25 23.8789 119.25C24.293 119.25 24.627 119.154 24.8809 118.963C25.1348 118.771 25.2617 118.523 25.2617 118.219C25.2617 117.863 25.1543 117.609 24.9395 117.457C24.7285 117.301 24.3984 117.223 23.9492 117.223H22.8652V116.309H24.043C24.7812 116.289 25.1504 115.984 25.1504 115.395ZM27.8574 120V113.66H30.3301C31.1738 113.66 31.8203 113.809 32.2695 114.105C32.7227 114.398 32.9492 114.83 32.9492 115.4C32.9492 115.693 32.8613 115.959 32.6855 116.197C32.5098 116.432 32.25 116.611 31.9062 116.736C32.2891 116.826 32.5957 117.002 32.8262 117.264C33.0605 117.525 33.1777 117.838 33.1777 118.201C33.1777 118.783 32.9629 119.229 32.5332 119.537C32.1074 119.846 31.5039 120 30.7227 120H27.8574ZM28.9414 117.217V119.127H30.7344C31.1875 119.127 31.5254 119.043 31.748 118.875C31.9746 118.707 32.0879 118.471 32.0879 118.166C32.0879 117.533 31.623 117.217 30.6934 117.217H28.9414ZM28.9414 116.35H30.3418C31.3574 116.35 31.8652 116.053 31.8652 115.459C31.8652 114.865 31.3848 114.559 30.4238 114.539H28.9414V116.35ZM39.8105 113.66V120H38.7207V114.557H36.5645L36.4355 116.93C36.3652 118.02 36.1816 118.799 35.8848 119.268C35.5918 119.736 35.125 119.98 34.4844 120H34.0508V119.045L34.3613 119.021C34.7129 118.982 34.9648 118.779 35.1172 118.412C35.2695 118.045 35.3672 117.365 35.4102 116.373L35.5273 113.66H39.8105ZM44.1816 120.117C43.3223 120.117 42.623 119.836 42.084 119.273C41.5449 118.707 41.2754 117.951 41.2754 117.006V116.807C41.2754 116.178 41.3945 115.617 41.6328 115.125C41.875 114.629 42.2109 114.242 42.6406 113.965C43.0742 113.684 43.543 113.543 44.0469 113.543C44.8711 113.543 45.5117 113.814 45.9688 114.357C46.4258 114.9 46.6543 115.678 46.6543 116.689V117.141H42.3594C42.375 117.766 42.5566 118.271 42.9043 118.658C43.2559 119.041 43.7012 119.232 44.2402 119.232C44.623 119.232 44.9473 119.154 45.2129 118.998C45.4785 118.842 45.7109 118.635 45.9102 118.377L46.5723 118.893C46.041 119.709 45.2441 120.117 44.1816 120.117ZM44.0469 114.434C43.6094 114.434 43.2422 114.594 42.9453 114.914C42.6484 115.23 42.4648 115.676 42.3945 116.25H45.5703V116.168C45.5391 115.617 45.3906 115.191 45.125 114.891C44.8594 114.586 44.5 114.434 44.0469 114.434ZM52.7012 120H51.6113V117.703C51.1348 117.828 50.6465 117.891 50.1465 117.891C49.3535 117.891 48.748 117.688 48.3301 117.281C47.916 116.875 47.7051 116.297 47.6973 115.547V113.654H48.7812V115.582C48.8008 116.527 49.2559 117 50.1465 117C50.6465 117 51.1348 116.938 51.6113 116.812V113.66H52.7012V120ZM57.0723 120.117C56.2129 120.117 55.5137 119.836 54.9746 119.273C54.4355 118.707 54.166 117.951 54.166 117.006V116.807C54.166 116.178 54.2852 115.617 54.5234 115.125C54.7656 114.629 55.1016 114.242 55.5312 113.965C55.9648 113.684 56.4336 113.543 56.9375 113.543C57.7617 113.543 58.4023 113.814 58.8594 114.357C59.3164 114.9 59.5449 115.678 59.5449 116.689V117.141H55.25C55.2656 117.766 55.4473 118.271 55.7949 118.658C56.1465 119.041 56.5918 119.232 57.1309 119.232C57.5137 119.232 57.8379 119.154 58.1035 118.998C58.3691 118.842 58.6016 118.635 58.8008 118.377L59.4629 118.893C58.9316 119.709 58.1348 120.117 57.0723 120.117ZM56.9375 114.434C56.5 114.434 56.1328 114.594 55.8359 114.914C55.5391 115.23 55.3555 115.676 55.2852 116.25H58.4609V116.168C58.4297 115.617 58.2812 115.191 58.0156 114.891C57.75 114.586 57.3906 114.434 56.9375 114.434ZM65.9844 120H64.9004V117.293H61.9883V120H60.8984V113.66H61.9883V116.408H64.9004V113.66H65.9844V120ZM71.832 113.66H72.916V120H71.832V115.377L68.9082 120H67.8242V113.66H68.9082V118.289L71.832 113.66ZM79.502 113.66V120H78.4121V117.533H76.7773L75.2832 120H74.1113L75.7051 117.369C75.2988 117.221 74.9863 116.992 74.7676 116.684C74.5527 116.371 74.4453 116.008 74.4453 115.594C74.4453 115.016 74.6621 114.551 75.0957 114.199C75.5293 113.844 76.1094 113.664 76.8359 113.66H79.502ZM75.5352 115.605C75.5352 115.914 75.6406 116.164 75.8516 116.355C76.0625 116.543 76.3418 116.639 76.6895 116.643H78.4121V114.539H76.8535C76.4512 114.539 76.1309 114.639 75.8926 114.838C75.6543 115.033 75.5352 115.289 75.5352 115.605Z" fill="#484848"/>
<g filter="url(#filter0_d)">
<circle cx="44" cy="43" r="40" fill="white"/>
</g>
<path d="M44 35C39.5817 35 36 38.5817 36 43C36 47.4183 39.5817 51 44 51C48.4183 51 52 47.4183 52 43C52 38.5817 48.4183 35 44 35ZM44 33C49.5228 33 54 37.4772 54 43C54 48.5228 49.5228 53 44 53C38.4772 53 34 48.5228 34 43C34 37.4772 38.4772 33 44 33ZM41 39C39.8954 39 39 39.8954 39 41C39 42.1046 39.8954 43 41 43C42.1046 43 43 42.1046 43 41C43 39.8954 42.1046 39 41 39ZM47 39C45.8954 39 45 39.8954 45 41C45 42.1046 45.8954 43 47 43C48.1046 43 49 42.1046 49 41C49 39.8954 48.1046 39 47 39ZM38.6056 45.9472C39.5673 47.8707 41.1201 49 44 49C46.8799 49 48.4327 47.8707 49.3944 45.9472C49.6414 45.4532 49.4412 44.8526 48.9472 44.6056C48.4532 44.3586 47.8526 44.5588 47.6056 45.0528C46.9602 46.3435 46.0576 47 44 47C41.9424 47 41.0398 46.3435 40.3944 45.0528C40.1474 44.5588 39.5468 44.3586 39.0528 44.6056C38.5588 44.8526 38.3586 45.4532 38.6056 45.9472Z" fill="#999999"/>
<defs>
<filter id="filter0_d" x="0" y="0" width="88" height="88" filterUnits="userSpaceOnUse" color-interpolation-filters="sRGB">
<feFlood flood-opacity="0" result="BackgroundImageFix"/>
<feColorMatrix in="SourceAlpha" type="matrix" values="0 0 0 0 0 0 0 0 0 0 0 0 0 0 0 0 0 0 127 0" result="hardAlpha"/>
<feOffset dy="1"/>
<feGaussianBlur stdDeviation="2"/>
<feColorMatrix type="matrix" values="0 0 0 0 0 0 0 0 0 0 0 0 0 0 0 0 0 0 0.15 0"/>
<feBlend mode="normal" in2="BackgroundImageFix" result="effect1_dropShadow"/>
<feBlend mode="normal" in="SourceGraphic" in2="effect1_dropShadow" result="shape"/>
</filter>
</defs>
</svg>
