<svg width="88" height="125" viewBox="0 0 88 125" fill="none" xmlns="http://www.w3.org/2000/svg">
<path d="M12.2129 101.293C12.1074 102.195 11.7734 102.893 11.2109 103.385C10.6523 103.873 9.9082 104.117 8.97852 104.117C7.9707 104.117 7.16211 103.756 6.55273 103.033C5.94727 102.311 5.64453 101.344 5.64453 100.133V99.3125C5.64453 98.5195 5.78516 97.8223 6.06641 97.2207C6.35156 96.6191 6.75391 96.1582 7.27344 95.8379C7.79297 95.5137 8.39453 95.3516 9.07812 95.3516C9.98438 95.3516 10.7109 95.6055 11.2578 96.1133C11.8047 96.6172 12.123 97.3164 12.2129 98.2109H11.082C10.9844 97.5312 10.7715 97.0391 10.4434 96.7344C10.1191 96.4297 9.66406 96.2773 9.07812 96.2773C8.35938 96.2773 7.79492 96.543 7.38477 97.0742C6.97852 97.6055 6.77539 98.3613 6.77539 99.3418V100.168C6.77539 101.094 6.96875 101.83 7.35547 102.377C7.74219 102.924 8.2832 103.197 8.97852 103.197C9.60352 103.197 10.082 103.057 10.4141 102.775C10.75 102.49 10.9727 101.996 11.082 101.293H12.2129ZM18.2949 98.5391H16.168V104H15.084V98.5391H12.998V97.6602H18.2949V98.5391ZM24.7051 100.9C24.7051 101.865 24.4844 102.643 24.043 103.232C23.6016 103.822 23.0039 104.117 22.25 104.117C21.4805 104.117 20.875 103.873 20.4336 103.385V106.438H19.3496V97.6602H20.3398L20.3926 98.3633C20.834 97.8164 21.4473 97.543 22.2324 97.543C22.9941 97.543 23.5957 97.8301 24.0371 98.4043C24.4824 98.9785 24.7051 99.7773 24.7051 100.801V100.9ZM23.6211 100.777C23.6211 100.062 23.4688 99.498 23.1641 99.084C22.8594 98.6699 22.4414 98.4629 21.9102 98.4629C21.2539 98.4629 20.7617 98.7539 20.4336 99.3359V102.365C20.7578 102.943 21.2539 103.232 21.9219 103.232C22.4414 103.232 22.8535 103.027 23.1582 102.617C23.4668 102.203 23.6211 101.59 23.6211 100.777ZM25.8008 100.771C25.8008 100.15 25.9219 99.5918 26.1641 99.0957C26.4102 98.5996 26.75 98.2168 27.1836 97.9473C27.6211 97.6777 28.1191 97.543 28.6777 97.543C29.541 97.543 30.2383 97.8418 30.7695 98.4395C31.3047 99.0371 31.5723 99.832 31.5723 100.824V100.9C31.5723 101.518 31.4531 102.072 31.2148 102.564C30.9805 103.053 30.6426 103.434 30.2012 103.707C29.7637 103.98 29.2598 104.117 28.6895 104.117C27.8301 104.117 27.1328 103.818 26.5977 103.221C26.0664 102.623 25.8008 101.832 25.8008 100.848V100.771ZM26.8906 100.9C26.8906 101.604 27.0527 102.168 27.377 102.594C27.7051 103.02 28.1426 103.232 28.6895 103.232C29.2402 103.232 29.6777 103.018 30.002 102.588C30.3262 102.154 30.4883 101.549 30.4883 100.771C30.4883 100.076 30.3223 99.5137 29.9902 99.084C29.6621 98.6504 29.2246 98.4336 28.6777 98.4336C28.1426 98.4336 27.7109 98.6465 27.3828 99.0723C27.0547 99.498 26.8906 100.107 26.8906 100.9ZM37.0332 97.6602H38.1172V104H37.0332V99.377L34.1094 104H33.0254V97.6602H34.1094V102.289L37.0332 97.6602ZM44.5684 98.5391H42.4414V104H41.3574V98.5391H39.2715V97.6602H44.5684V98.5391ZM47.7852 104.117C46.9258 104.117 46.2266 103.836 45.6875 103.273C45.1484 102.707 44.8789 101.951 44.8789 101.006V100.807C44.8789 100.178 44.998 99.6172 45.2363 99.125C45.4785 98.6289 45.8145 98.2422 46.2441 97.9648C46.6777 97.6836 47.1465 97.543 47.6504 97.543C48.4746 97.543 49.1152 97.8145 49.5723 98.3574C50.0293 98.9004 50.2578 99.6777 50.2578 100.689V101.141H45.9629C45.9785 101.766 46.1602 102.271 46.5078 102.658C46.8594 103.041 47.3047 103.232 47.8438 103.232C48.2266 103.232 48.5508 103.154 48.8164 102.998C49.082 102.842 49.3145 102.635 49.5137 102.377L50.1758 102.893C49.6445 103.709 48.8477 104.117 47.7852 104.117ZM47.6504 98.4336C47.2129 98.4336 46.8457 98.5938 46.5488 98.9141C46.252 99.2305 46.0684 99.6758 45.998 100.25H49.1738V100.168C49.1426 99.6172 48.9941 99.1914 48.7285 98.8906C48.4629 98.5859 48.1035 98.4336 47.6504 98.4336ZM56.7148 97.6602V104H55.625V98.5566H53.4688L53.3398 100.93C53.2695 102.02 53.0859 102.799 52.7891 103.268C52.4961 103.736 52.0293 103.98 51.3887 104H50.9551V103.045L51.2656 103.021C51.6172 102.982 51.8691 102.779 52.0215 102.412C52.1738 102.045 52.2715 101.365 52.3145 100.373L52.4316 97.6602H56.7148ZM59.6387 99.8457H61.2852C62.0039 99.8535 62.5723 100.041 62.9902 100.408C63.4082 100.775 63.6172 101.273 63.6172 101.902C63.6172 102.535 63.4023 103.043 62.9727 103.426C62.543 103.809 61.9648 104 61.2383 104H58.5547V97.6602H59.6387V99.8457ZM59.6387 100.73V103.115H61.25C61.6562 103.115 61.9707 103.012 62.1934 102.805C62.416 102.594 62.5273 102.307 62.5273 101.943C62.5273 101.592 62.418 101.305 62.1992 101.082C61.9844 100.855 61.6816 100.738 61.291 100.73H59.6387ZM67.5137 103.232C67.9004 103.232 68.2383 103.115 68.5273 102.881C68.8164 102.646 68.9766 102.354 69.0078 102.002H70.0332C70.0137 102.365 69.8887 102.711 69.6582 103.039C69.4277 103.367 69.1191 103.629 68.7324 103.824C68.3496 104.02 67.9434 104.117 67.5137 104.117C66.6504 104.117 65.9629 103.83 65.4512 103.256C64.9434 102.678 64.6895 101.889 64.6895 100.889V100.707C64.6895 100.09 64.8027 99.541 65.0293 99.0605C65.2559 98.5801 65.5801 98.207 66.002 97.9414C66.4277 97.6758 66.9297 97.543 67.5078 97.543C68.2188 97.543 68.8086 97.7559 69.2773 98.1816C69.75 98.6074 70.002 99.1602 70.0332 99.8398H69.0078C68.9766 99.4297 68.8203 99.0938 68.5391 98.832C68.2617 98.5664 67.918 98.4336 67.5078 98.4336C66.957 98.4336 66.5293 98.6328 66.2246 99.0312C65.9238 99.4258 65.7734 99.998 65.7734 100.748V100.953C65.7734 101.684 65.9238 102.246 66.2246 102.641C66.5254 103.035 66.9551 103.232 67.5137 103.232ZM75.9629 98.5391H73.8359V104H72.752V98.5391H70.666V97.6602H75.9629V98.5391ZM77.1172 104V97.6602H79.5898C80.4336 97.6602 81.0801 97.8086 81.5293 98.1055C81.9824 98.3984 82.209 98.8301 82.209 99.4004C82.209 99.6934 82.1211 99.959 81.9453 100.197C81.7695 100.432 81.5098 100.611 81.166 100.736C81.5488 100.826 81.8555 101.002 82.0859 101.264C82.3203 101.525 82.4375 101.838 82.4375 102.201C82.4375 102.783 82.2227 103.229 81.793 103.537C81.3672 103.846 80.7637 104 79.9824 104H77.1172ZM78.2012 101.217V103.127H79.9941C80.4473 103.127 80.7852 103.043 81.0078 102.875C81.2344 102.707 81.3477 102.471 81.3477 102.166C81.3477 101.533 80.8828 101.217 79.9531 101.217H78.2012ZM78.2012 100.35H79.6016C80.6172 100.35 81.125 100.053 81.125 99.459C81.125 98.8652 80.6445 98.5586 79.6836 98.5391H78.2012V100.35ZM41.1113 116.771C41.1113 116.15 41.2324 115.592 41.4746 115.096C41.7207 114.6 42.0605 114.217 42.4941 113.947C42.9316 113.678 43.4297 113.543 43.9883 113.543C44.8516 113.543 45.5488 113.842 46.0801 114.439C46.6152 115.037 46.8828 115.832 46.8828 116.824V116.9C46.8828 117.518 46.7637 118.072 46.5254 118.564C46.291 119.053 45.9531 119.434 45.5117 119.707C45.0742 119.98 44.5703 120.117 44 120.117C43.1406 120.117 42.4434 119.818 41.9082 119.221C41.377 118.623 41.1113 117.832 41.1113 116.848V116.771ZM42.2012 116.9C42.2012 117.604 42.3633 118.168 42.6875 118.594C43.0156 119.02 43.4531 119.232 44 119.232C44.5508 119.232 44.9883 119.018 45.3125 118.588C45.6367 118.154 45.7988 117.549 45.7988 116.771C45.7988 116.076 45.6328 115.514 45.3008 115.084C44.9727 114.65 44.5352 114.434 43.9883 114.434C43.4531 114.434 43.0215 114.646 42.6934 115.072C42.3652 115.498 42.2012 116.107 42.2012 116.9Z" fill="#484848"/>
<g filter="url(#filter0_d)">
<circle cx="44" cy="43" r="40" fill="white"/>
</g>
<path fill-rule="evenodd" clip-rule="evenodd" d="M46 32C46.5523 32 47 32.4477 47 33V34H48C48.7403 34 49.3866 34.4022 49.7324 35H50.2676C50.6134 34.4022 51.2597 34 52 34C53.1046 34 54 34.8954 54 36C54 37.1046 53.1046 38 52 38C51.2597 38 50.6134 37.5978 50.2676 37H50V39C50 40.1046 49.1046 41 48 41V47.9023L50.4782 51H53C53.5523 51 54 51.4477 54 52C54 52.5523 53.5523 53 53 53L35 53C34.4477 53 34 52.5523 34 52C34 51.4477 34.4477 51 35 51H41.5218L44 47.9023V41C42.8954 41 42 40.1046 42 39V37L38 37V43C39.1046 43 40 43.8954 40 45V47C40 48.1046 39.1046 49 38 49H36C34.8954 49 34 48.1046 34 47V45C34 43.8954 34.8954 43 36 43V37H35C34.4477 37 34 36.5523 34 36C34 35.4477 34.4477 35 35 35L42.2676 35C42.6134 34.4022 43.2597 34 44 34H45V33C45 32.4477 45.4477 32 46 32ZM38 45H36V47H38V45ZM44 39V36L48 36V39H44ZM46 48.5977L47.9218 51H44.0782L46 48.5977Z" fill="#999999"/>
<defs>
<filter id="filter0_d" x="0" y="0" width="88" height="88" filterUnits="userSpaceOnUse" color-interpolation-filters="sRGB">
<feFlood flood-opacity="0" result="BackgroundImageFix"/>
<feColorMatrix in="SourceAlpha" type="matrix" values="0 0 0 0 0 0 0 0 0 0 0 0 0 0 0 0 0 0 127 0" result="hardAlpha"/>
<feOffset dy="1"/>
<feGaussianBlur stdDeviation="2"/>
<feColorMatrix type="matrix" values="0 0 0 0 0 0 0 0 0 0 0 0 0 0 0 0 0 0 0.15 0"/>
<feBlend mode="normal" in2="BackgroundImageFix" result="effect1_dropShadow"/>
<feBlend mode="normal" in="SourceGraphic" in2="effect1_dropShadow" result="shape"/>
</filter>
</defs>
</svg>
