<svg width="88" height="125" viewBox="0 0 88 125" fill="none" xmlns="http://www.w3.org/2000/svg">
<path d="M23.9375 95.4688H25.0625V104H23.9375V97.4258L19.7363 104H18.6055V95.4688H19.7363V102.043L23.9375 95.4688ZM32.123 104H31.0391V101.293H28.127V104H27.0371V97.6602H28.127V100.408H31.0391V97.6602H32.123V104ZM38.5801 98.5391H36.4531V104H35.3691V98.5391H33.2832V97.6602H38.5801V98.5391ZM41.7969 104.117C40.9375 104.117 40.2383 103.836 39.6992 103.273C39.1602 102.707 38.8906 101.951 38.8906 101.006V100.807C38.8906 100.178 39.0098 99.6172 39.248 99.125C39.4902 98.6289 39.8262 98.2422 40.2559 97.9648C40.6895 97.6836 41.1582 97.543 41.6621 97.543C42.4863 97.543 43.127 97.8145 43.584 98.3574C44.041 98.9004 44.2695 99.6777 44.2695 100.689V101.141H39.9746C39.9902 101.766 40.1719 102.271 40.5195 102.658C40.8711 103.041 41.3164 103.232 41.8555 103.232C42.2383 103.232 42.5625 103.154 42.8281 102.998C43.0938 102.842 43.3262 102.635 43.5254 102.377L44.1875 102.893C43.6562 103.709 42.8594 104.117 41.7969 104.117ZM41.6621 98.4336C41.2246 98.4336 40.8574 98.5938 40.5605 98.9141C40.2637 99.2305 40.0801 99.6758 40.0098 100.25H43.1855V100.168C43.1543 99.6172 43.0059 99.1914 42.7402 98.8906C42.4746 98.5859 42.1152 98.4336 41.6621 98.4336ZM50.8848 100.9C50.8848 101.865 50.6641 102.643 50.2227 103.232C49.7812 103.822 49.1836 104.117 48.4297 104.117C47.6602 104.117 47.0547 103.873 46.6133 103.385V106.438H45.5293V97.6602H46.5195L46.5723 98.3633C47.0137 97.8164 47.627 97.543 48.4121 97.543C49.1738 97.543 49.7754 97.8301 50.2168 98.4043C50.6621 98.9785 50.8848 99.7773 50.8848 100.801V100.9ZM49.8008 100.777C49.8008 100.062 49.6484 99.498 49.3438 99.084C49.0391 98.6699 48.6211 98.4629 48.0898 98.4629C47.4336 98.4629 46.9414 98.7539 46.6133 99.3359V102.365C46.9375 102.943 47.4336 103.232 48.1016 103.232C48.6211 103.232 49.0332 103.027 49.3379 102.617C49.6465 102.203 49.8008 101.59 49.8008 100.777ZM57.4473 104H56.3633V101.293H53.4512V104H52.3613V97.6602H53.4512V100.408H56.3633V97.6602H57.4473V104ZM61.8242 104.117C60.9648 104.117 60.2656 103.836 59.7266 103.273C59.1875 102.707 58.918 101.951 58.918 101.006V100.807C58.918 100.178 59.0371 99.6172 59.2754 99.125C59.5176 98.6289 59.8535 98.2422 60.2832 97.9648C60.7168 97.6836 61.1855 97.543 61.6895 97.543C62.5137 97.543 63.1543 97.8145 63.6113 98.3574C64.0684 98.9004 64.2969 99.6777 64.2969 100.689V101.141H60.002C60.0176 101.766 60.1992 102.271 60.5469 102.658C60.8984 103.041 61.3438 103.232 61.8828 103.232C62.2656 103.232 62.5898 103.154 62.8555 102.998C63.1211 102.842 63.3535 102.635 63.5527 102.377L64.2148 102.893C63.6836 103.709 62.8867 104.117 61.8242 104.117ZM61.6895 98.4336C61.252 98.4336 60.8848 98.5938 60.5879 98.9141C60.291 99.2305 60.1074 99.6758 60.0371 100.25H63.2129V100.168C63.1816 99.6172 63.0332 99.1914 62.7676 98.8906C62.502 98.5859 62.1426 98.4336 61.6895 98.4336ZM70.1973 98.5391H68.0703V104H66.9863V98.5391H64.9004V97.6602H70.1973V98.5391ZM38.8438 113.66H39.9277V120H38.8438V115.377L35.9199 120H34.8359V113.66H35.9199V118.289L38.8438 113.66ZM46.0215 120H44.8965V111.469H46.0215V120ZM53.8027 112.395H51.0605V120H49.9414V112.395H47.2051V111.469H53.8027V112.395Z" fill="#484848"/>
<g filter="url(#filter0_d)">
<circle cx="44" cy="43" r="40" fill="white"/>
</g>
<path fill-rule="evenodd" clip-rule="evenodd" d="M36 34C34.8954 34 34 34.8954 34 36V50C34 51.1046 34.8954 52 36 52H44C44.5523 52 45 51.5523 45 51C45 50.4477 44.5523 50 44 50H36V40H52V44C52 44.5523 52.4477 45 53 45C53.5523 45 54 44.5523 54 44V36C54 34.8954 53.1046 34 52 34H36ZM52 38V36H36V38H52Z" fill="#999999"/>
<path d="M47 42V52L49 50L51 54.5L53.5 53.5L51.5 49H54L47 42Z" fill="#999999"/>
<defs>
<filter id="filter0_d" x="0" y="0" width="88" height="88" filterUnits="userSpaceOnUse" color-interpolation-filters="sRGB">
<feFlood flood-opacity="0" result="BackgroundImageFix"/>
<feColorMatrix in="SourceAlpha" type="matrix" values="0 0 0 0 0 0 0 0 0 0 0 0 0 0 0 0 0 0 127 0" result="hardAlpha"/>
<feOffset dy="1"/>
<feGaussianBlur stdDeviation="2"/>
<feColorMatrix type="matrix" values="0 0 0 0 0 0 0 0 0 0 0 0 0 0 0 0 0 0 0.15 0"/>
<feBlend mode="normal" in2="BackgroundImageFix" result="effect1_dropShadow"/>
<feBlend mode="normal" in="SourceGraphic" in2="effect1_dropShadow" result="shape"/>
</filter>
</defs>
</svg>
