<svg width="88" height="125" viewBox="0 0 88 125" fill="none" xmlns="http://www.w3.org/2000/svg">
<path d="M15.6934 100.66V104H14.5684V95.4688H17.7148C18.6484 95.4688 19.3789 95.707 19.9062 96.1836C20.4375 96.6602 20.7031 97.291 20.7031 98.0762C20.7031 98.9043 20.4434 99.543 19.9238 99.9922C19.4082 100.438 18.668 100.66 17.7031 100.66H15.6934ZM15.6934 99.7402H17.7148C18.3164 99.7402 18.7773 99.5996 19.0977 99.3184C19.418 99.0332 19.5781 98.623 19.5781 98.0879C19.5781 97.5801 19.418 97.1738 19.0977 96.8691C18.7773 96.5645 18.3379 96.4062 17.7793 96.3945H15.6934V99.7402ZM21.5996 100.771C21.5996 100.15 21.7207 99.5918 21.9629 99.0957C22.209 98.5996 22.5488 98.2168 22.9824 97.9473C23.4199 97.6777 23.918 97.543 24.4766 97.543C25.3398 97.543 26.0371 97.8418 26.5684 98.4395C27.1035 99.0371 27.3711 99.832 27.3711 100.824V100.9C27.3711 101.518 27.252 102.072 27.0137 102.564C26.7793 103.053 26.4414 103.434 26 103.707C25.5625 103.98 25.0586 104.117 24.4883 104.117C23.6289 104.117 22.9316 103.818 22.3965 103.221C21.8652 102.623 21.5996 101.832 21.5996 100.848V100.771ZM22.6895 100.9C22.6895 101.604 22.8516 102.168 23.1758 102.594C23.5039 103.02 23.9414 103.232 24.4883 103.232C25.0391 103.232 25.4766 103.018 25.8008 102.588C26.125 102.154 26.2871 101.549 26.2871 100.771C26.2871 100.076 26.1211 99.5137 25.7891 99.084C25.4609 98.6504 25.0234 98.4336 24.4766 98.4336C23.9414 98.4336 23.5098 98.6465 23.1816 99.0723C22.8535 99.498 22.6895 100.107 22.6895 100.9ZM32.2168 99.3945C32.2168 99.0977 32.1035 98.8633 31.877 98.6914C31.6504 98.5156 31.3398 98.4277 30.9453 98.4277C30.5625 98.4277 30.2422 98.5273 29.9844 98.7266C29.7305 98.9258 29.6035 99.1602 29.6035 99.4297H28.5254C28.5254 98.8789 28.7559 98.4277 29.2168 98.0762C29.6777 97.7246 30.2539 97.5488 30.9453 97.5488C31.6875 97.5488 32.2656 97.709 32.6797 98.0293C33.0938 98.3457 33.3008 98.7988 33.3008 99.3887C33.3008 99.6738 33.2148 99.9355 33.043 100.174C32.8711 100.412 32.627 100.602 32.3105 100.742C33.0488 100.992 33.418 101.484 33.418 102.219C33.418 102.801 33.1934 103.262 32.7441 103.602C32.2949 103.941 31.6953 104.111 30.9453 104.111C30.2148 104.111 29.6113 103.934 29.1348 103.578C28.6621 103.219 28.4258 102.734 28.4258 102.125H29.5039C29.5039 102.434 29.6406 102.699 29.9141 102.922C30.1914 103.141 30.5352 103.25 30.9453 103.25C31.3594 103.25 31.6934 103.154 31.9473 102.963C32.2012 102.771 32.3281 102.523 32.3281 102.219C32.3281 101.863 32.2207 101.609 32.0059 101.457C31.7949 101.301 31.4648 101.223 31.0156 101.223H29.9316V100.309H31.1094C31.8477 100.289 32.2168 99.9844 32.2168 99.3945ZM40.0039 104H38.9199V101.293H36.0078V104H34.918V97.6602H36.0078V100.408H38.9199V97.6602H40.0039V104ZM45.8516 97.6602H46.9355V104H45.8516V99.377L42.9277 104H41.8438V97.6602H42.9277V102.289L45.8516 97.6602ZM53.4629 104H52.373V101.703C51.8965 101.828 51.4082 101.891 50.9082 101.891C50.1152 101.891 49.5098 101.688 49.0918 101.281C48.6777 100.875 48.4668 100.297 48.459 99.5469V97.6543H49.543V99.582C49.5625 100.527 50.0176 101 50.9082 101C51.4082 101 51.8965 100.938 52.373 100.812V97.6602H53.4629V104ZM60.3828 104H59.2988V101.293H56.3867V104H55.2969V97.6602H56.3867V100.408H59.2988V97.6602H60.3828V104ZM66.043 104C65.9805 103.875 65.9297 103.652 65.8906 103.332C65.3867 103.855 64.7852 104.117 64.0859 104.117C63.4609 104.117 62.9473 103.941 62.5449 103.59C62.1465 103.234 61.9473 102.785 61.9473 102.242C61.9473 101.582 62.1973 101.07 62.6973 100.707C63.2012 100.34 63.9082 100.156 64.8184 100.156H65.873V99.6582C65.873 99.2793 65.7598 98.9785 65.5332 98.7559C65.3066 98.5293 64.9727 98.416 64.5312 98.416C64.1445 98.416 63.8203 98.5137 63.5586 98.709C63.2969 98.9043 63.166 99.1406 63.166 99.418H62.0762C62.0762 99.1016 62.1875 98.7969 62.4102 98.5039C62.6367 98.207 62.9414 97.9727 63.3242 97.8008C63.7109 97.6289 64.1348 97.543 64.5957 97.543C65.3262 97.543 65.8984 97.7266 66.3125 98.0938C66.7266 98.457 66.9414 98.959 66.957 99.5996V102.518C66.957 103.1 67.0312 103.562 67.1797 103.906V104H66.043ZM64.2441 103.174C64.584 103.174 64.9062 103.086 65.2109 102.91C65.5156 102.734 65.7363 102.506 65.873 102.225V100.924H65.0234C63.6953 100.924 63.0312 101.312 63.0312 102.09C63.0312 102.43 63.1445 102.695 63.3711 102.887C63.5977 103.078 63.8887 103.174 64.2441 103.174ZM73.502 97.6602V104H72.4121V101.533H70.7773L69.2832 104H68.1113L69.7051 101.369C69.2988 101.221 68.9863 100.992 68.7676 100.684C68.5527 100.371 68.4453 100.008 68.4453 99.5938C68.4453 99.0156 68.6621 98.5508 69.0957 98.1992C69.5293 97.8438 70.1094 97.6641 70.8359 97.6602H73.502ZM69.5352 99.6055C69.5352 99.9141 69.6406 100.164 69.8516 100.355C70.0625 100.543 70.3418 100.639 70.6895 100.643H72.4121V98.5391H70.8535C70.4512 98.5391 70.1309 98.6387 69.8926 98.8379C69.6543 99.0332 69.5352 99.2891 69.5352 99.6055ZM23.9082 114.539H21.7812V120H20.6973V114.539H18.6113V113.66H23.9082V114.539ZM24.4297 116.771C24.4297 116.15 24.5508 115.592 24.793 115.096C25.0391 114.6 25.3789 114.217 25.8125 113.947C26.25 113.678 26.748 113.543 27.3066 113.543C28.1699 113.543 28.8672 113.842 29.3984 114.439C29.9336 115.037 30.2012 115.832 30.2012 116.824V116.9C30.2012 117.518 30.082 118.072 29.8438 118.564C29.6094 119.053 29.2715 119.434 28.8301 119.707C28.3926 119.98 27.8887 120.117 27.3184 120.117C26.459 120.117 25.7617 119.818 25.2266 119.221C24.6953 118.623 24.4297 117.832 24.4297 116.848V116.771ZM25.5195 116.9C25.5195 117.604 25.6816 118.168 26.0059 118.594C26.334 119.02 26.7715 119.232 27.3184 119.232C27.8691 119.232 28.3066 119.018 28.6309 118.588C28.9551 118.154 29.1172 117.549 29.1172 116.771C29.1172 116.076 28.9512 115.514 28.6191 115.084C28.291 114.65 27.8535 114.434 27.3066 114.434C26.7715 114.434 26.3398 114.646 26.0117 115.072C25.6836 115.498 25.5195 116.107 25.5195 116.9ZM36.916 116.9C36.916 117.865 36.6953 118.643 36.2539 119.232C35.8125 119.822 35.2148 120.117 34.4609 120.117C33.6914 120.117 33.0859 119.873 32.6445 119.385V122.438H31.5605V113.66H32.5508L32.6035 114.363C33.0449 113.816 33.6582 113.543 34.4434 113.543C35.2051 113.543 35.8066 113.83 36.248 114.404C36.6934 114.979 36.916 115.777 36.916 116.801V116.9ZM35.832 116.777C35.832 116.062 35.6797 115.498 35.375 115.084C35.0703 114.67 34.6523 114.463 34.1211 114.463C33.4648 114.463 32.9727 114.754 32.6445 115.336V118.365C32.9688 118.943 33.4648 119.232 34.1328 119.232C34.6523 119.232 35.0645 119.027 35.3691 118.617C35.6777 118.203 35.832 117.59 35.832 116.777ZM42.3945 114.557H39.4707V120H38.3809V113.66H42.3945V114.557ZM42.9336 116.771C42.9336 116.15 43.0547 115.592 43.2969 115.096C43.543 114.6 43.8828 114.217 44.3164 113.947C44.7539 113.678 45.252 113.543 45.8105 113.543C46.6738 113.543 47.3711 113.842 47.9023 114.439C48.4375 115.037 48.7051 115.832 48.7051 116.824V116.9C48.7051 117.518 48.5859 118.072 48.3477 118.564C48.1133 119.053 47.7754 119.434 47.334 119.707C46.8965 119.98 46.3926 120.117 45.8223 120.117C44.9629 120.117 44.2656 119.818 43.7305 119.221C43.1992 118.623 42.9336 117.832 42.9336 116.848V116.771ZM44.0234 116.9C44.0234 117.604 44.1855 118.168 44.5098 118.594C44.8379 119.02 45.2754 119.232 45.8223 119.232C46.373 119.232 46.8105 119.018 47.1348 118.588C47.459 118.154 47.6211 117.549 47.6211 116.771C47.6211 116.076 47.4551 115.514 47.123 115.084C46.7949 114.65 46.3574 114.434 45.8105 114.434C45.2754 114.434 44.8438 114.646 44.5156 115.072C44.1875 115.498 44.0234 116.107 44.0234 116.9ZM50.1641 120V113.66H52.6367C53.4805 113.66 54.127 113.809 54.5762 114.105C55.0293 114.398 55.2559 114.83 55.2559 115.4C55.2559 115.693 55.168 115.959 54.9922 116.197C54.8164 116.432 54.5566 116.611 54.2129 116.736C54.5957 116.826 54.9023 117.002 55.1328 117.264C55.3672 117.525 55.4844 117.838 55.4844 118.201C55.4844 118.783 55.2695 119.229 54.8398 119.537C54.4141 119.846 53.8105 120 53.0293 120H50.1641ZM51.248 117.217V119.127H53.041C53.4941 119.127 53.832 119.043 54.0547 118.875C54.2812 118.707 54.3945 118.471 54.3945 118.166C54.3945 117.533 53.9297 117.217 53 117.217H51.248ZM51.248 116.35H52.6484C53.6641 116.35 54.1719 116.053 54.1719 115.459C54.1719 114.865 53.6914 114.559 52.7305 114.539H51.248V116.35ZM62.1172 113.66V120H61.0273V114.557H58.8711L58.7422 116.93C58.6719 118.02 58.4883 118.799 58.1914 119.268C57.8984 119.736 57.4316 119.98 56.791 120H56.3574V119.045L56.668 119.021C57.0195 118.982 57.2715 118.779 57.4238 118.412C57.5762 118.045 57.6738 117.365 57.7168 116.373L57.834 113.66H62.1172ZM68.7031 113.66V120H67.6133V117.533H65.9785L64.4844 120H63.3125L64.9062 117.369C64.5 117.221 64.1875 116.992 63.9688 116.684C63.7539 116.371 63.6465 116.008 63.6465 115.594C63.6465 115.016 63.8633 114.551 64.2969 114.199C64.7305 113.844 65.3105 113.664 66.0371 113.66H68.7031ZM64.7363 115.605C64.7363 115.914 64.8418 116.164 65.0527 116.355C65.2637 116.543 65.543 116.639 65.8906 116.643H67.6133V114.539H66.0547C65.6523 114.539 65.332 114.639 65.0938 114.838C64.8555 115.033 64.7363 115.289 64.7363 115.605Z" fill="#484848"/>
<g filter="url(#filter0_d)">
<circle cx="44" cy="43" r="40" fill="white"/>
</g>
<path d="M39 49C37.8945 49 37 49.8945 37 51C37 52.1055 37.8945 53 39 53C40.1055 53 41 52.1055 41 51C41 49.8945 40.1055 49 39 49ZM50 49C51.1055 49 52 49.8945 52 51C52 52.1055 51.1055 53 50 53C48.8945 53 48 52.1055 48 51C48 49.8945 48.8945 49 50 49ZM51 46C51.5523 46 52 46.4477 52 47C52 47.5523 51.5523 48 51 48H39C37.8954 48 37 47.1046 37 46C37 45.5673 37.1404 45.1462 37.4 44.8L39.2 42.4C39.5314 41.9582 40.1582 41.8686 40.6 42.2C41.0418 42.5314 41.1314 43.1582 40.8 43.6L39 46H51ZM36.2792 35H35C34.4477 35 34 34.5523 34 34C34 33.4477 34.4477 33 35 33H37C37.4304 33 37.8126 33.2754 37.9487 33.6838L38.3874 35H51.4835C51.7543 35 52.0223 35.055 52.2713 35.1617C53.2866 35.5968 53.7569 36.7726 53.3218 37.7878L51.1789 42.7878C50.8637 43.5232 50.1407 44 49.3406 44H40C39.5696 44 39.1874 43.7246 39.0513 43.3162L36.2792 35ZM39.0541 37L40.7208 42H49.3406L51.4835 37H39.0541Z" fill="#999999"/>
<defs>
<filter id="filter0_d" x="0" y="0" width="88" height="88" filterUnits="userSpaceOnUse" color-interpolation-filters="sRGB">
<feFlood flood-opacity="0" result="BackgroundImageFix"/>
<feColorMatrix in="SourceAlpha" type="matrix" values="0 0 0 0 0 0 0 0 0 0 0 0 0 0 0 0 0 0 127 0" result="hardAlpha"/>
<feOffset dy="1"/>
<feGaussianBlur stdDeviation="2"/>
<feColorMatrix type="matrix" values="0 0 0 0 0 0 0 0 0 0 0 0 0 0 0 0 0 0 0.15 0"/>
<feBlend mode="normal" in2="BackgroundImageFix" result="effect1_dropShadow"/>
<feBlend mode="normal" in="SourceGraphic" in2="effect1_dropShadow" result="shape"/>
</filter>
</defs>
</svg>
