<svg width="88" height="108" viewBox="0 0 88 108" fill="none" xmlns="http://www.w3.org/2000/svg">
<path d="M38.6621 106.092H37.543V104H31.4199V106.098H30.2949L30.2891 103.08H30.9863C31.3535 102.666 31.6445 102.111 31.8594 101.416C32.0781 100.717 32.2148 99.9512 32.2695 99.1191L32.457 95.4688H37.5605V103.08H38.6738L38.6621 106.092ZM32.2695 103.08H36.4297V96.3945H33.541L33.418 98.9023C33.3672 99.8828 33.2363 100.719 33.0254 101.41C32.8184 102.102 32.5664 102.658 32.2695 103.08ZM42.4707 104.117C41.6113 104.117 40.9121 103.836 40.373 103.273C39.834 102.707 39.5645 101.951 39.5645 101.006V100.807C39.5645 100.178 39.6836 99.6172 39.9219 99.125C40.1641 98.6289 40.5 98.2422 40.9297 97.9648C41.3633 97.6836 41.832 97.543 42.3359 97.543C43.1602 97.543 43.8008 97.8145 44.2578 98.3574C44.7148 98.9004 44.9434 99.6777 44.9434 100.689V101.141H40.6484C40.6641 101.766 40.8457 102.271 41.1934 102.658C41.5449 103.041 41.9902 103.232 42.5293 103.232C42.9121 103.232 43.2363 103.154 43.502 102.998C43.7676 102.842 44 102.635 44.1992 102.377L44.8613 102.893C44.3301 103.709 43.5332 104.117 42.4707 104.117ZM42.3359 98.4336C41.8984 98.4336 41.5312 98.5938 41.2344 98.9141C40.9375 99.2305 40.7539 99.6758 40.6836 100.25H43.8594V100.168C43.8281 99.6172 43.6797 99.1914 43.4141 98.8906C43.1484 98.5859 42.7891 98.4336 42.3359 98.4336ZM50.8438 98.5391H48.7168V104H47.6328V98.5391H45.5469V97.6602H50.8438V98.5391ZM56 97.6602H57.084V104H56V99.377L53.0762 104H51.9922V97.6602H53.0762V102.289L56 97.6602Z" fill="#484848"/>
<g filter="url(#filter0_d)">
<circle cx="44" cy="43" r="40" fill="white"/>
</g>
<path fill-rule="evenodd" clip-rule="evenodd" d="M47.1892 42.562L44.4319 39.8232C44.4319 39.8232 45.0042 39.2965 45.3267 39.0542C45.5464 38.8891 45.5681 38.3965 45.5925 37.8426L45.5928 37.839C45.604 37.5811 45.6162 37.3101 45.6492 37.0528C46.0015 35.5638 47.1599 34.4073 48.6355 34.0717C50.6333 33.545 53.8379 35.9994 52.7974 38.8119C52.145 40.5883 50.4204 41.7222 48.5522 41.6034C47.928 41.6034 47.1892 42.562 47.1892 42.562ZM41.0505 42.3407C41.2273 41.9089 40.8943 41.3506 40.4263 40.7396C39.958 40.1287 38.6677 38.2642 39.3857 37.1897C40.1035 36.1153 40.551 36.4523 40.8113 36.8105C41.0713 37.1686 43.4331 40.3288 44.7131 41.6034C45.1858 42.074 46.0979 42.8248 47.062 43.6179L47.0637 43.6193C48.7097 44.9738 50.5059 46.4519 50.519 46.8704C50.5398 47.534 49.1768 48.1133 48.3547 47.8184C47.9714 47.6808 47.303 47.2295 46.6619 46.7965C45.928 46.301 45.23 45.8296 45.0356 45.8802C44.9092 45.9131 44.6746 46.147 44.3894 46.4311C43.8543 46.9647 43.1411 47.6756 42.6321 47.5656C41.8516 47.397 39.6665 45.3956 39.6458 44.4054C39.6335 43.818 40.0239 43.4642 40.4065 43.1174C40.669 42.8795 40.9277 42.645 41.0505 42.3407ZM36 47.5C36 49.433 37.5669 51 39.5 51C40.9268 51 42.1543 50.1462 42.6992 48.9216C42.8154 48.6603 43.0034 48.4308 43.2627 48.3099L43.5774 48.1632C44.2405 47.8541 44.9846 48.3469 44.7788 49.0489C44.1101 51.3323 41.9998 53 39.5 53C36.4624 53 34 50.5376 34 47.5C34 45.0002 35.6677 42.89 37.9512 42.2211C38.6531 42.0155 39.1458 42.7596 38.8367 43.4225L38.6899 43.7373C38.5691 43.9966 38.3396 44.1844 38.0784 44.3008C36.8538 44.8458 36 46.0732 36 47.5Z" fill="#999999"/>
<defs>
<filter id="filter0_d" x="0" y="0" width="88" height="88" filterUnits="userSpaceOnUse" color-interpolation-filters="sRGB">
<feFlood flood-opacity="0" result="BackgroundImageFix"/>
<feColorMatrix in="SourceAlpha" type="matrix" values="0 0 0 0 0 0 0 0 0 0 0 0 0 0 0 0 0 0 127 0" result="hardAlpha"/>
<feOffset dy="1"/>
<feGaussianBlur stdDeviation="2"/>
<feColorMatrix type="matrix" values="0 0 0 0 0 0 0 0 0 0 0 0 0 0 0 0 0 0 0.15 0"/>
<feBlend mode="normal" in2="BackgroundImageFix" result="effect1_dropShadow"/>
<feBlend mode="normal" in="SourceGraphic" in2="effect1_dropShadow" result="shape"/>
</filter>
</defs>
</svg>
