<svg width="88" height="108" viewBox="0 0 88 108" fill="none" xmlns="http://www.w3.org/2000/svg">
<path d="M17.1934 95.4688L19.9824 102.43L22.7715 95.4688H24.2305V104H23.1055V100.678L23.2109 97.0918L20.4102 104H19.5488L16.7539 97.1094L16.8652 100.678V104H15.7402V95.4688H17.1934ZM28.6777 104.117C27.8184 104.117 27.1191 103.836 26.5801 103.273C26.041 102.707 25.7715 101.951 25.7715 101.006V100.807C25.7715 100.178 25.8906 99.6172 26.1289 99.125C26.3711 98.6289 26.707 98.2422 27.1367 97.9648C27.5703 97.6836 28.0391 97.543 28.543 97.543C29.3672 97.543 30.0078 97.8145 30.4648 98.3574C30.9219 98.9004 31.1504 99.6777 31.1504 100.689V101.141H26.8555C26.8711 101.766 27.0527 102.271 27.4004 102.658C27.752 103.041 28.1973 103.232 28.7363 103.232C29.1191 103.232 29.4434 103.154 29.709 102.998C29.9746 102.842 30.207 102.635 30.4062 102.377L31.0684 102.893C30.5371 103.709 29.7402 104.117 28.6777 104.117ZM28.543 98.4336C28.1055 98.4336 27.7383 98.5938 27.4414 98.9141C27.1445 99.2305 26.9609 99.6758 26.8906 100.25H30.0664V100.168C30.0352 99.6172 29.8867 99.1914 29.6211 98.8906C29.3555 98.5859 28.9961 98.4336 28.543 98.4336ZM32.3574 103.115L32.7324 102.652C33.1543 102.105 33.3945 101.285 33.4531 100.191L33.5527 97.6602H37.6367V103.115H38.4512V105.863H37.3672V104H32.9434V105.863H31.8594L31.8652 103.115H32.3574ZM33.6406 103.115H36.5527V98.6621H34.6016L34.5371 100.174C34.4707 101.436 34.1719 102.416 33.6406 103.115ZM43.7539 97.6602H44.8379V104H43.7539V99.377L40.8301 104H39.7461V97.6602H40.8301V102.289L43.7539 97.6602ZM46.6719 97.6602H47.7617V103.115H50.6797V97.6602H51.7637V103.115H52.5195L52.4141 105.881H51.4414V104H46.6719V97.6602ZM57.793 97.6602H58.877V104H57.793V99.377L54.8691 104H53.7852V97.6602H54.8691V102.289L57.793 97.6602ZM65.7969 104H64.7129V101.293H61.8008V104H60.7109V97.6602H61.8008V100.408H64.7129V97.6602H65.7969V104ZM71.457 104C71.3945 103.875 71.3438 103.652 71.3047 103.332C70.8008 103.855 70.1992 104.117 69.5 104.117C68.875 104.117 68.3613 103.941 67.959 103.59C67.5605 103.234 67.3613 102.785 67.3613 102.242C67.3613 101.582 67.6113 101.07 68.1113 100.707C68.6152 100.34 69.3223 100.156 70.2324 100.156H71.2871V99.6582C71.2871 99.2793 71.1738 98.9785 70.9473 98.7559C70.7207 98.5293 70.3867 98.416 69.9453 98.416C69.5586 98.416 69.2344 98.5137 68.9727 98.709C68.7109 98.9043 68.5801 99.1406 68.5801 99.418H67.4902C67.4902 99.1016 67.6016 98.7969 67.8242 98.5039C68.0508 98.207 68.3555 97.9727 68.7383 97.8008C69.125 97.6289 69.5488 97.543 70.0098 97.543C70.7402 97.543 71.3125 97.7266 71.7266 98.0938C72.1406 98.457 72.3555 98.959 72.3711 99.5996V102.518C72.3711 103.1 72.4453 103.562 72.5938 103.906V104H71.457ZM69.6582 103.174C69.998 103.174 70.3203 103.086 70.625 102.91C70.9297 102.734 71.1504 102.506 71.2871 102.225V100.924H70.4375C69.1094 100.924 68.4453 101.312 68.4453 102.09C68.4453 102.43 68.5586 102.695 68.7852 102.887C69.0117 103.078 69.3027 103.174 69.6582 103.174Z" fill="#484848"/>
<g filter="url(#filter0_d)">
<circle cx="44" cy="43" r="40" fill="white"/>
</g>
<path d="M43.9998 35.4117C45.1914 33.9445 47.0646 33 49 33C52.3895 33 55 35.6329 55 39.0625C55 40.1593 54.7283 41.2159 54.1939 42.2818C53.4853 43.6954 52.3573 45.0906 50.4739 47.0076C49.8311 47.6619 45.9618 51.4282 44.7138 52.7003C44.3218 53.0999 43.6782 53.0999 43.2862 52.7003C42.0381 51.4282 38.1688 47.6618 37.5261 47.0076C35.6427 45.0906 34.5147 43.6954 33.8061 42.2818C33.2718 41.2159 33 40.1593 33 39.0625C33 35.6329 35.6105 33 39 33C40.9341 33 42.808 33.9448 43.9998 35.4117ZM49.0472 45.606C50.7957 43.8263 51.8136 42.5673 52.406 41.3855C52.8063 40.587 53 39.8338 53 39.0625C53 36.7337 51.2811 35 49 35C47.2501 35 45.5332 36.1638 44.9342 37.7319C44.6066 38.5894 43.3935 38.5894 43.0659 37.7319C42.467 36.1645 40.7486 35 39 35C36.7189 35 35 36.7337 35 39.0625C35 39.8338 35.1937 40.587 35.594 41.3855C36.1864 42.5673 37.2043 43.8263 38.9528 45.606C39.4826 46.1453 42.3721 48.9614 44 50.5826C45.6279 48.9614 48.5173 46.1454 49.0472 45.606Z" fill="#999999"/>
<path fill-rule="evenodd" clip-rule="evenodd" d="M48 38C48.5523 38 49 38.4477 49 39V40H50C50.5523 40 51 40.4477 51 41C51 41.5523 50.5523 42 50 42H49V43C49 43.5523 48.5523 44 48 44C47.4477 44 47 43.5523 47 43V42H46C45.4477 42 45 41.5523 45 41C45 40.4477 45.4477 40 46 40H47V39C47 38.4477 47.4477 38 48 38Z" fill="#999999"/>
<defs>
<filter id="filter0_d" x="0" y="0" width="88" height="88" filterUnits="userSpaceOnUse" color-interpolation-filters="sRGB">
<feFlood flood-opacity="0" result="BackgroundImageFix"/>
<feColorMatrix in="SourceAlpha" type="matrix" values="0 0 0 0 0 0 0 0 0 0 0 0 0 0 0 0 0 0 127 0" result="hardAlpha"/>
<feOffset dy="1"/>
<feGaussianBlur stdDeviation="2"/>
<feColorMatrix type="matrix" values="0 0 0 0 0 0 0 0 0 0 0 0 0 0 0 0 0 0 0.15 0"/>
<feBlend mode="normal" in2="BackgroundImageFix" result="effect1_dropShadow"/>
<feBlend mode="normal" in="SourceGraphic" in2="effect1_dropShadow" result="shape"/>
</filter>
</defs>
</svg>
