<svg width="163" height="49" viewBox="0 0 163 49" fill="none" xmlns="http://www.w3.org/2000/svg">
<g filter="url(#filter0_d)">
<rect x="4" y="3" width="155" height="41" rx="20" fill="white"/>
<path d="M23.2256 19.127H18.4268V22.1074H20.9014C21.9404 22.1211 22.7516 22.3877 23.335 22.9072C23.9183 23.4268 24.21 24.1331 24.21 25.0264C24.21 25.9242 23.916 26.6396 23.3281 27.1729C22.7402 27.7061 21.9382 27.9818 20.9219 28H17.1074V18.0469H23.2256V19.127ZM18.4268 23.1875V26.9268H20.8262C21.4779 26.9268 21.9837 26.7536 22.3438 26.4072C22.7083 26.0609 22.8906 25.596 22.8906 25.0127C22.8906 24.4521 22.7152 24.0101 22.3643 23.6865C22.0179 23.363 21.5234 23.1966 20.8809 23.1875H18.4268ZM25.4541 24.2334C25.4541 23.5088 25.5954 22.8571 25.8779 22.2783C26.165 21.6995 26.5615 21.2529 27.0674 20.9385C27.5778 20.624 28.1589 20.4668 28.8105 20.4668C29.8177 20.4668 30.6312 20.8154 31.251 21.5127C31.8753 22.21 32.1875 23.1374 32.1875 24.2949V24.3838C32.1875 25.1038 32.0485 25.751 31.7705 26.3252C31.4971 26.8949 31.1029 27.3392 30.5879 27.6582C30.0775 27.9772 29.4896 28.1367 28.8242 28.1367C27.8216 28.1367 27.0081 27.7881 26.3838 27.0908C25.764 26.3936 25.4541 25.4707 25.4541 24.3223V24.2334ZM26.7256 24.3838C26.7256 25.2041 26.9147 25.8626 27.293 26.3594C27.6758 26.8561 28.1862 27.1045 28.8242 27.1045C29.4668 27.1045 29.9772 26.8538 30.3555 26.3525C30.7337 25.8467 30.9229 25.1403 30.9229 24.2334C30.9229 23.4222 30.7292 22.766 30.3418 22.2646C29.959 21.7588 29.4486 21.5059 28.8105 21.5059C28.1862 21.5059 27.6826 21.7542 27.2998 22.251C26.917 22.7477 26.7256 23.4587 26.7256 24.3838ZM39.7275 20.6035V28H38.4561V21.6494H35.9404L35.79 24.418C35.708 25.6895 35.4938 26.5986 35.1475 27.1455C34.8057 27.6924 34.2611 27.9772 33.5137 28H33.0078V26.8857L33.3701 26.8584C33.7803 26.8128 34.0742 26.5758 34.252 26.1475C34.4297 25.7191 34.5436 24.9261 34.5938 23.7686L34.7305 20.6035H39.7275ZM44.8271 28.1367C43.8245 28.1367 43.0088 27.8086 42.3799 27.1523C41.751 26.4915 41.4365 25.6097 41.4365 24.5068V24.2744C41.4365 23.5407 41.5755 22.8867 41.8535 22.3125C42.1361 21.7337 42.528 21.2826 43.0293 20.959C43.5352 20.6309 44.082 20.4668 44.6699 20.4668C45.6315 20.4668 46.3789 20.7835 46.9121 21.417C47.4453 22.0505 47.7119 22.9574 47.7119 24.1377V24.6641H42.7012C42.7194 25.3932 42.9313 25.9834 43.3369 26.4346C43.7471 26.8812 44.2666 27.1045 44.8955 27.1045C45.3421 27.1045 45.7204 27.0133 46.0303 26.8311C46.3402 26.6488 46.6113 26.4072 46.8438 26.1064L47.6162 26.708C46.9964 27.6605 46.0667 28.1367 44.8271 28.1367ZM44.6699 21.5059C44.1595 21.5059 43.7311 21.6927 43.3848 22.0664C43.0384 22.4355 42.8242 22.9551 42.7422 23.625H46.4473V23.5293C46.4108 22.8867 46.2376 22.39 45.9277 22.0391C45.6178 21.6836 45.1986 21.5059 44.6699 21.5059ZM52.251 28.1367C51.2484 28.1367 50.4326 27.8086 49.8037 27.1523C49.1748 26.4915 48.8604 25.6097 48.8604 24.5068V24.2744C48.8604 23.5407 48.9993 22.8867 49.2773 22.3125C49.5599 21.7337 49.9518 21.2826 50.4531 20.959C50.959 20.6309 51.5059 20.4668 52.0938 20.4668C53.0553 20.4668 53.8027 20.7835 54.3359 21.417C54.8691 22.0505 55.1357 22.9574 55.1357 24.1377V24.6641H50.125C50.1432 25.3932 50.3551 25.9834 50.7607 26.4346C51.1709 26.8812 51.6904 27.1045 52.3193 27.1045C52.766 27.1045 53.1442 27.0133 53.4541 26.8311C53.764 26.6488 54.0352 26.4072 54.2676 26.1064L55.04 26.708C54.4202 27.6605 53.4906 28.1367 52.251 28.1367ZM52.0938 21.5059C51.5833 21.5059 51.1549 21.6927 50.8086 22.0664C50.4622 22.4355 50.248 22.9551 50.166 23.625H53.8711V23.5293C53.8346 22.8867 53.6615 22.39 53.3516 22.0391C53.0417 21.6836 52.6224 21.5059 52.0938 21.5059ZM60.5293 23.0098L61.0352 18.0469H66.1348V19.2158H62.1084L61.8076 21.9297C62.2952 21.6426 62.849 21.499 63.4688 21.499C64.3757 21.499 65.0957 21.7998 65.6289 22.4014C66.1621 22.9984 66.4287 23.8073 66.4287 24.8281C66.4287 25.8535 66.1507 26.6624 65.5947 27.2549C65.0433 27.8428 64.2708 28.1367 63.2773 28.1367C62.3978 28.1367 61.68 27.8929 61.124 27.4053C60.568 26.9176 60.2513 26.2432 60.1738 25.3818H61.3701C61.4476 25.9515 61.6504 26.3822 61.9785 26.6738C62.3066 26.9609 62.7396 27.1045 63.2773 27.1045C63.8652 27.1045 64.3255 26.904 64.6582 26.5029C64.9954 26.1019 65.1641 25.5482 65.1641 24.8418C65.1641 24.1764 64.9818 23.6432 64.6172 23.2422C64.2572 22.8366 63.7764 22.6338 63.1748 22.6338C62.6234 22.6338 62.1904 22.7546 61.876 22.9961L61.541 23.2695L60.5293 23.0098ZM77.5234 23.7549C77.5234 25.236 77.2705 26.3366 76.7646 27.0566C76.2588 27.7767 75.4681 28.1367 74.3926 28.1367C73.3307 28.1367 72.5446 27.7858 72.0342 27.084C71.5238 26.3776 71.2594 25.3249 71.2412 23.9258V22.2373C71.2412 20.7744 71.4941 19.6875 72 18.9766C72.5059 18.2656 73.2988 17.9102 74.3789 17.9102C75.4499 17.9102 76.2383 18.2542 76.7441 18.9424C77.25 19.626 77.5098 20.6833 77.5234 22.1143V23.7549ZM76.2588 22.0254C76.2588 20.9544 76.1084 20.1751 75.8076 19.6875C75.5068 19.1953 75.0306 18.9492 74.3789 18.9492C73.7318 18.9492 73.2601 19.193 72.9639 19.6807C72.6676 20.1683 72.515 20.918 72.5059 21.9297V23.9531C72.5059 25.0286 72.6608 25.8239 72.9707 26.3389C73.2852 26.8493 73.7591 27.1045 74.3926 27.1045C75.0169 27.1045 75.4795 26.863 75.7803 26.3799C76.0856 25.8968 76.2451 25.1357 76.2588 24.0967V22.0254ZM85.3848 23.7549C85.3848 25.236 85.1318 26.3366 84.626 27.0566C84.1201 27.7767 83.3294 28.1367 82.2539 28.1367C81.1921 28.1367 80.4059 27.7858 79.8955 27.084C79.3851 26.3776 79.1208 25.3249 79.1025 23.9258V22.2373C79.1025 20.7744 79.3555 19.6875 79.8613 18.9766C80.3672 18.2656 81.1602 17.9102 82.2402 17.9102C83.3112 17.9102 84.0996 18.2542 84.6055 18.9424C85.1113 19.626 85.3711 20.6833 85.3848 22.1143V23.7549ZM84.1201 22.0254C84.1201 20.9544 83.9697 20.1751 83.6689 19.6875C83.3682 19.1953 82.8919 18.9492 82.2402 18.9492C81.5931 18.9492 81.1214 19.193 80.8252 19.6807C80.529 20.1683 80.3763 20.918 80.3672 21.9297V23.9531C80.3672 25.0286 80.5221 25.8239 80.832 26.3389C81.1465 26.8493 81.6204 27.1045 82.2539 27.1045C82.8783 27.1045 83.3408 26.863 83.6416 26.3799C83.9469 25.8968 84.1064 25.1357 84.1201 24.0967V22.0254ZM93.2461 23.7549C93.2461 25.236 92.9932 26.3366 92.4873 27.0566C91.9814 27.7767 91.1908 28.1367 90.1152 28.1367C89.0534 28.1367 88.2673 27.7858 87.7568 27.084C87.2464 26.3776 86.9821 25.3249 86.9639 23.9258V22.2373C86.9639 20.7744 87.2168 19.6875 87.7227 18.9766C88.2285 18.2656 89.0215 17.9102 90.1016 17.9102C91.1725 17.9102 91.9609 18.2542 92.4668 18.9424C92.9727 19.626 93.2324 20.6833 93.2461 22.1143V23.7549ZM91.9814 22.0254C91.9814 20.9544 91.8311 20.1751 91.5303 19.6875C91.2295 19.1953 90.7533 18.9492 90.1016 18.9492C89.4544 18.9492 88.9827 19.193 88.6865 19.6807C88.3903 20.1683 88.2376 20.918 88.2285 21.9297V23.9531C88.2285 25.0286 88.3835 25.8239 88.6934 26.3389C89.0078 26.8493 89.4818 27.1045 90.1152 27.1045C90.7396 27.1045 91.2021 26.863 91.5029 26.3799C91.8083 25.8968 91.9678 25.1357 91.9814 24.0967V22.0254ZM104.58 23.7549C104.58 25.236 104.327 26.3366 103.821 27.0566C103.315 27.7767 102.525 28.1367 101.449 28.1367C100.387 28.1367 99.6012 27.7858 99.0908 27.084C98.5804 26.3776 98.3161 25.3249 98.2979 23.9258V22.2373C98.2979 20.7744 98.5508 19.6875 99.0566 18.9766C99.5625 18.2656 100.355 17.9102 101.436 17.9102C102.507 17.9102 103.295 18.2542 103.801 18.9424C104.307 19.626 104.566 20.6833 104.58 22.1143V23.7549ZM103.315 22.0254C103.315 20.9544 103.165 20.1751 102.864 19.6875C102.563 19.1953 102.087 18.9492 101.436 18.9492C100.788 18.9492 100.317 19.193 100.021 19.6807C99.7243 20.1683 99.5716 20.918 99.5625 21.9297V23.9531C99.5625 25.0286 99.7174 25.8239 100.027 26.3389C100.342 26.8493 100.816 27.1045 101.449 27.1045C102.074 27.1045 102.536 26.863 102.837 26.3799C103.142 25.8968 103.302 25.1357 103.315 24.0967V22.0254ZM112.441 23.7549C112.441 25.236 112.188 26.3366 111.683 27.0566C111.177 27.7767 110.386 28.1367 109.311 28.1367C108.249 28.1367 107.463 27.7858 106.952 27.084C106.442 26.3776 106.177 25.3249 106.159 23.9258V22.2373C106.159 20.7744 106.412 19.6875 106.918 18.9766C107.424 18.2656 108.217 17.9102 109.297 17.9102C110.368 17.9102 111.156 18.2542 111.662 18.9424C112.168 19.626 112.428 20.6833 112.441 22.1143V23.7549ZM111.177 22.0254C111.177 20.9544 111.026 20.1751 110.726 19.6875C110.425 19.1953 109.949 18.9492 109.297 18.9492C108.65 18.9492 108.178 19.193 107.882 19.6807C107.586 20.1683 107.433 20.918 107.424 21.9297V23.9531C107.424 25.0286 107.579 25.8239 107.889 26.3389C108.203 26.8493 108.677 27.1045 109.311 27.1045C109.935 27.1045 110.397 26.863 110.698 26.3799C111.004 25.8968 111.163 25.1357 111.177 24.0967V22.0254ZM120.303 23.7549C120.303 25.236 120.05 26.3366 119.544 27.0566C119.038 27.7767 118.247 28.1367 117.172 28.1367C116.11 28.1367 115.324 27.7858 114.813 27.084C114.303 26.3776 114.039 25.3249 114.021 23.9258V22.2373C114.021 20.7744 114.273 19.6875 114.779 18.9766C115.285 18.2656 116.078 17.9102 117.158 17.9102C118.229 17.9102 119.018 18.2542 119.523 18.9424C120.029 19.626 120.289 20.6833 120.303 22.1143V23.7549ZM119.038 22.0254C119.038 20.9544 118.888 20.1751 118.587 19.6875C118.286 19.1953 117.81 18.9492 117.158 18.9492C116.511 18.9492 116.039 19.193 115.743 19.6807C115.447 20.1683 115.294 20.918 115.285 21.9297V23.9531C115.285 25.0286 115.44 25.8239 115.75 26.3389C116.064 26.8493 116.538 27.1045 117.172 27.1045C117.796 27.1045 118.259 26.863 118.56 26.3799C118.865 25.8968 119.024 25.1357 119.038 24.0967V22.0254ZM131.773 24.3838C131.773 25.5094 131.516 26.4163 131.001 27.1045C130.486 27.7926 129.789 28.1367 128.909 28.1367C128.011 28.1367 127.305 27.8519 126.79 27.2822V30.8438H125.525V20.6035H126.681L126.742 21.4238C127.257 20.7858 127.973 20.4668 128.889 20.4668C129.777 20.4668 130.479 20.8018 130.994 21.4717C131.514 22.1416 131.773 23.0736 131.773 24.2676V24.3838ZM130.509 24.2402C130.509 23.4062 130.331 22.7477 129.976 22.2646C129.62 21.7816 129.132 21.54 128.513 21.54C127.747 21.54 127.173 21.8796 126.79 22.5586V26.0928C127.168 26.7673 127.747 27.1045 128.526 27.1045C129.132 27.1045 129.613 26.8652 129.969 26.3867C130.329 25.9036 130.509 25.1882 130.509 24.2402ZM135.725 26.1475L137.447 20.6035H138.801L135.827 29.1416C135.367 30.3721 134.635 30.9873 133.633 30.9873L133.394 30.9668L132.922 30.8779V29.8525L133.264 29.8799C133.692 29.8799 134.025 29.7933 134.262 29.6201C134.503 29.4469 134.701 29.1302 134.856 28.6699L135.137 27.918L132.498 20.6035H133.879L135.725 26.1475ZM143.183 21.0273C144.112 21.0273 144.855 21.3395 145.411 21.9639C145.972 22.5837 146.252 23.4017 146.252 24.418V24.5342C146.252 25.2314 146.118 25.8558 145.849 26.4072C145.58 26.9541 145.192 27.3802 144.687 27.6855C144.185 27.9863 143.606 28.1367 142.95 28.1367C141.957 28.1367 141.157 27.8063 140.551 27.1455C139.945 26.4801 139.642 25.5892 139.642 24.4727V23.8574C139.642 22.3034 139.929 21.0684 140.503 20.1523C141.082 19.2363 141.934 18.6781 143.06 18.4775C143.698 18.3636 144.128 18.2246 144.352 18.0605C144.575 17.8965 144.687 17.6709 144.687 17.3838H145.726C145.726 17.9535 145.596 18.3978 145.336 18.7168C145.081 19.0358 144.671 19.2614 144.105 19.3936L143.162 19.6055C142.41 19.7832 141.845 20.084 141.467 20.5078C141.093 20.9271 140.849 21.4876 140.735 22.1895C141.405 21.4147 142.221 21.0273 143.183 21.0273ZM142.937 22.0664C142.317 22.0664 141.825 22.276 141.46 22.6953C141.095 23.11 140.913 23.6865 140.913 24.4248V24.5342C140.913 25.3271 141.095 25.9561 141.46 26.4209C141.829 26.8812 142.326 27.1113 142.95 27.1113C143.579 27.1113 144.076 26.8789 144.44 26.4141C144.805 25.9492 144.987 25.2702 144.987 24.377C144.987 23.6797 144.803 23.1214 144.434 22.7021C144.069 22.2783 143.57 22.0664 142.937 22.0664Z" fill="#484848"/>
</g>
<defs>
<filter id="filter0_d" x="0" y="0" width="163" height="49" filterUnits="userSpaceOnUse" color-interpolation-filters="sRGB">
<feFlood flood-opacity="0" result="BackgroundImageFix"/>
<feColorMatrix in="SourceAlpha" type="matrix" values="0 0 0 0 0 0 0 0 0 0 0 0 0 0 0 0 0 0 127 0" result="hardAlpha"/>
<feOffset dy="1"/>
<feGaussianBlur stdDeviation="2"/>
<feColorMatrix type="matrix" values="0 0 0 0 0 0 0 0 0 0 0 0 0 0 0 0 0 0 0.15 0"/>
<feBlend mode="normal" in2="BackgroundImageFix" result="effect1_dropShadow"/>
<feBlend mode="normal" in="SourceGraphic" in2="effect1_dropShadow" result="shape"/>
</filter>
</defs>
</svg>
