<svg width="18" height="14" viewBox="0 0 18 14" fill="none" xmlns="http://www.w3.org/2000/svg">
<path fill-rule="evenodd" clip-rule="evenodd" d="M1 0C0.447754 0 0 0.447708 0 1C0 1.55229 0.447754 2 1 2H17C17.5522 2 18 1.55229 18 1C18 0.447708 17.5522 0 17 0H1ZM1 8C0.447754 8 0 7.55228 0 7C0 6.44772 0.447754 6 1 6H17C17.5522 6 18 6.44772 18 7C18 7.55228 17.5522 8 17 8H1ZM1 14C0.447754 14 0 13.5523 0 13C0 12.4477 0.447754 12 1 12H17C17.5522 12 18 12.4477 18 13C18 13.5523 17.5522 14 17 14H1Z" fill="#4F4F4F"/>
</svg>
