<svg width="88" height="125" viewBox="0 0 88 125" fill="none" xmlns="http://www.w3.org/2000/svg">
<path d="M17.041 100.42L19.0039 95.4688H20.3105L17.293 102.576C17.0898 103.029 16.9004 103.352 16.7246 103.543C16.5488 103.73 16.3418 103.875 16.1035 103.977C15.8691 104.074 15.5742 104.123 15.2188 104.123C14.9102 104.123 14.7129 104.105 14.627 104.07L14.6621 103.18L15.1953 103.203C15.6055 103.203 15.9102 103.006 16.1094 102.611L16.2559 102.307L16.4785 101.785L13.5723 95.4688H14.832L17.041 100.42ZM23.6328 103.232C24.0195 103.232 24.3574 103.115 24.6465 102.881C24.9355 102.646 25.0957 102.354 25.127 102.002H26.1523C26.1328 102.365 26.0078 102.711 25.7773 103.039C25.5469 103.367 25.2383 103.629 24.8516 103.824C24.4688 104.02 24.0625 104.117 23.6328 104.117C22.7695 104.117 22.082 103.83 21.5703 103.256C21.0625 102.678 20.8086 101.889 20.8086 100.889V100.707C20.8086 100.09 20.9219 99.541 21.1484 99.0605C21.375 98.5801 21.6992 98.207 22.1211 97.9414C22.5469 97.6758 23.0488 97.543 23.627 97.543C24.3379 97.543 24.9277 97.7559 25.3965 98.1816C25.8691 98.6074 26.1211 99.1602 26.1523 99.8398H25.127C25.0957 99.4297 24.9395 99.0938 24.6582 98.832C24.3809 98.5664 24.0371 98.4336 23.627 98.4336C23.0762 98.4336 22.6484 98.6328 22.3438 99.0312C22.043 99.4258 21.8926 99.998 21.8926 100.748V100.953C21.8926 101.684 22.043 102.246 22.3438 102.641C22.6445 103.035 23.0742 103.232 23.6328 103.232ZM32.5684 97.6602V104H31.4785V98.5566H29.3223L29.1934 100.93C29.123 102.02 28.9395 102.799 28.6426 103.268C28.3496 103.736 27.8828 103.98 27.2422 104H26.8086V103.045L27.1191 103.021C27.4707 102.982 27.7227 102.779 27.875 102.412C28.0273 102.045 28.125 101.365 28.168 100.373L28.2852 97.6602H32.5684ZM36.3828 102.412L37.8594 97.6602H39.0195L36.4707 104.979C36.0762 106.033 35.4492 106.561 34.5898 106.561L34.3848 106.543L33.9805 106.467V105.588L34.2734 105.611C34.6406 105.611 34.9258 105.537 35.1289 105.389C35.3359 105.24 35.5059 104.969 35.6387 104.574L35.8789 103.93L33.6172 97.6602H34.8008L36.3828 102.412ZM44.0879 98.5566H41.1641V104H40.0742V97.6602H44.0879V98.5566ZM49.1328 97.6602H50.2168V104H49.1328V99.377L46.209 104H45.125V97.6602H46.209V102.289L49.1328 97.6602ZM54.8809 103.115L55.2559 102.652C55.6777 102.105 55.918 101.285 55.9766 100.191L56.0762 97.6602H60.1602V103.115H60.9746V105.863H59.8906V104H55.4668V105.863H54.3828L54.3887 103.115H54.8809ZM56.1641 103.115H59.0762V98.6621H57.125L57.0605 100.174C56.9941 101.436 56.6953 102.416 56.1641 103.115ZM67.373 97.6602V104H66.2832V98.5566H64.127L63.998 100.93C63.9277 102.02 63.7441 102.799 63.4473 103.268C63.1543 103.736 62.6875 103.98 62.0469 104H61.6133V103.045L61.9238 103.021C62.2754 102.982 62.5273 102.779 62.6797 102.412C62.832 102.045 62.9297 101.365 62.9727 100.373L63.0898 97.6602H67.373ZM73.959 97.6602V104H72.8691V101.533H71.2344L69.7402 104H68.5684L70.1621 101.369C69.7559 101.221 69.4434 100.992 69.2246 100.684C69.0098 100.371 68.9023 100.008 68.9023 99.5938C68.9023 99.0156 69.1191 98.5508 69.5527 98.1992C69.9863 97.8438 70.5664 97.6641 71.293 97.6602H73.959ZM69.9922 99.6055C69.9922 99.9141 70.0977 100.164 70.3086 100.355C70.5195 100.543 70.7988 100.639 71.1465 100.643H72.8691V98.5391H71.3105C70.9082 98.5391 70.5879 98.6387 70.3496 98.8379C70.1113 99.0332 69.9922 99.2891 69.9922 99.6055ZM9.04883 114.023C9.8457 114.023 10.4824 114.291 10.959 114.826C11.4395 115.357 11.6797 116.059 11.6797 116.93V117.029C11.6797 117.627 11.5645 118.162 11.334 118.635C11.1035 119.104 10.7715 119.469 10.3379 119.73C9.9082 119.988 9.41211 120.117 8.84961 120.117C7.99805 120.117 7.3125 119.834 6.79297 119.268C6.27344 118.697 6.01367 117.934 6.01367 116.977V116.449C6.01367 115.117 6.25977 114.059 6.75195 113.273C7.24805 112.488 7.97852 112.01 8.94336 111.838C9.49023 111.74 9.85938 111.621 10.0508 111.48C10.2422 111.34 10.3379 111.146 10.3379 110.9H11.2285C11.2285 111.389 11.1172 111.77 10.8945 112.043C10.6758 112.316 10.3242 112.51 9.83984 112.623L9.03125 112.805C8.38672 112.957 7.90234 113.215 7.57812 113.578C7.25781 113.938 7.04883 114.418 6.95117 115.02C7.52539 114.355 8.22461 114.023 9.04883 114.023ZM8.83789 114.914C8.30664 114.914 7.88477 115.094 7.57227 115.453C7.25977 115.809 7.10352 116.303 7.10352 116.936V117.029C7.10352 117.709 7.25977 118.248 7.57227 118.646C7.88867 119.041 8.31445 119.238 8.84961 119.238C9.38867 119.238 9.81445 119.039 10.127 118.641C10.4395 118.242 10.5957 117.66 10.5957 116.895C10.5957 116.297 10.4375 115.818 10.1211 115.459C9.80859 115.096 9.38086 114.914 8.83789 114.914ZM16.8945 113.66H17.9785V120H16.8945V115.377L13.9707 120H12.8867V113.66H13.9707V118.289L16.8945 113.66ZM23.2051 115.395C23.2051 115.098 23.0918 114.863 22.8652 114.691C22.6387 114.516 22.3281 114.428 21.9336 114.428C21.5508 114.428 21.2305 114.527 20.9727 114.727C20.7188 114.926 20.5918 115.16 20.5918 115.43H19.5137C19.5137 114.879 19.7441 114.428 20.2051 114.076C20.666 113.725 21.2422 113.549 21.9336 113.549C22.6758 113.549 23.2539 113.709 23.668 114.029C24.082 114.346 24.2891 114.799 24.2891 115.389C24.2891 115.674 24.2031 115.936 24.0312 116.174C23.8594 116.412 23.6152 116.602 23.2988 116.742C24.0371 116.992 24.4062 117.484 24.4062 118.219C24.4062 118.801 24.1816 119.262 23.7324 119.602C23.2832 119.941 22.6836 120.111 21.9336 120.111C21.2031 120.111 20.5996 119.934 20.123 119.578C19.6504 119.219 19.4141 118.734 19.4141 118.125H20.4922C20.4922 118.434 20.6289 118.699 20.9023 118.922C21.1797 119.141 21.5234 119.25 21.9336 119.25C22.3477 119.25 22.6816 119.154 22.9355 118.963C23.1895 118.771 23.3164 118.523 23.3164 118.219C23.3164 117.863 23.209 117.609 22.9941 117.457C22.7832 117.301 22.4531 117.223 22.0039 117.223H20.9199V116.309H22.0977C22.8359 116.289 23.2051 115.984 23.2051 115.395ZM30.9922 120H29.9082V117.293H26.9961V120H25.9062V113.66H26.9961V116.408H29.9082V113.66H30.9922V120ZM35.3691 120.117C34.5098 120.117 33.8105 119.836 33.2715 119.273C32.7324 118.707 32.4629 117.951 32.4629 117.006V116.807C32.4629 116.178 32.582 115.617 32.8203 115.125C33.0625 114.629 33.3984 114.242 33.8281 113.965C34.2617 113.684 34.7305 113.543 35.2344 113.543C36.0586 113.543 36.6992 113.814 37.1562 114.357C37.6133 114.9 37.8418 115.678 37.8418 116.689V117.141H33.5469C33.5625 117.766 33.7441 118.271 34.0918 118.658C34.4434 119.041 34.8887 119.232 35.4277 119.232C35.8105 119.232 36.1348 119.154 36.4004 118.998C36.666 118.842 36.8984 118.635 37.0977 118.377L37.7598 118.893C37.2285 119.709 36.4316 120.117 35.3691 120.117ZM35.2344 114.434C34.7969 114.434 34.4297 114.594 34.1328 114.914C33.8359 115.23 33.6523 115.676 33.582 116.25H36.7578V116.168C36.7266 115.617 36.5781 115.191 36.3125 114.891C36.0469 114.586 35.6875 114.434 35.2344 114.434ZM41.6445 119.232C42.0312 119.232 42.3691 119.115 42.6582 118.881C42.9473 118.646 43.1074 118.354 43.1387 118.002H44.1641C44.1445 118.365 44.0195 118.711 43.7891 119.039C43.5586 119.367 43.25 119.629 42.8633 119.824C42.4805 120.02 42.0742 120.117 41.6445 120.117C40.7812 120.117 40.0938 119.83 39.582 119.256C39.0742 118.678 38.8203 117.889 38.8203 116.889V116.707C38.8203 116.09 38.9336 115.541 39.1602 115.061C39.3867 114.58 39.7109 114.207 40.1328 113.941C40.5586 113.676 41.0605 113.543 41.6387 113.543C42.3496 113.543 42.9395 113.756 43.4082 114.182C43.8809 114.607 44.1328 115.16 44.1641 115.84H43.1387C43.1074 115.43 42.9512 115.094 42.6699 114.832C42.3926 114.566 42.0488 114.434 41.6387 114.434C41.0879 114.434 40.6602 114.633 40.3555 115.031C40.0547 115.426 39.9043 115.998 39.9043 116.748V116.953C39.9043 117.684 40.0547 118.246 40.3555 118.641C40.6562 119.035 41.0859 119.232 41.6445 119.232ZM49.2969 120C49.2344 119.875 49.1836 119.652 49.1445 119.332C48.6406 119.855 48.0391 120.117 47.3398 120.117C46.7148 120.117 46.2012 119.941 45.7988 119.59C45.4004 119.234 45.2012 118.785 45.2012 118.242C45.2012 117.582 45.4512 117.07 45.9512 116.707C46.4551 116.34 47.1621 116.156 48.0723 116.156H49.127V115.658C49.127 115.279 49.0137 114.979 48.7871 114.756C48.5605 114.529 48.2266 114.416 47.7852 114.416C47.3984 114.416 47.0742 114.514 46.8125 114.709C46.5508 114.904 46.4199 115.141 46.4199 115.418H45.3301C45.3301 115.102 45.4414 114.797 45.6641 114.504C45.8906 114.207 46.1953 113.973 46.5781 113.801C46.9648 113.629 47.3887 113.543 47.8496 113.543C48.5801 113.543 49.1523 113.727 49.5664 114.094C49.9805 114.457 50.1953 114.959 50.2109 115.6V118.518C50.2109 119.1 50.2852 119.562 50.4336 119.906V120H49.2969ZM47.498 119.174C47.8379 119.174 48.1602 119.086 48.4648 118.91C48.7695 118.734 48.9902 118.506 49.127 118.225V116.924H48.2773C46.9492 116.924 46.2852 117.312 46.2852 118.09C46.2852 118.43 46.3984 118.695 46.625 118.887C46.8516 119.078 47.1426 119.174 47.498 119.174ZM54.8457 116.537C54.8457 115.654 54.9629 114.807 55.1973 113.994C55.4355 113.182 55.7891 112.443 56.2578 111.779C56.7266 111.115 57.2129 110.646 57.7168 110.373L57.9395 111.088C57.3691 111.525 56.9004 112.193 56.5332 113.092C56.1699 113.99 55.9707 114.996 55.9355 116.109L55.9297 116.607C55.9297 118.115 56.2051 119.424 56.7559 120.533C57.0879 121.197 57.4824 121.717 57.9395 122.092L57.7168 122.754C57.1973 122.465 56.7012 121.98 56.2285 121.301C55.3066 119.973 54.8457 118.385 54.8457 116.537ZM64.3555 116.9C64.3555 117.869 64.1328 118.648 63.6875 119.238C63.2422 119.824 62.6445 120.117 61.8945 120.117C61.0938 120.117 60.4746 119.834 60.0371 119.268L59.9844 120H58.9883V111H60.0723V114.357C60.5098 113.814 61.1133 113.543 61.8828 113.543C62.6523 113.543 63.2559 113.834 63.6934 114.416C64.1348 114.998 64.3555 115.795 64.3555 116.807V116.9ZM63.2715 116.777C63.2715 116.039 63.1289 115.469 62.8438 115.066C62.5586 114.664 62.1484 114.463 61.6133 114.463C60.8984 114.463 60.3848 114.795 60.0723 115.459V118.201C60.4043 118.865 60.9219 119.197 61.625 119.197C62.1445 119.197 62.5488 118.996 62.8379 118.594C63.127 118.191 63.2715 117.586 63.2715 116.777ZM71.2051 120H65.6152V119.221L68.5684 115.939C69.0059 115.443 69.3066 115.041 69.4707 114.732C69.6387 114.42 69.7227 114.098 69.7227 113.766C69.7227 113.32 69.5879 112.955 69.3184 112.67C69.0488 112.385 68.6895 112.242 68.2402 112.242C67.7012 112.242 67.2812 112.396 66.9805 112.705C66.6836 113.01 66.5352 113.436 66.5352 113.982H65.4512C65.4512 113.197 65.7031 112.562 66.207 112.078C66.7148 111.594 67.3926 111.352 68.2402 111.352C69.0332 111.352 69.6602 111.561 70.1211 111.979C70.582 112.393 70.8125 112.945 70.8125 113.637C70.8125 114.477 70.2773 115.477 69.207 116.637L66.9219 119.115H71.2051V120ZM77.832 116.9C77.832 117.869 77.6094 118.648 77.1641 119.238C76.7188 119.824 76.1211 120.117 75.3711 120.117C74.5703 120.117 73.9512 119.834 73.5137 119.268L73.4609 120H72.4648V111H73.5488V114.357C73.9863 113.814 74.5898 113.543 75.3594 113.543C76.1289 113.543 76.7324 113.834 77.1699 114.416C77.6113 114.998 77.832 115.795 77.832 116.807V116.9ZM76.748 116.777C76.748 116.039 76.6055 115.469 76.3203 115.066C76.0352 114.664 75.625 114.463 75.0898 114.463C74.375 114.463 73.8613 114.795 73.5488 115.459V118.201C73.8809 118.865 74.3984 119.197 75.1016 119.197C75.6211 119.197 76.0254 118.996 76.3145 118.594C76.6035 118.191 76.748 117.586 76.748 116.777ZM81.7051 116.596C81.7051 117.467 81.5898 118.303 81.3594 119.104C81.1328 119.9 80.7832 120.637 80.3105 121.312C79.8418 121.988 79.3496 122.469 78.834 122.754L78.6055 122.092C79.207 121.631 79.6895 120.916 80.0527 119.947C80.4199 118.975 80.6074 117.896 80.6152 116.713V116.525C80.6152 115.705 80.5293 114.943 80.3574 114.24C80.1855 113.533 79.9453 112.9 79.6367 112.342C79.332 111.783 78.9883 111.348 78.6055 111.035L78.834 110.373C79.3496 110.658 79.8398 111.135 80.3047 111.803C80.7734 112.471 81.123 113.207 81.3535 114.012C81.5879 114.816 81.7051 115.678 81.7051 116.596Z" fill="#484848"/>
<g filter="url(#filter0_d)">
<circle cx="44" cy="43" r="40" fill="white"/>
</g>
<path fill-rule="evenodd" clip-rule="evenodd" d="M45.4961 34.1362C45.8113 33.9524 46.2016 33.9548 46.5145 34.1425L51.1201 36.9059L53.6838 36.0513C53.9887 35.9497 54.3239 36.0008 54.5847 36.1888C54.8455 36.3767 55 36.6786 55 37V46C55 47.1046 54.1046 48 53 48H48.5C48.3305 48 48.1708 47.9578 48.0309 47.8834L45.7513 50.1629C44.23 51.6843 41.7777 51.7297 40.2011 50.2656L35.6073 46H34C33.7348 46 33.4804 45.8946 33.2929 45.7071C33.1054 45.5196 33 45.2652 33 45V38C33 36.8954 33.8954 36 35 36H42C42.0856 36 42.1687 36.0108 42.248 36.031L45.4961 34.1362ZM39.134 38H35V44H36C36.2524 44 36.4955 44.0955 36.6805 44.2672L41.562 48.8001C42.3503 49.5321 43.5764 49.5094 44.3371 48.7487L48.057 45.0288C48.8672 44.2185 48.8324 42.8945 47.9807 42.128L45.9675 40.3161C45.1566 40.8849 43.913 41.5 42.5 41.5C40.2294 41.5 39.2465 39.6092 39.0299 38.7425C38.9653 38.4844 39.0074 38.2193 39.134 38ZM49.8544 46H53V38.3874L51.3162 38.9487C51.0393 39.041 50.7358 39.0077 50.4855 38.8575L45.9928 36.1619L41.2979 38.9006C41.3382 38.9528 41.3823 39.0043 41.4303 39.0537C41.6756 39.3066 42.0101 39.5 42.5 39.5C43.7317 39.5 44.8921 38.6937 45.2929 38.2929C45.669 37.9168 46.2736 37.9009 46.669 38.2567L49.3186 40.6414C50.8745 42.0417 51.0674 44.372 49.8544 46Z" fill="#999999"/>
<defs>
<filter id="filter0_d" x="0" y="0" width="88" height="88" filterUnits="userSpaceOnUse" color-interpolation-filters="sRGB">
<feFlood flood-opacity="0" result="BackgroundImageFix"/>
<feColorMatrix in="SourceAlpha" type="matrix" values="0 0 0 0 0 0 0 0 0 0 0 0 0 0 0 0 0 0 127 0" result="hardAlpha"/>
<feOffset dy="1"/>
<feGaussianBlur stdDeviation="2"/>
<feColorMatrix type="matrix" values="0 0 0 0 0 0 0 0 0 0 0 0 0 0 0 0 0 0 0.15 0"/>
<feBlend mode="normal" in2="BackgroundImageFix" result="effect1_dropShadow"/>
<feBlend mode="normal" in="SourceGraphic" in2="effect1_dropShadow" result="shape"/>
</filter>
</defs>
</svg>
