<svg width="88" height="125" viewBox="0 0 88 125" fill="none" xmlns="http://www.w3.org/2000/svg">
<path d="M34.9297 104V95.4688H37.7188C38.6445 95.4688 39.3398 95.6602 39.8047 96.043C40.2734 96.4258 40.5078 96.9922 40.5078 97.7422C40.5078 98.1406 40.3945 98.4941 40.168 98.8027C39.9414 99.1074 39.6328 99.3438 39.2422 99.5117C39.7031 99.6406 40.0664 99.8867 40.332 100.25C40.6016 100.609 40.7363 101.039 40.7363 101.539C40.7363 102.305 40.4883 102.906 39.9922 103.344C39.4961 103.781 38.7949 104 37.8887 104H34.9297ZM36.0547 100.01V103.08H37.9121C38.4355 103.08 38.8477 102.945 39.1484 102.676C39.4531 102.402 39.6055 102.027 39.6055 101.551C39.6055 100.523 39.0469 100.01 37.9297 100.01H36.0547ZM36.0547 99.1074H37.7539C38.2461 99.1074 38.6387 98.9844 38.9316 98.7383C39.2285 98.4922 39.377 98.1582 39.377 97.7363C39.377 97.2676 39.2402 96.9277 38.9668 96.7168C38.6934 96.502 38.2773 96.3945 37.7188 96.3945H36.0547V99.1074ZM44.7793 103.232C45.166 103.232 45.5039 103.115 45.793 102.881C46.082 102.646 46.2422 102.354 46.2734 102.002H47.2988C47.2793 102.365 47.1543 102.711 46.9238 103.039C46.6934 103.367 46.3848 103.629 45.998 103.824C45.6152 104.02 45.209 104.117 44.7793 104.117C43.916 104.117 43.2285 103.83 42.7168 103.256C42.209 102.678 41.9551 101.889 41.9551 100.889V100.707C41.9551 100.09 42.0684 99.541 42.2949 99.0605C42.5215 98.5801 42.8457 98.207 43.2676 97.9414C43.6934 97.6758 44.1953 97.543 44.7734 97.543C45.4844 97.543 46.0742 97.7559 46.543 98.1816C47.0156 98.6074 47.2676 99.1602 47.2988 99.8398H46.2734C46.2422 99.4297 46.0859 99.0938 45.8047 98.832C45.5273 98.5664 45.1836 98.4336 44.7734 98.4336C44.2227 98.4336 43.7949 98.6328 43.4902 99.0312C43.1895 99.4258 43.0391 99.998 43.0391 100.748V100.953C43.0391 101.684 43.1895 102.246 43.4902 102.641C43.791 103.035 44.2207 103.232 44.7793 103.232ZM51.1484 104.117C50.2891 104.117 49.5898 103.836 49.0508 103.273C48.5117 102.707 48.2422 101.951 48.2422 101.006V100.807C48.2422 100.178 48.3613 99.6172 48.5996 99.125C48.8418 98.6289 49.1777 98.2422 49.6074 97.9648C50.041 97.6836 50.5098 97.543 51.0137 97.543C51.8379 97.543 52.4785 97.8145 52.9355 98.3574C53.3926 98.9004 53.6211 99.6777 53.6211 100.689V101.141H49.3262C49.3418 101.766 49.5234 102.271 49.8711 102.658C50.2227 103.041 50.668 103.232 51.207 103.232C51.5898 103.232 51.9141 103.154 52.1797 102.998C52.4453 102.842 52.6777 102.635 52.877 102.377L53.5391 102.893C53.0078 103.709 52.2109 104.117 51.1484 104.117ZM51.0137 98.4336C50.5762 98.4336 50.209 98.5938 49.9121 98.9141C49.6152 99.2305 49.4316 99.6758 49.3613 100.25H52.5371V100.168C52.5059 99.6172 52.3574 99.1914 52.0918 98.8906C51.8262 98.5859 51.4668 98.4336 51.0137 98.4336ZM14.1172 116.947C14.1172 115.889 14.3223 115.057 14.7324 114.451C15.1426 113.846 15.7051 113.543 16.4199 113.543C16.752 113.543 17.043 113.6 17.293 113.713V111H18.377V113.748C18.6504 113.611 18.9707 113.543 19.3379 113.543C20.0566 113.543 20.6211 113.846 21.0312 114.451C21.4414 115.057 21.6465 115.93 21.6465 117.07C21.6465 118.004 21.4414 118.746 21.0312 119.297C20.625 119.848 20.0645 120.123 19.3496 120.123C18.9707 120.123 18.6465 120.061 18.377 119.936V122.438H17.293V119.953C17.0352 120.066 16.7402 120.123 16.4082 120.123C15.6973 120.123 15.1367 119.848 14.7266 119.297C14.3203 118.746 14.1172 117.992 14.1172 117.035V116.947ZM20.5625 116.947C20.5625 116.15 20.4258 115.533 20.1523 115.096C19.8789 114.654 19.502 114.434 19.0215 114.434C18.7754 114.434 18.5605 114.473 18.377 114.551V119.139C18.5527 119.205 18.7715 119.238 19.0332 119.238C19.5176 119.238 19.8926 119.051 20.1582 118.676C20.4277 118.301 20.5625 117.725 20.5625 116.947ZM15.2012 117.07C15.2012 117.781 15.3281 118.32 15.582 118.688C15.8359 119.055 16.2012 119.238 16.6777 119.238C16.9043 119.238 17.1094 119.203 17.293 119.133V114.533C17.1289 114.467 16.9277 114.434 16.6895 114.434C16.2129 114.434 15.8457 114.646 15.5879 115.072C15.3301 115.498 15.2012 116.164 15.2012 117.07ZM28.4141 116.9C28.4141 117.865 28.1934 118.643 27.752 119.232C27.3105 119.822 26.7129 120.117 25.959 120.117C25.1895 120.117 24.584 119.873 24.1426 119.385V122.438H23.0586V113.66H24.0488L24.1016 114.363C24.543 113.816 25.1562 113.543 25.9414 113.543C26.7031 113.543 27.3047 113.83 27.7461 114.404C28.1914 114.979 28.4141 115.777 28.4141 116.801V116.9ZM27.3301 116.777C27.3301 116.062 27.1777 115.498 26.873 115.084C26.5684 114.67 26.1504 114.463 25.6191 114.463C24.9629 114.463 24.4707 114.754 24.1426 115.336V118.365C24.4668 118.943 24.9629 119.232 25.6309 119.232C26.1504 119.232 26.5625 119.027 26.8672 118.617C27.1758 118.203 27.3301 117.59 27.3301 116.777ZM33.7109 120C33.6484 119.875 33.5977 119.652 33.5586 119.332C33.0547 119.855 32.4531 120.117 31.7539 120.117C31.1289 120.117 30.6152 119.941 30.2129 119.59C29.8145 119.234 29.6152 118.785 29.6152 118.242C29.6152 117.582 29.8652 117.07 30.3652 116.707C30.8691 116.34 31.5762 116.156 32.4863 116.156H33.541V115.658C33.541 115.279 33.4277 114.979 33.2012 114.756C32.9746 114.529 32.6406 114.416 32.1992 114.416C31.8125 114.416 31.4883 114.514 31.2266 114.709C30.9648 114.904 30.834 115.141 30.834 115.418H29.7441C29.7441 115.102 29.8555 114.797 30.0781 114.504C30.3047 114.207 30.6094 113.973 30.9922 113.801C31.3789 113.629 31.8027 113.543 32.2637 113.543C32.9941 113.543 33.5664 113.727 33.9805 114.094C34.3945 114.457 34.6094 114.959 34.625 115.6V118.518C34.625 119.1 34.6992 119.562 34.8477 119.906V120H33.7109ZM31.9121 119.174C32.252 119.174 32.5742 119.086 32.8789 118.91C33.1836 118.734 33.4043 118.506 33.541 118.225V116.924H32.6914C31.3633 116.924 30.6992 117.312 30.6992 118.09C30.6992 118.43 30.8125 118.695 31.0391 118.887C31.2656 119.078 31.5566 119.174 31.9121 119.174ZM41.5039 120H40.4199V117.293H37.5078V120H36.418V113.66H37.5078V116.408H40.4199V113.66H41.5039V120ZM44.4336 113.66V119.115H46.7539V113.66H47.8379V119.115H50.1523V113.66H51.2422V120H43.3438V113.66H44.4336ZM57.0547 113.66H58.1387V120H57.0547V115.377L54.1309 120H53.0469V113.66H54.1309V118.289L57.0547 113.66ZM63.3652 115.395C63.3652 115.098 63.252 114.863 63.0254 114.691C62.7988 114.516 62.4883 114.428 62.0938 114.428C61.7109 114.428 61.3906 114.527 61.1328 114.727C60.8789 114.926 60.752 115.16 60.752 115.43H59.6738C59.6738 114.879 59.9043 114.428 60.3652 114.076C60.8262 113.725 61.4023 113.549 62.0938 113.549C62.8359 113.549 63.4141 113.709 63.8281 114.029C64.2422 114.346 64.4492 114.799 64.4492 115.389C64.4492 115.674 64.3633 115.936 64.1914 116.174C64.0195 116.412 63.7754 116.602 63.459 116.742C64.1973 116.992 64.5664 117.484 64.5664 118.219C64.5664 118.801 64.3418 119.262 63.8926 119.602C63.4434 119.941 62.8438 120.111 62.0938 120.111C61.3633 120.111 60.7598 119.934 60.2832 119.578C59.8105 119.219 59.5742 118.734 59.5742 118.125H60.6523C60.6523 118.434 60.7891 118.699 61.0625 118.922C61.3398 119.141 61.6836 119.25 62.0938 119.25C62.5078 119.25 62.8418 119.154 63.0957 118.963C63.3496 118.771 63.4766 118.523 63.4766 118.219C63.4766 117.863 63.3691 117.609 63.1543 117.457C62.9434 117.301 62.6133 117.223 62.1641 117.223H61.0801V116.309H62.2578C62.9961 116.289 63.3652 115.984 63.3652 115.395ZM67.1562 115.846H68.8027C69.5215 115.854 70.0898 116.041 70.5078 116.408C70.9258 116.775 71.1348 117.273 71.1348 117.902C71.1348 118.535 70.9199 119.043 70.4902 119.426C70.0605 119.809 69.4824 120 68.7559 120H66.0723V113.66H67.1562V115.846ZM73.3965 120H72.3066V113.66H73.3965V120ZM67.1562 116.73V119.115H68.7676C69.1738 119.115 69.4883 119.012 69.7109 118.805C69.9336 118.594 70.0449 118.307 70.0449 117.943C70.0449 117.592 69.9355 117.305 69.7168 117.082C69.502 116.855 69.1992 116.738 68.8086 116.73H67.1562Z" fill="#484848"/>
<g filter="url(#filter0_d)">
<circle cx="44" cy="43" r="40" fill="white"/>
</g>
<path d="M37 35C36.4477 35 36 35.4477 36 36V39C36 39.5523 36.4477 40 37 40H40C40.5523 40 41 39.5523 41 39V36C41 35.4477 40.5523 35 40 35H37ZM37 33H40C41.6569 33 43 34.3431 43 36V39C43 40.6569 41.6569 42 40 42H37C35.3431 42 34 40.6569 34 39V36C34 34.3431 35.3431 33 37 33ZM37 46C36.4477 46 36 46.4477 36 47V50C36 50.5523 36.4477 51 37 51H40C40.5523 51 41 50.5523 41 50V47C41 46.4477 40.5523 46 40 46H37ZM37 44H40C41.6569 44 43 45.3431 43 47V50C43 51.6569 41.6569 53 40 53H37C35.3431 53 34 51.6569 34 50V47C34 45.3431 35.3431 44 37 44ZM48 35C47.4477 35 47 35.4477 47 36V39C47 39.5523 47.4477 40 48 40H51C51.5523 40 52 39.5523 52 39V36C52 35.4477 51.5523 35 51 35H48ZM48 33H51C52.6569 33 54 34.3431 54 36V39C54 40.6569 52.6569 42 51 42H48C46.3431 42 45 40.6569 45 39V36C45 34.3431 46.3431 33 48 33ZM48 46C47.4477 46 47 46.4477 47 47V50C47 50.5523 47.4477 51 48 51H51C51.5523 51 52 50.5523 52 50V47C52 46.4477 51.5523 46 51 46H48ZM48 44H51C52.6569 44 54 45.3431 54 47V50C54 51.6569 52.6569 53 51 53H48C46.3431 53 45 51.6569 45 50V47C45 45.3431 46.3431 44 48 44Z" fill="#999999"/>
<defs>
<filter id="filter0_d" x="0" y="0" width="88" height="88" filterUnits="userSpaceOnUse" color-interpolation-filters="sRGB">
<feFlood flood-opacity="0" result="BackgroundImageFix"/>
<feColorMatrix in="SourceAlpha" type="matrix" values="0 0 0 0 0 0 0 0 0 0 0 0 0 0 0 0 0 0 127 0" result="hardAlpha"/>
<feOffset dy="1"/>
<feGaussianBlur stdDeviation="2"/>
<feColorMatrix type="matrix" values="0 0 0 0 0 0 0 0 0 0 0 0 0 0 0 0 0 0 0.15 0"/>
<feBlend mode="normal" in2="BackgroundImageFix" result="effect1_dropShadow"/>
<feBlend mode="normal" in="SourceGraphic" in2="effect1_dropShadow" result="shape"/>
</filter>
</defs>
</svg>
