<svg width="88" height="108" viewBox="0 0 88 108" fill="none" xmlns="http://www.w3.org/2000/svg">
<path d="M39.5176 100.057H35.8203V103.08H40.1152V104H34.6953V95.4688H40.0566V96.3945H35.8203V99.1367H39.5176V100.057ZM41.293 103.115L41.668 102.652C42.0898 102.105 42.3301 101.285 42.3887 100.191L42.4883 97.6602H46.5723V103.115H47.3867V105.863H46.3027V104H41.8789V105.863H40.7949L40.8008 103.115H41.293ZM42.5762 103.115H45.4883V98.6621H43.5371L43.4727 100.174C43.4062 101.436 43.1074 102.416 42.5762 103.115ZM52.502 104C52.4395 103.875 52.3887 103.652 52.3496 103.332C51.8457 103.855 51.2441 104.117 50.5449 104.117C49.9199 104.117 49.4062 103.941 49.0039 103.59C48.6055 103.234 48.4062 102.785 48.4062 102.242C48.4062 101.582 48.6562 101.07 49.1562 100.707C49.6602 100.34 50.3672 100.156 51.2773 100.156H52.332V99.6582C52.332 99.2793 52.2188 98.9785 51.9922 98.7559C51.7656 98.5293 51.4316 98.416 50.9902 98.416C50.6035 98.416 50.2793 98.5137 50.0176 98.709C49.7559 98.9043 49.625 99.1406 49.625 99.418H48.5352C48.5352 99.1016 48.6465 98.7969 48.8691 98.5039C49.0957 98.207 49.4004 97.9727 49.7832 97.8008C50.1699 97.6289 50.5938 97.543 51.0547 97.543C51.7852 97.543 52.3574 97.7266 52.7715 98.0938C53.1855 98.457 53.4004 98.959 53.416 99.5996V102.518C53.416 103.1 53.4902 103.562 53.6387 103.906V104H52.502ZM50.7031 103.174C51.043 103.174 51.3652 103.086 51.6699 102.91C51.9746 102.734 52.1953 102.506 52.332 102.225V100.924H51.4824C50.1543 100.924 49.4902 101.312 49.4902 102.09C49.4902 102.43 49.6035 102.695 49.8301 102.887C50.0566 103.078 50.3477 103.174 50.7031 103.174Z" fill="#484848"/>
<g filter="url(#filter0_d)">
<circle cx="44" cy="43" r="40" fill="white"/>
</g>
<path fill-rule="evenodd" clip-rule="evenodd" d="M45 33C44.4478 33 44 33.4478 44 34C44 34.5523 44.4478 35 45 35H49C49.5522 35 50 34.5523 50 34C50 33.4478 49.5522 33 49 33H45ZM50 52C52.2085 52 54 50.2108 54 48.0011V43C54 41.8428 53.5598 40.7347 53.0574 39.8058C52.5771 38.9182 51.9878 38.1019 51.5347 37.4749L51.4614 37.3734C50.8723 36.5569 49.9092 36 48.8406 36H45.2361C44.0999 36 43.061 36.6421 42.5527 37.6585L42.1057 38.5529C41.8586 39.0469 42.0588 39.6475 42.553 39.8945C43.0469 40.1415 43.6475 39.9412 43.8945 39.4471L44.3418 38.5529C44.511 38.214 44.8574 38 45.2361 38H48.8406C49.2061 38 49.5896 38.1971 49.8396 38.5437L49.896 38.6217L49.8979 38.6245L49.8992 38.6263C50.3633 39.2692 50.8831 39.9891 51.2981 40.7572C51.7356 41.5658 52 42.3272 52 43V48.0011C52 49.1052 51.105 50 50 50H48C47.4478 50 47 50.4478 47 51C47 51.5522 47.4478 52 48 52H50ZM36.9612 43.0022L36.9224 43.0007C36.7246 42.993 36.5996 43.0378 36.4404 43.2657C36.2297 43.5674 36 44.1899 36 45.1929C36 47.3845 36.259 48.7126 36.6072 49.5134C36.9133 50.217 37.2817 50.5129 37.7424 50.6971C38.2327 50.8931 38.9382 51 40 51C41.0618 51 41.7673 50.8931 42.2576 50.6971C42.7183 50.5129 43.0867 50.217 43.3928 49.5134C43.741 48.7126 44 47.3845 44 45.1929C44 44.2159 43.7656 43.6136 43.5505 43.3142C43.373 43.067 43.209 43.0022 43 43.0022C42.6174 43.0022 42.4297 43.0664 42.1084 43.1881L42.0293 43.2184C41.6182 43.376 40.9458 43.6337 40 43.6337C39.0361 43.6337 38.4067 43.36 38.0488 43.2042L37.949 43.1613L37.9311 43.1537C37.7666 43.0841 37.573 43.0022 37 43.0022H36.9612ZM37 41.0022C35.1355 40.9298 34 42.6597 34 45.1929C34 49.8011 35.0618 51.7792 37 52.5542C37.8403 52.8901 38.8452 53 40 53C41.1548 53 42.1597 52.8901 43 52.5542C44.9382 51.7792 46 49.8011 46 45.1929C46 42.6597 44.8 41.0022 43 41.0022C42.2295 41.0022 41.772 41.1763 41.3374 41.3417C40.9441 41.4912 40.5698 41.6337 40 41.6337C39.4607 41.6337 39.1636 41.5061 38.8367 41.3656C38.4363 41.1936 37.991 41.0022 37 41.0022ZM39.9817 39.1735C39.8994 38.5364 39.6611 37.6611 39 37C38.3357 36.3357 37.4602 36.1032 36.8264 36.0265C36.3494 35.9686 35.9688 36.3495 36.0264 36.8265C36.1033 37.4601 36.3357 38.3357 37 39C37.6611 39.6611 38.5366 39.8994 39.1736 39.9816C39.657 40.0438 40.044 39.6569 39.9817 39.1735Z" fill="#999999"/>
<defs>
<filter id="filter0_d" x="0" y="0" width="88" height="88" filterUnits="userSpaceOnUse" color-interpolation-filters="sRGB">
<feFlood flood-opacity="0" result="BackgroundImageFix"/>
<feColorMatrix in="SourceAlpha" type="matrix" values="0 0 0 0 0 0 0 0 0 0 0 0 0 0 0 0 0 0 127 0" result="hardAlpha"/>
<feOffset dy="1"/>
<feGaussianBlur stdDeviation="2"/>
<feColorMatrix type="matrix" values="0 0 0 0 0 0 0 0 0 0 0 0 0 0 0 0 0 0 0.15 0"/>
<feBlend mode="normal" in2="BackgroundImageFix" result="effect1_dropShadow"/>
<feBlend mode="normal" in="SourceGraphic" in2="effect1_dropShadow" result="shape"/>
</filter>
</defs>
</svg>
