<svg width="88" height="125" viewBox="0 0 88 125" fill="none" xmlns="http://www.w3.org/2000/svg">
<path d="M19.7656 100.01C19.7656 100.846 19.625 101.576 19.3438 102.201C19.0625 102.822 18.6641 103.297 18.1484 103.625C17.6328 103.953 17.0312 104.117 16.3438 104.117C15.6719 104.117 15.0762 103.953 14.5566 103.625C14.0371 103.293 13.6328 102.822 13.3438 102.213C13.0586 101.6 12.9121 100.891 12.9043 100.086V99.4707C12.9043 98.6504 13.0469 97.9258 13.332 97.2969C13.6172 96.668 14.0195 96.1875 14.5391 95.8555C15.0625 95.5195 15.6602 95.3516 16.332 95.3516C17.0156 95.3516 17.6172 95.5176 18.1367 95.8496C18.6602 96.1777 19.0625 96.6562 19.3438 97.2852C19.625 97.9102 19.7656 98.6387 19.7656 99.4707V100.01ZM18.6465 99.459C18.6465 98.4473 18.4434 97.6719 18.0371 97.1328C17.6309 96.5898 17.0625 96.3184 16.332 96.3184C15.6211 96.3184 15.0605 96.5898 14.6504 97.1328C14.2441 97.6719 14.0352 98.4219 14.0234 99.3828V100.01C14.0234 100.99 14.2285 101.762 14.6387 102.324C15.0527 102.883 15.6211 103.162 16.3438 103.162C17.0703 103.162 17.6328 102.898 18.0312 102.371C18.4297 101.84 18.6348 101.08 18.6465 100.092V99.459ZM24.0664 98.0234C24.8633 98.0234 25.5 98.291 25.9766 98.8262C26.457 99.3574 26.6973 100.059 26.6973 100.93V101.029C26.6973 101.627 26.582 102.162 26.3516 102.635C26.1211 103.104 25.7891 103.469 25.3555 103.73C24.9258 103.988 24.4297 104.117 23.8672 104.117C23.0156 104.117 22.3301 103.834 21.8105 103.268C21.291 102.697 21.0312 101.934 21.0312 100.977V100.449C21.0312 99.1172 21.2773 98.0586 21.7695 97.2734C22.2656 96.4883 22.9961 96.0098 23.9609 95.8379C24.5078 95.7402 24.877 95.6211 25.0684 95.4805C25.2598 95.3398 25.3555 95.1465 25.3555 94.9004H26.2461C26.2461 95.3887 26.1348 95.7695 25.9121 96.043C25.6934 96.3164 25.3418 96.5098 24.8574 96.623L24.0488 96.8047C23.4043 96.957 22.9199 97.2148 22.5957 97.5781C22.2754 97.9375 22.0664 98.418 21.9688 99.0195C22.543 98.3555 23.2422 98.0234 24.0664 98.0234ZM23.8555 98.9141C23.3242 98.9141 22.9023 99.0938 22.5898 99.4531C22.2773 99.8086 22.1211 100.303 22.1211 100.936V101.029C22.1211 101.709 22.2773 102.248 22.5898 102.646C22.9062 103.041 23.332 103.238 23.8672 103.238C24.4062 103.238 24.832 103.039 25.1445 102.641C25.457 102.242 25.6133 101.66 25.6133 100.895C25.6133 100.297 25.4551 99.8184 25.1387 99.459C24.8262 99.0957 24.3984 98.9141 23.8555 98.9141ZM29.9902 102.412L31.4668 97.6602H32.627L30.0781 104.979C29.6836 106.033 29.0566 106.561 28.1973 106.561L27.9922 106.543L27.5879 106.467V105.588L27.8809 105.611C28.248 105.611 28.5332 105.537 28.7363 105.389C28.9434 105.24 29.1133 104.969 29.2461 104.574L29.4863 103.93L27.2246 97.6602H28.4082L29.9902 102.412ZM38.3867 104H37.2969V101.703C36.8203 101.828 36.332 101.891 35.832 101.891C35.0391 101.891 34.4336 101.688 34.0156 101.281C33.6016 100.875 33.3906 100.297 33.3828 99.5469V97.6543H34.4668V99.582C34.4863 100.527 34.9414 101 35.832 101C36.332 101 36.8203 100.938 37.2969 100.812V97.6602H38.3867V104ZM42.7578 104.117C41.8984 104.117 41.1992 103.836 40.6602 103.273C40.1211 102.707 39.8516 101.951 39.8516 101.006V100.807C39.8516 100.178 39.9707 99.6172 40.209 99.125C40.4512 98.6289 40.7871 98.2422 41.2168 97.9648C41.6504 97.6836 42.1191 97.543 42.623 97.543C43.4473 97.543 44.0879 97.8145 44.5449 98.3574C45.002 98.9004 45.2305 99.6777 45.2305 100.689V101.141H40.9355C40.9512 101.766 41.1328 102.271 41.4805 102.658C41.832 103.041 42.2773 103.232 42.8164 103.232C43.1992 103.232 43.5234 103.154 43.7891 102.998C44.0547 102.842 44.2871 102.635 44.4863 102.377L45.1484 102.893C44.6172 103.709 43.8203 104.117 42.7578 104.117ZM42.623 98.4336C42.1855 98.4336 41.8184 98.5938 41.5215 98.9141C41.2246 99.2305 41.041 99.6758 40.9707 100.25H44.1465V100.168C44.1152 99.6172 43.9668 99.1914 43.7012 98.8906C43.4355 98.5859 43.0762 98.4336 42.623 98.4336ZM51.6699 104H50.5859V101.293H47.6738V104H46.584V97.6602H47.6738V100.408H50.5859V97.6602H51.6699V104ZM57.5176 97.6602H58.6016V104H57.5176V99.377L54.5938 104H53.5098V97.6602H54.5938V102.289L57.5176 97.6602ZM62.9727 104.117C62.1133 104.117 61.4141 103.836 60.875 103.273C60.3359 102.707 60.0664 101.951 60.0664 101.006V100.807C60.0664 100.178 60.1855 99.6172 60.4238 99.125C60.666 98.6289 61.002 98.2422 61.4316 97.9648C61.8652 97.6836 62.334 97.543 62.8379 97.543C63.6621 97.543 64.3027 97.8145 64.7598 98.3574C65.2168 98.9004 65.4453 99.6777 65.4453 100.689V101.141H61.1504C61.166 101.766 61.3477 102.271 61.6953 102.658C62.0469 103.041 62.4922 103.232 63.0312 103.232C63.4141 103.232 63.7383 103.154 64.0039 102.998C64.2695 102.842 64.502 102.635 64.7012 102.377L65.3633 102.893C64.832 103.709 64.0352 104.117 62.9727 104.117ZM62.8379 98.4336C62.4004 98.4336 62.0332 98.5938 61.7363 98.9141C61.4395 99.2305 61.2559 99.6758 61.1855 100.25H64.3613V100.168C64.3301 99.6172 64.1816 99.1914 63.916 98.8906C63.6504 98.5859 63.291 98.4336 62.8379 98.4336ZM73.7832 97.6602H74.8672V104H73.7832V99.377L70.8594 104H69.7754V97.6602H70.8594V102.289L73.7832 97.6602ZM7.94727 116.771C7.94727 116.15 8.06836 115.592 8.31055 115.096C8.55664 114.6 8.89648 114.217 9.33008 113.947C9.76758 113.678 10.2656 113.543 10.8242 113.543C11.6875 113.543 12.3848 113.842 12.916 114.439C13.4512 115.037 13.7188 115.832 13.7188 116.824V116.9C13.7188 117.518 13.5996 118.072 13.3613 118.564C13.127 119.053 12.7891 119.434 12.3477 119.707C11.9102 119.98 11.4062 120.117 10.8359 120.117C9.97656 120.117 9.2793 119.818 8.74414 119.221C8.21289 118.623 7.94727 117.832 7.94727 116.848V116.771ZM9.03711 116.9C9.03711 117.604 9.19922 118.168 9.52344 118.594C9.85156 119.02 10.2891 119.232 10.8359 119.232C11.3867 119.232 11.8242 119.018 12.1484 118.588C12.4727 118.154 12.6348 117.549 12.6348 116.771C12.6348 116.076 12.4688 115.514 12.1367 115.084C11.8086 114.65 11.3711 114.434 10.8242 114.434C10.2891 114.434 9.85742 114.646 9.5293 115.072C9.20117 115.498 9.03711 116.107 9.03711 116.9ZM17.8613 114.023C18.6582 114.023 19.2949 114.291 19.7715 114.826C20.252 115.357 20.4922 116.059 20.4922 116.93V117.029C20.4922 117.627 20.377 118.162 20.1465 118.635C19.916 119.104 19.584 119.469 19.1504 119.73C18.7207 119.988 18.2246 120.117 17.6621 120.117C16.8105 120.117 16.125 119.834 15.6055 119.268C15.0859 118.697 14.8262 117.934 14.8262 116.977V116.449C14.8262 115.117 15.0723 114.059 15.5645 113.273C16.0605 112.488 16.791 112.01 17.7559 111.838C18.3027 111.74 18.6719 111.621 18.8633 111.48C19.0547 111.34 19.1504 111.146 19.1504 110.9H20.041C20.041 111.389 19.9297 111.77 19.707 112.043C19.4883 112.316 19.1367 112.51 18.6523 112.623L17.8438 112.805C17.1992 112.957 16.7148 113.215 16.3906 113.578C16.0703 113.938 15.8613 114.418 15.7637 115.02C16.3379 114.355 17.0371 114.023 17.8613 114.023ZM17.6504 114.914C17.1191 114.914 16.6973 115.094 16.3848 115.453C16.0723 115.809 15.916 116.303 15.916 116.936V117.029C15.916 117.709 16.0723 118.248 16.3848 118.646C16.7012 119.041 17.127 119.238 17.6621 119.238C18.2012 119.238 18.627 119.039 18.9395 118.641C19.252 118.242 19.4082 117.66 19.4082 116.895C19.4082 116.297 19.25 115.818 18.9336 115.459C18.6211 115.096 18.1934 114.914 17.6504 114.914ZM26.9609 116.9C26.9609 117.865 26.7402 118.643 26.2988 119.232C25.8574 119.822 25.2598 120.117 24.5059 120.117C23.7363 120.117 23.1309 119.873 22.6895 119.385V122.438H21.6055V113.66H22.5957L22.6484 114.363C23.0898 113.816 23.7031 113.543 24.4883 113.543C25.25 113.543 25.8516 113.83 26.293 114.404C26.7383 114.979 26.9609 115.777 26.9609 116.801V116.9ZM25.877 116.777C25.877 116.062 25.7246 115.498 25.4199 115.084C25.1152 114.67 24.6973 114.463 24.166 114.463C23.5098 114.463 23.0176 114.754 22.6895 115.336V118.365C23.0137 118.943 23.5098 119.232 24.1777 119.232C24.6973 119.232 25.1094 119.027 25.4141 118.617C25.7227 118.203 25.877 117.59 25.877 116.777ZM32.2578 120C32.1953 119.875 32.1445 119.652 32.1055 119.332C31.6016 119.855 31 120.117 30.3008 120.117C29.6758 120.117 29.1621 119.941 28.7598 119.59C28.3613 119.234 28.1621 118.785 28.1621 118.242C28.1621 117.582 28.4121 117.07 28.9121 116.707C29.416 116.34 30.123 116.156 31.0332 116.156H32.0879V115.658C32.0879 115.279 31.9746 114.979 31.748 114.756C31.5215 114.529 31.1875 114.416 30.7461 114.416C30.3594 114.416 30.0352 114.514 29.7734 114.709C29.5117 114.904 29.3809 115.141 29.3809 115.418H28.291C28.291 115.102 28.4023 114.797 28.625 114.504C28.8516 114.207 29.1562 113.973 29.5391 113.801C29.9258 113.629 30.3496 113.543 30.8105 113.543C31.541 113.543 32.1133 113.727 32.5273 114.094C32.9414 114.457 33.1562 114.959 33.1719 115.6V118.518C33.1719 119.1 33.2461 119.562 33.3945 119.906V120H32.2578ZM30.459 119.174C30.7988 119.174 31.1211 119.086 31.4258 118.91C31.7305 118.734 31.9512 118.506 32.0879 118.225V116.924H31.2383C29.9102 116.924 29.2461 117.312 29.2461 118.09C29.2461 118.43 29.3594 118.695 29.5859 118.887C29.8125 119.078 30.1035 119.174 30.459 119.174ZM38.3574 115.395C38.3574 115.098 38.2441 114.863 38.0176 114.691C37.791 114.516 37.4805 114.428 37.0859 114.428C36.7031 114.428 36.3828 114.527 36.125 114.727C35.8711 114.926 35.7441 115.16 35.7441 115.43H34.666C34.666 114.879 34.8965 114.428 35.3574 114.076C35.8184 113.725 36.3945 113.549 37.0859 113.549C37.8281 113.549 38.4062 113.709 38.8203 114.029C39.2344 114.346 39.4414 114.799 39.4414 115.389C39.4414 115.674 39.3555 115.936 39.1836 116.174C39.0117 116.412 38.7676 116.602 38.4512 116.742C39.1895 116.992 39.5586 117.484 39.5586 118.219C39.5586 118.801 39.334 119.262 38.8848 119.602C38.4355 119.941 37.8359 120.111 37.0859 120.111C36.3555 120.111 35.752 119.934 35.2754 119.578C34.8027 119.219 34.5664 118.734 34.5664 118.125H35.6445C35.6445 118.434 35.7812 118.699 36.0547 118.922C36.332 119.141 36.6758 119.25 37.0859 119.25C37.5 119.25 37.834 119.154 38.0879 118.963C38.3418 118.771 38.4688 118.523 38.4688 118.219C38.4688 117.863 38.3613 117.609 38.1465 117.457C37.9355 117.301 37.6055 117.223 37.1562 117.223H36.0723V116.309H37.25C37.9883 116.289 38.3574 115.984 38.3574 115.395ZM40.6777 116.771C40.6777 116.15 40.7988 115.592 41.041 115.096C41.2871 114.6 41.627 114.217 42.0605 113.947C42.498 113.678 42.9961 113.543 43.5547 113.543C44.418 113.543 45.1152 113.842 45.6465 114.439C46.1816 115.037 46.4492 115.832 46.4492 116.824V116.9C46.4492 117.518 46.3301 118.072 46.0918 118.564C45.8574 119.053 45.5195 119.434 45.0781 119.707C44.6406 119.98 44.1367 120.117 43.5664 120.117C42.707 120.117 42.0098 119.818 41.4746 119.221C40.9434 118.623 40.6777 117.832 40.6777 116.848V116.771ZM41.7676 116.9C41.7676 117.604 41.9297 118.168 42.2539 118.594C42.582 119.02 43.0195 119.232 43.5664 119.232C44.1172 119.232 44.5547 119.018 44.8789 118.588C45.2031 118.154 45.3652 117.549 45.3652 116.771C45.3652 116.076 45.1992 115.514 44.8672 115.084C44.5391 114.65 44.1016 114.434 43.5547 114.434C43.0195 114.434 42.5879 114.646 42.2598 115.072C41.9316 115.498 41.7676 116.107 41.7676 116.9ZM47.9082 120V113.66H50.3809C51.2246 113.66 51.8711 113.809 52.3203 114.105C52.7734 114.398 53 114.83 53 115.4C53 115.693 52.9121 115.959 52.7363 116.197C52.5605 116.432 52.3008 116.611 51.957 116.736C52.3398 116.826 52.6465 117.002 52.877 117.264C53.1113 117.525 53.2285 117.838 53.2285 118.201C53.2285 118.783 53.0137 119.229 52.584 119.537C52.1582 119.846 51.5547 120 50.7734 120H47.9082ZM48.9922 117.217V119.127H50.7852C51.2383 119.127 51.5762 119.043 51.7988 118.875C52.0254 118.707 52.1387 118.471 52.1387 118.166C52.1387 117.533 51.6738 117.217 50.7441 117.217H48.9922ZM48.9922 116.35H50.3926C51.4082 116.35 51.916 116.053 51.916 115.459C51.916 114.865 51.4355 114.559 50.4746 114.539H48.9922V116.35ZM58.5781 120C58.5156 119.875 58.4648 119.652 58.4258 119.332C57.9219 119.855 57.3203 120.117 56.6211 120.117C55.9961 120.117 55.4824 119.941 55.0801 119.59C54.6816 119.234 54.4824 118.785 54.4824 118.242C54.4824 117.582 54.7324 117.07 55.2324 116.707C55.7363 116.34 56.4434 116.156 57.3535 116.156H58.4082V115.658C58.4082 115.279 58.2949 114.979 58.0684 114.756C57.8418 114.529 57.5078 114.416 57.0664 114.416C56.6797 114.416 56.3555 114.514 56.0938 114.709C55.832 114.904 55.7012 115.141 55.7012 115.418H54.6113C54.6113 115.102 54.7227 114.797 54.9453 114.504C55.1719 114.207 55.4766 113.973 55.8594 113.801C56.2461 113.629 56.6699 113.543 57.1309 113.543C57.8613 113.543 58.4336 113.727 58.8477 114.094C59.2617 114.457 59.4766 114.959 59.4922 115.6V118.518C59.4922 119.1 59.5664 119.562 59.7148 119.906V120H58.5781ZM56.7793 119.174C57.1191 119.174 57.4414 119.086 57.7461 118.91C58.0508 118.734 58.2715 118.506 58.4082 118.225V116.924H57.5586C56.2305 116.924 55.5664 117.312 55.5664 118.09C55.5664 118.43 55.6797 118.695 55.9062 118.887C56.1328 119.078 56.4238 119.174 56.7793 119.174ZM66.3711 120H65.2871V117.293H62.375V120H61.2852V113.66H62.375V116.408H65.2871V113.66H66.3711V120ZM72.2188 113.66H73.3027V120H72.2188V115.377L69.2949 120H68.2109V113.66H69.2949V118.289L72.2188 113.66ZM77.6738 120.117C76.8145 120.117 76.1152 119.836 75.5762 119.273C75.0371 118.707 74.7676 117.951 74.7676 117.006V116.807C74.7676 116.178 74.8867 115.617 75.125 115.125C75.3672 114.629 75.7031 114.242 76.1328 113.965C76.5664 113.684 77.0352 113.543 77.5391 113.543C78.3633 113.543 79.0039 113.814 79.4609 114.357C79.918 114.9 80.1465 115.678 80.1465 116.689V117.141H75.8516C75.8672 117.766 76.0488 118.271 76.3965 118.658C76.748 119.041 77.1934 119.232 77.7324 119.232C78.1152 119.232 78.4395 119.154 78.7051 118.998C78.9707 118.842 79.2031 118.635 79.4023 118.377L80.0645 118.893C79.5332 119.709 78.7363 120.117 77.6738 120.117ZM77.5391 114.434C77.1016 114.434 76.7344 114.594 76.4375 114.914C76.1406 115.23 75.957 115.676 75.8867 116.25H79.0625V116.168C79.0312 115.617 78.8828 115.191 78.6172 114.891C78.3516 114.586 77.9922 114.434 77.5391 114.434Z" fill="#484848"/>
<g filter="url(#filter0_d)">
<circle cx="44" cy="43" r="40" fill="white"/>
</g>
<path fill-rule="evenodd" clip-rule="evenodd" d="M54.9999 40.5173C55.0062 40.2148 54.8444 39.9094 54.5143 39.7523L44.9828 35.2206C44.3642 34.9265 43.6361 34.9265 43.0175 35.2206L33.486 39.7523C32.8383 40.0604 32.8383 40.9395 33.486 41.2477L43.0175 45.7794C43.6361 46.0735 44.3642 46.0735 44.9828 45.7794L52.9999 41.9676V46C52.9999 46.5522 53.4476 47 53.9999 47C54.5521 47 54.9999 46.5522 54.9999 46V40.5173ZM51.5 40.5173L44 44C44 44 36.346 40.5732 36.5 40.5L44 37L51.5 40.5173ZM36.9999 47.5V44.5L38.9999 45.5V47.2142C38.9999 47.3802 39.0478 47.5465 39.1381 47.7093C39.1642 47.7564 39.194 47.8032 39.227 47.8496L39.2148 47.8435C39.2297 47.8612 39.2458 47.8794 39.2629 47.8982C39.9328 48.7704 41.8066 49.5 43.9999 49.5C46.1903 49.5 48.0568 48.7762 48.7309 47.9039C48.7497 47.8834 48.7672 47.8636 48.7833 47.8443L48.7704 47.8508C48.8036 47.8043 48.8334 47.7574 48.8595 47.7102C48.9501 47.5472 48.9987 47.3808 48.9999 47.2142V45.5L50.9999 44.5V47.5C50.9879 49.5018 47.8517 51.5 43.9999 51.5C40.1481 51.5 36.9999 49.4904 36.9999 47.5Z" fill="#999999"/>
<defs>
<filter id="filter0_d" x="0" y="0" width="88" height="88" filterUnits="userSpaceOnUse" color-interpolation-filters="sRGB">
<feFlood flood-opacity="0" result="BackgroundImageFix"/>
<feColorMatrix in="SourceAlpha" type="matrix" values="0 0 0 0 0 0 0 0 0 0 0 0 0 0 0 0 0 0 127 0" result="hardAlpha"/>
<feOffset dy="1"/>
<feGaussianBlur stdDeviation="2"/>
<feColorMatrix type="matrix" values="0 0 0 0 0 0 0 0 0 0 0 0 0 0 0 0 0 0 0.15 0"/>
<feBlend mode="normal" in2="BackgroundImageFix" result="effect1_dropShadow"/>
<feBlend mode="normal" in="SourceGraphic" in2="effect1_dropShadow" result="shape"/>
</filter>
</defs>
</svg>
