<svg width="88" height="125" viewBox="0 0 88 125" fill="none" xmlns="http://www.w3.org/2000/svg">
<path d="M17.041 100.42L19.0039 95.4688H20.3105L17.293 102.576C17.0898 103.029 16.9004 103.352 16.7246 103.543C16.5488 103.73 16.3418 103.875 16.1035 103.977C15.8691 104.074 15.5742 104.123 15.2188 104.123C14.9102 104.123 14.7129 104.105 14.627 104.07L14.6621 103.18L15.1953 103.203C15.6055 103.203 15.9102 103.006 16.1094 102.611L16.2559 102.307L16.4785 101.785L13.5723 95.4688H14.832L17.041 100.42ZM23.6328 103.232C24.0195 103.232 24.3574 103.115 24.6465 102.881C24.9355 102.646 25.0957 102.354 25.127 102.002H26.1523C26.1328 102.365 26.0078 102.711 25.7773 103.039C25.5469 103.367 25.2383 103.629 24.8516 103.824C24.4688 104.02 24.0625 104.117 23.6328 104.117C22.7695 104.117 22.082 103.83 21.5703 103.256C21.0625 102.678 20.8086 101.889 20.8086 100.889V100.707C20.8086 100.09 20.9219 99.541 21.1484 99.0605C21.375 98.5801 21.6992 98.207 22.1211 97.9414C22.5469 97.6758 23.0488 97.543 23.627 97.543C24.3379 97.543 24.9277 97.7559 25.3965 98.1816C25.8691 98.6074 26.1211 99.1602 26.1523 99.8398H25.127C25.0957 99.4297 24.9395 99.0938 24.6582 98.832C24.3809 98.5664 24.0371 98.4336 23.627 98.4336C23.0762 98.4336 22.6484 98.6328 22.3438 99.0312C22.043 99.4258 21.8926 99.998 21.8926 100.748V100.953C21.8926 101.684 22.043 102.246 22.3438 102.641C22.6445 103.035 23.0742 103.232 23.6328 103.232ZM32.5684 97.6602V104H31.4785V98.5566H29.3223L29.1934 100.93C29.123 102.02 28.9395 102.799 28.6426 103.268C28.3496 103.736 27.8828 103.98 27.2422 104H26.8086V103.045L27.1191 103.021C27.4707 102.982 27.7227 102.779 27.875 102.412C28.0273 102.045 28.125 101.365 28.168 100.373L28.2852 97.6602H32.5684ZM36.3828 102.412L37.8594 97.6602H39.0195L36.4707 104.979C36.0762 106.033 35.4492 106.561 34.5898 106.561L34.3848 106.543L33.9805 106.467V105.588L34.2734 105.611C34.6406 105.611 34.9258 105.537 35.1289 105.389C35.3359 105.24 35.5059 104.969 35.6387 104.574L35.8789 103.93L33.6172 97.6602H34.8008L36.3828 102.412ZM44.0879 98.5566H41.1641V104H40.0742V97.6602H44.0879V98.5566ZM49.1328 97.6602H50.2168V104H49.1328V99.377L46.209 104H45.125V97.6602H46.209V102.289L49.1328 97.6602ZM54.8809 103.115L55.2559 102.652C55.6777 102.105 55.918 101.285 55.9766 100.191L56.0762 97.6602H60.1602V103.115H60.9746V105.863H59.8906V104H55.4668V105.863H54.3828L54.3887 103.115H54.8809ZM56.1641 103.115H59.0762V98.6621H57.125L57.0605 100.174C56.9941 101.436 56.6953 102.416 56.1641 103.115ZM67.373 97.6602V104H66.2832V98.5566H64.127L63.998 100.93C63.9277 102.02 63.7441 102.799 63.4473 103.268C63.1543 103.736 62.6875 103.98 62.0469 104H61.6133V103.045L61.9238 103.021C62.2754 102.982 62.5273 102.779 62.6797 102.412C62.832 102.045 62.9297 101.365 62.9727 100.373L63.0898 97.6602H67.373ZM73.959 97.6602V104H72.8691V101.533H71.2344L69.7402 104H68.5684L70.1621 101.369C69.7559 101.221 69.4434 100.992 69.2246 100.684C69.0098 100.371 68.9023 100.008 68.9023 99.5938C68.9023 99.0156 69.1191 98.5508 69.5527 98.1992C69.9863 97.8438 70.5664 97.6641 71.293 97.6602H73.959ZM69.9922 99.6055C69.9922 99.9141 70.0977 100.164 70.3086 100.355C70.5195 100.543 70.7988 100.639 71.1465 100.643H72.8691V98.5391H71.3105C70.9082 98.5391 70.5879 98.6387 70.3496 98.8379C70.1113 99.0332 69.9922 99.2891 69.9922 99.6055ZM20.082 120H18.998V117.293H16.0859V120H14.9961V113.66H16.0859V116.408H18.998V113.66H20.082V120ZM25.7422 120C25.6797 119.875 25.6289 119.652 25.5898 119.332C25.0859 119.855 24.4844 120.117 23.7852 120.117C23.1602 120.117 22.6465 119.941 22.2441 119.59C21.8457 119.234 21.6465 118.785 21.6465 118.242C21.6465 117.582 21.8965 117.07 22.3965 116.707C22.9004 116.34 23.6074 116.156 24.5176 116.156H25.5723V115.658C25.5723 115.279 25.459 114.979 25.2324 114.756C25.0059 114.529 24.6719 114.416 24.2305 114.416C23.8438 114.416 23.5195 114.514 23.2578 114.709C22.9961 114.904 22.8652 115.141 22.8652 115.418H21.7754C21.7754 115.102 21.8867 114.797 22.1094 114.504C22.3359 114.207 22.6406 113.973 23.0234 113.801C23.4102 113.629 23.834 113.543 24.2949 113.543C25.0254 113.543 25.5977 113.727 26.0117 114.094C26.4258 114.457 26.6406 114.959 26.6562 115.6V118.518C26.6562 119.1 26.7305 119.562 26.8789 119.906V120H25.7422ZM23.9434 119.174C24.2832 119.174 24.6055 119.086 24.9102 118.91C25.2148 118.734 25.4355 118.506 25.5723 118.225V116.924H24.7227C23.3945 116.924 22.7305 117.312 22.7305 118.09C22.7305 118.43 22.8438 118.695 23.0703 118.887C23.2969 119.078 23.5879 119.174 23.9434 119.174ZM30.8984 119.232C31.2852 119.232 31.623 119.115 31.9121 118.881C32.2012 118.646 32.3613 118.354 32.3926 118.002H33.418C33.3984 118.365 33.2734 118.711 33.043 119.039C32.8125 119.367 32.5039 119.629 32.1172 119.824C31.7344 120.02 31.3281 120.117 30.8984 120.117C30.0352 120.117 29.3477 119.83 28.8359 119.256C28.3281 118.678 28.0742 117.889 28.0742 116.889V116.707C28.0742 116.09 28.1875 115.541 28.4141 115.061C28.6406 114.58 28.9648 114.207 29.3867 113.941C29.8125 113.676 30.3145 113.543 30.8926 113.543C31.6035 113.543 32.1934 113.756 32.6621 114.182C33.1348 114.607 33.3867 115.16 33.418 115.84H32.3926C32.3613 115.43 32.2051 115.094 31.9238 114.832C31.6465 114.566 31.3027 114.434 30.8926 114.434C30.3418 114.434 29.9141 114.633 29.6094 115.031C29.3086 115.426 29.1582 115.998 29.1582 116.748V116.953C29.1582 117.684 29.3086 118.246 29.6094 118.641C29.9102 119.035 30.3398 119.232 30.8984 119.232ZM37.2676 120.117C36.4082 120.117 35.709 119.836 35.1699 119.273C34.6309 118.707 34.3613 117.951 34.3613 117.006V116.807C34.3613 116.178 34.4805 115.617 34.7188 115.125C34.9609 114.629 35.2969 114.242 35.7266 113.965C36.1602 113.684 36.6289 113.543 37.1328 113.543C37.957 113.543 38.5977 113.814 39.0547 114.357C39.5117 114.9 39.7402 115.678 39.7402 116.689V117.141H35.4453C35.4609 117.766 35.6426 118.271 35.9902 118.658C36.3418 119.041 36.7871 119.232 37.3262 119.232C37.709 119.232 38.0332 119.154 38.2988 118.998C38.5645 118.842 38.7969 118.635 38.9961 118.377L39.6582 118.893C39.127 119.709 38.3301 120.117 37.2676 120.117ZM37.1328 114.434C36.6953 114.434 36.3281 114.594 36.0312 114.914C35.7344 115.23 35.5508 115.676 35.4805 116.25H38.6562V116.168C38.625 115.617 38.4766 115.191 38.2109 114.891C37.9453 114.586 37.5859 114.434 37.1328 114.434ZM46.1973 113.66V120H45.1074V114.557H42.9512L42.8223 116.93C42.752 118.02 42.5684 118.799 42.2715 119.268C41.9785 119.736 41.5117 119.98 40.8711 120H40.4375V119.045L40.748 119.021C41.0996 118.982 41.3516 118.779 41.5039 118.412C41.6562 118.045 41.7539 117.365 41.7969 116.373L41.9141 113.66H46.1973ZM50.5684 120.117C49.709 120.117 49.0098 119.836 48.4707 119.273C47.9316 118.707 47.6621 117.951 47.6621 117.006V116.807C47.6621 116.178 47.7812 115.617 48.0195 115.125C48.2617 114.629 48.5977 114.242 49.0273 113.965C49.4609 113.684 49.9297 113.543 50.4336 113.543C51.2578 113.543 51.8984 113.814 52.3555 114.357C52.8125 114.9 53.041 115.678 53.041 116.689V117.141H48.7461C48.7617 117.766 48.9434 118.271 49.291 118.658C49.6426 119.041 50.0879 119.232 50.627 119.232C51.0098 119.232 51.334 119.154 51.5996 118.998C51.8652 118.842 52.0977 118.635 52.2969 118.377L52.959 118.893C52.4277 119.709 51.6309 120.117 50.5684 120.117ZM50.4336 114.434C49.9961 114.434 49.6289 114.594 49.332 114.914C49.0352 115.23 48.8516 115.676 48.7812 116.25H51.957V116.168C51.9258 115.617 51.7773 115.191 51.5117 114.891C51.2461 114.586 50.8867 114.434 50.4336 114.434ZM59.4805 120H58.3965V117.293H55.4844V120H54.3945V113.66H55.4844V116.408H58.3965V113.66H59.4805V120ZM65.3281 113.66H66.4121V120H65.3281V115.377L62.4043 120H61.3203V113.66H62.4043V118.289L65.3281 113.66ZM72.998 113.66V120H71.9082V117.533H70.2734L68.7793 120H67.6074L69.2012 117.369C68.7949 117.221 68.4824 116.992 68.2637 116.684C68.0488 116.371 67.9414 116.008 67.9414 115.594C67.9414 115.016 68.1582 114.551 68.5918 114.199C69.0254 113.844 69.6055 113.664 70.332 113.66H72.998ZM69.0312 115.605C69.0312 115.914 69.1367 116.164 69.3477 116.355C69.5586 116.543 69.8379 116.639 70.1855 116.643H71.9082V114.539H70.3496C69.9473 114.539 69.627 114.639 69.3887 114.838C69.1504 115.033 69.0312 115.289 69.0312 115.605Z" fill="#484848"/>
<g filter="url(#filter0_d)">
<circle cx="44" cy="43" r="40" fill="white"/>
</g>
<path fill-rule="evenodd" clip-rule="evenodd" d="M46 38C46 40.7614 43.7614 43 41 43C38.2386 43 36 40.7614 36 38C36 35.2386 38.2386 33 41 33C43.7614 33 46 35.2386 46 38ZM44 38C44 36.3431 42.6569 35 41 35C39.3431 35 38 36.3431 38 38C38 39.6569 39.3431 41 41 41C42.6569 41 44 39.6569 44 38Z" fill="#999999"/>
<path fill-rule="evenodd" clip-rule="evenodd" d="M53 38.5C53 40.4398 51.4501 42 49.5 42C47.5499 42 46 40.4398 46 38.5C46 36.5602 47.5499 35 49.5 35C51.4501 35 53 36.5602 53 38.5ZM51 38.5C51 37.6618 50.3425 37 49.5 37C48.6575 37 48 37.6618 48 38.5C48 39.3382 48.6575 40 49.5 40C50.3425 40 51 39.3382 51 38.5Z" fill="#999999"/>
<path fill-rule="evenodd" clip-rule="evenodd" d="M35.6447 46.3253C36.7602 44.9097 38.4988 44 41 44C43.5011 44 45.2398 44.9097 46.3553 46.3253C47.4326 47.6925 47.8389 49.4176 47.9583 50.9223C48.0524 52.109 47.0796 53 46 53H36C34.9204 53 33.9476 52.109 34.0417 50.9223C34.1611 49.4176 34.5674 47.6925 35.6447 46.3253ZM36.0421 51H45.9578C45.8462 49.716 45.5016 48.4734 44.7844 47.5632C44.0903 46.6824 42.9599 46 41 46C39.04 46 37.9097 46.6824 37.2156 47.5632C36.4983 48.4734 36.1538 49.716 36.0421 51Z" fill="#999999"/>
<path d="M47.8036 45.1669C48.1558 44.7734 48.6746 44.5 49.5 44.5C50.3238 44.5 50.842 44.7723 51.1939 45.1641C51.5542 45.5651 51.8164 46.1791 51.9333 47H49.5C48.9478 47 48.5 47.4477 48.5 48C48.5 48.5523 48.9478 49 49.5 49H52C53.064 49 54.0844 48.1096 53.9348 46.881C53.7971 45.75 53.4245 44.6543 52.6818 43.8276C51.9131 42.9718 50.8328 42.5 49.5 42.5C48.1641 42.5 47.0822 42.974 46.3133 43.8331C45.945 44.2447 45.9801 44.8769 46.3916 45.2452C46.8031 45.6135 47.4353 45.5784 47.8036 45.1669Z" fill="#999999"/>
<defs>
<filter id="filter0_d" x="0" y="0" width="88" height="88" filterUnits="userSpaceOnUse" color-interpolation-filters="sRGB">
<feFlood flood-opacity="0" result="BackgroundImageFix"/>
<feColorMatrix in="SourceAlpha" type="matrix" values="0 0 0 0 0 0 0 0 0 0 0 0 0 0 0 0 0 0 127 0" result="hardAlpha"/>
<feOffset dy="1"/>
<feGaussianBlur stdDeviation="2"/>
<feColorMatrix type="matrix" values="0 0 0 0 0 0 0 0 0 0 0 0 0 0 0 0 0 0 0.15 0"/>
<feBlend mode="normal" in2="BackgroundImageFix" result="effect1_dropShadow"/>
<feBlend mode="normal" in="SourceGraphic" in2="effect1_dropShadow" result="shape"/>
</filter>
</defs>
</svg>
