<svg width="88" height="125" viewBox="0 0 88 125" fill="none" xmlns="http://www.w3.org/2000/svg">
<path d="M17.5859 96.3945H14.8438V104H13.7246V96.3945H10.9883V95.4688H17.5859V96.3945ZM17.8086 100.771C17.8086 100.15 17.9297 99.5918 18.1719 99.0957C18.418 98.5996 18.7578 98.2168 19.1914 97.9473C19.6289 97.6777 20.127 97.543 20.6855 97.543C21.5488 97.543 22.2461 97.8418 22.7773 98.4395C23.3125 99.0371 23.5801 99.832 23.5801 100.824V100.9C23.5801 101.518 23.4609 102.072 23.2227 102.564C22.9883 103.053 22.6504 103.434 22.209 103.707C21.7715 103.98 21.2676 104.117 20.6973 104.117C19.8379 104.117 19.1406 103.818 18.6055 103.221C18.0742 102.623 17.8086 101.832 17.8086 100.848V100.771ZM18.8984 100.9C18.8984 101.604 19.0605 102.168 19.3848 102.594C19.7129 103.02 20.1504 103.232 20.6973 103.232C21.248 103.232 21.6855 103.018 22.0098 102.588C22.334 102.154 22.4961 101.549 22.4961 100.771C22.4961 100.076 22.3301 99.5137 21.998 99.084C21.6699 98.6504 21.2324 98.4336 20.6855 98.4336C20.1504 98.4336 19.7188 98.6465 19.3906 99.0723C19.0625 99.498 18.8984 100.107 18.8984 100.9ZM25.0391 104V97.6602H27.5117C28.3555 97.6602 29.002 97.8086 29.4512 98.1055C29.9043 98.3984 30.1309 98.8301 30.1309 99.4004C30.1309 99.6934 30.043 99.959 29.8672 100.197C29.6914 100.432 29.4316 100.611 29.0879 100.736C29.4707 100.826 29.7773 101.002 30.0078 101.264C30.2422 101.525 30.3594 101.838 30.3594 102.201C30.3594 102.783 30.1445 103.229 29.7148 103.537C29.2891 103.846 28.6855 104 27.9043 104H25.0391ZM26.123 101.217V103.127H27.916C28.3691 103.127 28.707 103.043 28.9297 102.875C29.1562 102.707 29.2695 102.471 29.2695 102.166C29.2695 101.533 28.8047 101.217 27.875 101.217H26.123ZM26.123 100.35H27.5234C28.5391 100.35 29.0469 100.053 29.0469 99.459C29.0469 98.8652 28.5664 98.5586 27.6055 98.5391H26.123V100.35ZM35.709 104C35.6465 103.875 35.5957 103.652 35.5566 103.332C35.0527 103.855 34.4512 104.117 33.752 104.117C33.127 104.117 32.6133 103.941 32.2109 103.59C31.8125 103.234 31.6133 102.785 31.6133 102.242C31.6133 101.582 31.8633 101.07 32.3633 100.707C32.8672 100.34 33.5742 100.156 34.4844 100.156H35.5391V99.6582C35.5391 99.2793 35.4258 98.9785 35.1992 98.7559C34.9727 98.5293 34.6387 98.416 34.1973 98.416C33.8105 98.416 33.4863 98.5137 33.2246 98.709C32.9629 98.9043 32.832 99.1406 32.832 99.418H31.7422C31.7422 99.1016 31.8535 98.7969 32.0762 98.5039C32.3027 98.207 32.6074 97.9727 32.9902 97.8008C33.377 97.6289 33.8008 97.543 34.2617 97.543C34.9922 97.543 35.5645 97.7266 35.9785 98.0938C36.3926 98.457 36.6074 98.959 36.623 99.5996V102.518C36.623 103.1 36.6973 103.562 36.8457 103.906V104H35.709ZM33.9102 103.174C34.25 103.174 34.5723 103.086 34.877 102.91C35.1816 102.734 35.4023 102.506 35.5391 102.225V100.924H34.6895C33.3613 100.924 32.6973 101.312 32.6973 102.09C32.6973 102.43 32.8105 102.695 33.0371 102.887C33.2637 103.078 33.5547 103.174 33.9102 103.174ZM43.6777 100.9C43.6777 101.865 43.457 102.643 43.0156 103.232C42.5742 103.822 41.9766 104.117 41.2227 104.117C40.4531 104.117 39.8477 103.873 39.4062 103.385V106.438H38.3223V97.6602H39.3125L39.3652 98.3633C39.8066 97.8164 40.4199 97.543 41.2051 97.543C41.9668 97.543 42.5684 97.8301 43.0098 98.4043C43.4551 98.9785 43.6777 99.7773 43.6777 100.801V100.9ZM42.5938 100.777C42.5938 100.062 42.4414 99.498 42.1367 99.084C41.832 98.6699 41.4141 98.4629 40.8828 98.4629C40.2266 98.4629 39.7344 98.7539 39.4062 99.3359V102.365C39.7305 102.943 40.2266 103.232 40.8945 103.232C41.4141 103.232 41.8262 103.027 42.1309 102.617C42.4395 102.203 42.5938 101.59 42.5938 100.777ZM46.2441 99.8457H47.8906C48.6094 99.8535 49.1777 100.041 49.5957 100.408C50.0137 100.775 50.2227 101.273 50.2227 101.902C50.2227 102.535 50.0078 103.043 49.5781 103.426C49.1484 103.809 48.5703 104 47.8438 104H45.1602V97.6602H46.2441V99.8457ZM52.4844 104H51.3945V97.6602H52.4844V104ZM46.2441 100.73V103.115H47.8555C48.2617 103.115 48.5762 103.012 48.7988 102.805C49.0215 102.594 49.1328 102.307 49.1328 101.943C49.1328 101.592 49.0234 101.305 48.8047 101.082C48.5898 100.855 48.2871 100.738 47.8965 100.73H46.2441ZM57.3008 103.115L57.6758 102.652C58.0977 102.105 58.3379 101.285 58.3965 100.191L58.4961 97.6602H62.5801V103.115H63.3945V105.863H62.3105V104H57.8867V105.863H56.8027L56.8086 103.115H57.3008ZM58.584 103.115H61.4961V98.6621H59.5449L59.4805 100.174C59.4141 101.436 59.1152 102.416 58.584 103.115ZM69.793 97.6602V104H68.7031V98.5566H66.5469L66.418 100.93C66.3477 102.02 66.1641 102.799 65.8672 103.268C65.5742 103.736 65.1074 103.98 64.4668 104H64.0332V103.045L64.3438 103.021C64.6953 102.982 64.9473 102.779 65.0996 102.412C65.252 102.045 65.3496 101.365 65.3926 100.373L65.5098 97.6602H69.793ZM76.3789 97.6602V104H75.2891V101.533H73.6543L72.1602 104H70.9883L72.582 101.369C72.1758 101.221 71.8633 100.992 71.6445 100.684C71.4297 100.371 71.3223 100.008 71.3223 99.5938C71.3223 99.0156 71.5391 98.5508 71.9727 98.1992C72.4062 97.8438 72.9863 97.6641 73.7129 97.6602H76.3789ZM72.4121 99.6055C72.4121 99.9141 72.5176 100.164 72.7285 100.355C72.9395 100.543 73.2188 100.639 73.5664 100.643H75.2891V98.5391H73.7305C73.3281 98.5391 73.0078 98.6387 72.7695 98.8379C72.5312 99.0332 72.4121 99.2891 72.4121 99.6055ZM30.0078 119.115L30.3828 118.652C30.8047 118.105 31.0449 117.285 31.1035 116.191L31.2031 113.66H35.2871V119.115H36.1016V121.863H35.0176V120H30.5938V121.863H29.5098L29.5156 119.115H30.0078ZM31.291 119.115H34.2031V114.662H32.252L32.1875 116.174C32.1211 117.436 31.8223 118.416 31.291 119.115ZM37.0156 116.771C37.0156 116.15 37.1367 115.592 37.3789 115.096C37.625 114.6 37.9648 114.217 38.3984 113.947C38.8359 113.678 39.334 113.543 39.8926 113.543C40.7559 113.543 41.4531 113.842 41.9844 114.439C42.5195 115.037 42.7871 115.832 42.7871 116.824V116.9C42.7871 117.518 42.668 118.072 42.4297 118.564C42.1953 119.053 41.8574 119.434 41.416 119.707C40.9785 119.98 40.4746 120.117 39.9043 120.117C39.0449 120.117 38.3477 119.818 37.8125 119.221C37.2812 118.623 37.0156 117.832 37.0156 116.848V116.771ZM38.1055 116.9C38.1055 117.604 38.2676 118.168 38.5918 118.594C38.9199 119.02 39.3574 119.232 39.9043 119.232C40.4551 119.232 40.8926 119.018 41.2168 118.588C41.541 118.154 41.7031 117.549 41.7031 116.771C41.7031 116.076 41.5371 115.514 41.2051 115.084C40.877 114.65 40.4395 114.434 39.8926 114.434C39.3574 114.434 38.9258 114.646 38.5977 115.072C38.2695 115.498 38.1055 116.107 38.1055 116.9ZM47.7969 118.564L49.9531 113.66H51.3066V120H50.2227V115.389L48.1719 120H47.4219L45.3301 115.289V120H44.2461V113.66H45.6523L47.7969 118.564ZM56.9668 120C56.9043 119.875 56.8535 119.652 56.8145 119.332C56.3105 119.855 55.709 120.117 55.0098 120.117C54.3848 120.117 53.8711 119.941 53.4688 119.59C53.0703 119.234 52.8711 118.785 52.8711 118.242C52.8711 117.582 53.1211 117.07 53.6211 116.707C54.125 116.34 54.832 116.156 55.7422 116.156H56.7969V115.658C56.7969 115.279 56.6836 114.979 56.457 114.756C56.2305 114.529 55.8965 114.416 55.4551 114.416C55.0684 114.416 54.7441 114.514 54.4824 114.709C54.2207 114.904 54.0898 115.141 54.0898 115.418H53C53 115.102 53.1113 114.797 53.334 114.504C53.5605 114.207 53.8652 113.973 54.248 113.801C54.6348 113.629 55.0586 113.543 55.5195 113.543C56.25 113.543 56.8223 113.727 57.2363 114.094C57.6504 114.457 57.8652 114.959 57.8809 115.6V118.518C57.8809 119.1 57.9551 119.562 58.1035 119.906V120H56.9668ZM55.168 119.174C55.5078 119.174 55.8301 119.086 56.1348 118.91C56.4395 118.734 56.6602 118.506 56.7969 118.225V116.924H55.9473C54.6191 116.924 53.9551 117.312 53.9551 118.09C53.9551 118.43 54.0684 118.695 54.2949 118.887C54.5215 119.078 54.8125 119.174 55.168 119.174Z" fill="#484848"/>
<g filter="url(#filter0_d)">
<circle cx="44" cy="43" r="40" fill="white"/>
</g>
<path d="M49 44V48H45V44H49Z" fill="#999999"/>
<path fill-rule="evenodd" clip-rule="evenodd" d="M38 34L33 41H34V51C34 52.1046 34.8954 53 36 53H52C53.1046 53 54 52.1046 54 51V41H55L50 34H38ZM36 41L39.5 36.1L43 41H52V51H43V44H39V51H36V41ZM44.5714 39H50.5714L48.4286 36H42.4286L44.5714 39Z" fill="#999999"/>
<defs>
<filter id="filter0_d" x="0" y="0" width="88" height="88" filterUnits="userSpaceOnUse" color-interpolation-filters="sRGB">
<feFlood flood-opacity="0" result="BackgroundImageFix"/>
<feColorMatrix in="SourceAlpha" type="matrix" values="0 0 0 0 0 0 0 0 0 0 0 0 0 0 0 0 0 0 127 0" result="hardAlpha"/>
<feOffset dy="1"/>
<feGaussianBlur stdDeviation="2"/>
<feColorMatrix type="matrix" values="0 0 0 0 0 0 0 0 0 0 0 0 0 0 0 0 0 0 0.15 0"/>
<feBlend mode="normal" in2="BackgroundImageFix" result="effect1_dropShadow"/>
<feBlend mode="normal" in="SourceGraphic" in2="effect1_dropShadow" result="shape"/>
</filter>
</defs>
</svg>
