<svg width="109" height="49" viewBox="0 0 109 49" fill="none" xmlns="http://www.w3.org/2000/svg">
<g filter="url(#filter0_d)">
<rect x="4" y="3" width="101" height="41" rx="20" fill="white"/>
<path d="M18.666 22.4082H19.6162C20.2132 22.3991 20.6826 22.2419 21.0244 21.9365C21.3662 21.6312 21.5371 21.2188 21.5371 20.6992C21.5371 19.5326 20.9561 18.9492 19.7939 18.9492C19.2471 18.9492 18.8096 19.1064 18.4814 19.4209C18.1579 19.7308 17.9961 20.1432 17.9961 20.6582H16.7314C16.7314 19.8698 17.0186 19.2158 17.5928 18.6963C18.1715 18.1722 18.9053 17.9102 19.7939 17.9102C20.7327 17.9102 21.4688 18.1585 22.002 18.6553C22.5352 19.152 22.8018 19.8424 22.8018 20.7266C22.8018 21.1595 22.6605 21.5788 22.3779 21.9844C22.0999 22.39 21.7194 22.693 21.2363 22.8936C21.7832 23.0667 22.2048 23.3538 22.501 23.7549C22.8018 24.1559 22.9521 24.6458 22.9521 25.2246C22.9521 26.1178 22.6605 26.8265 22.0771 27.3506C21.4938 27.8747 20.735 28.1367 19.8008 28.1367C18.8665 28.1367 18.1055 27.8838 17.5176 27.3779C16.9342 26.8721 16.6426 26.2044 16.6426 25.375H17.9141C17.9141 25.8991 18.085 26.3184 18.4268 26.6328C18.7686 26.9473 19.2266 27.1045 19.8008 27.1045C20.4115 27.1045 20.8786 26.945 21.2021 26.626C21.5257 26.307 21.6875 25.849 21.6875 25.252C21.6875 24.6732 21.5098 24.2288 21.1543 23.9189C20.7988 23.609 20.2861 23.4495 19.6162 23.4404H18.666V22.4082ZM30.9297 23.7549C30.9297 25.236 30.6768 26.3366 30.1709 27.0566C29.665 27.7767 28.8743 28.1367 27.7988 28.1367C26.737 28.1367 25.9508 27.7858 25.4404 27.084C24.93 26.3776 24.6657 25.3249 24.6475 23.9258V22.2373C24.6475 20.7744 24.9004 19.6875 25.4062 18.9766C25.9121 18.2656 26.7051 17.9102 27.7852 17.9102C28.8561 17.9102 29.6445 18.2542 30.1504 18.9424C30.6562 19.626 30.916 20.6833 30.9297 22.1143V23.7549ZM29.665 22.0254C29.665 20.9544 29.5146 20.1751 29.2139 19.6875C28.9131 19.1953 28.4368 18.9492 27.7852 18.9492C27.138 18.9492 26.6663 19.193 26.3701 19.6807C26.0739 20.1683 25.9212 20.918 25.9121 21.9297V23.9531C25.9121 25.0286 26.0671 25.8239 26.377 26.3389C26.6914 26.8493 27.1654 27.1045 27.7988 27.1045C28.4232 27.1045 28.8857 26.863 29.1865 26.3799C29.4919 25.8968 29.6514 25.1357 29.665 24.0967V22.0254ZM38.791 23.7549C38.791 25.236 38.5381 26.3366 38.0322 27.0566C37.5264 27.7767 36.7357 28.1367 35.6602 28.1367C34.5983 28.1367 33.8122 27.7858 33.3018 27.084C32.7913 26.3776 32.527 25.3249 32.5088 23.9258V22.2373C32.5088 20.7744 32.7617 19.6875 33.2676 18.9766C33.7734 18.2656 34.5664 17.9102 35.6465 17.9102C36.7174 17.9102 37.5059 18.2542 38.0117 18.9424C38.5176 19.626 38.7773 20.6833 38.791 22.1143V23.7549ZM37.5264 22.0254C37.5264 20.9544 37.376 20.1751 37.0752 19.6875C36.7744 19.1953 36.2982 18.9492 35.6465 18.9492C34.9993 18.9492 34.5277 19.193 34.2314 19.6807C33.9352 20.1683 33.7826 20.918 33.7734 21.9297V23.9531C33.7734 25.0286 33.9284 25.8239 34.2383 26.3389C34.5527 26.8493 35.0267 27.1045 35.6602 27.1045C36.2845 27.1045 36.7471 26.863 37.0479 26.3799C37.3532 25.8968 37.5127 25.1357 37.5264 24.0967V22.0254ZM50.125 23.7549C50.125 25.236 49.8721 26.3366 49.3662 27.0566C48.8604 27.7767 48.0697 28.1367 46.9941 28.1367C45.9323 28.1367 45.1462 27.7858 44.6357 27.084C44.1253 26.3776 43.861 25.3249 43.8428 23.9258V22.2373C43.8428 20.7744 44.0957 19.6875 44.6016 18.9766C45.1074 18.2656 45.9004 17.9102 46.9805 17.9102C48.0514 17.9102 48.8398 18.2542 49.3457 18.9424C49.8516 19.626 50.1113 20.6833 50.125 22.1143V23.7549ZM48.8604 22.0254C48.8604 20.9544 48.71 20.1751 48.4092 19.6875C48.1084 19.1953 47.6322 18.9492 46.9805 18.9492C46.3333 18.9492 45.8617 19.193 45.5654 19.6807C45.2692 20.1683 45.1165 20.918 45.1074 21.9297V23.9531C45.1074 25.0286 45.2624 25.8239 45.5723 26.3389C45.8867 26.8493 46.3607 27.1045 46.9941 27.1045C47.6185 27.1045 48.0811 26.863 48.3818 26.3799C48.6872 25.8968 48.8467 25.1357 48.8604 24.0967V22.0254ZM57.9863 23.7549C57.9863 25.236 57.7334 26.3366 57.2275 27.0566C56.7217 27.7767 55.931 28.1367 54.8555 28.1367C53.7936 28.1367 53.0075 27.7858 52.4971 27.084C51.9867 26.3776 51.7223 25.3249 51.7041 23.9258V22.2373C51.7041 20.7744 51.957 19.6875 52.4629 18.9766C52.9688 18.2656 53.7617 17.9102 54.8418 17.9102C55.9128 17.9102 56.7012 18.2542 57.207 18.9424C57.7129 19.626 57.9727 20.6833 57.9863 22.1143V23.7549ZM56.7217 22.0254C56.7217 20.9544 56.5713 20.1751 56.2705 19.6875C55.9697 19.1953 55.4935 18.9492 54.8418 18.9492C54.1947 18.9492 53.723 19.193 53.4268 19.6807C53.1305 20.1683 52.9779 20.918 52.9688 21.9297V23.9531C52.9688 25.0286 53.1237 25.8239 53.4336 26.3389C53.748 26.8493 54.222 27.1045 54.8555 27.1045C55.4798 27.1045 55.9424 26.863 56.2432 26.3799C56.5485 25.8968 56.708 25.1357 56.7217 24.0967V22.0254ZM65.8477 23.7549C65.8477 25.236 65.5947 26.3366 65.0889 27.0566C64.583 27.7767 63.7923 28.1367 62.7168 28.1367C61.6549 28.1367 60.8688 27.7858 60.3584 27.084C59.848 26.3776 59.5837 25.3249 59.5654 23.9258V22.2373C59.5654 20.7744 59.8184 19.6875 60.3242 18.9766C60.8301 18.2656 61.623 17.9102 62.7031 17.9102C63.7741 17.9102 64.5625 18.2542 65.0684 18.9424C65.5742 19.626 65.834 20.6833 65.8477 22.1143V23.7549ZM64.583 22.0254C64.583 20.9544 64.4326 20.1751 64.1318 19.6875C63.8311 19.1953 63.3548 18.9492 62.7031 18.9492C62.056 18.9492 61.5843 19.193 61.2881 19.6807C60.9919 20.1683 60.8392 20.918 60.8301 21.9297V23.9531C60.8301 25.0286 60.985 25.8239 61.2949 26.3389C61.6094 26.8493 62.0833 27.1045 62.7168 27.1045C63.3411 27.1045 63.8037 26.863 64.1045 26.3799C64.4098 25.8968 64.5693 25.1357 64.583 24.0967V22.0254ZM77.3184 24.3838C77.3184 25.5094 77.0609 26.4163 76.5459 27.1045C76.0309 27.7926 75.3337 28.1367 74.4541 28.1367C73.5563 28.1367 72.8499 27.8519 72.335 27.2822V30.8438H71.0703V20.6035H72.2256L72.2871 21.4238C72.8021 20.7858 73.5176 20.4668 74.4336 20.4668C75.3223 20.4668 76.0241 20.8018 76.5391 21.4717C77.0586 22.1416 77.3184 23.0736 77.3184 24.2676V24.3838ZM76.0537 24.2402C76.0537 23.4062 75.876 22.7477 75.5205 22.2646C75.165 21.7816 74.6774 21.54 74.0576 21.54C73.292 21.54 72.7178 21.8796 72.335 22.5586V26.0928C72.7132 26.7673 73.292 27.1045 74.0713 27.1045C74.6774 27.1045 75.1582 26.8652 75.5137 26.3867C75.8737 25.9036 76.0537 25.1882 76.0537 24.2402ZM81.2695 26.1475L82.9922 20.6035H84.3457L81.3721 29.1416C80.9118 30.3721 80.1803 30.9873 79.1777 30.9873L78.9385 30.9668L78.4668 30.8779V29.8525L78.8086 29.8799C79.237 29.8799 79.5697 29.7933 79.8066 29.6201C80.0482 29.4469 80.2464 29.1302 80.4014 28.6699L80.6816 27.918L78.043 20.6035H79.4238L81.2695 26.1475ZM88.7275 21.0273C89.6572 21.0273 90.4001 21.3395 90.9561 21.9639C91.5166 22.5837 91.7969 23.4017 91.7969 24.418V24.5342C91.7969 25.2314 91.6624 25.8558 91.3936 26.4072C91.1247 26.9541 90.7373 27.3802 90.2314 27.6855C89.7301 27.9863 89.1514 28.1367 88.4951 28.1367C87.5016 28.1367 86.7018 27.8063 86.0957 27.1455C85.4896 26.4801 85.1865 25.5892 85.1865 24.4727V23.8574C85.1865 22.3034 85.4736 21.0684 86.0479 20.1523C86.6266 19.2363 87.4788 18.6781 88.6045 18.4775C89.2425 18.3636 89.6732 18.2246 89.8965 18.0605C90.1198 17.8965 90.2314 17.6709 90.2314 17.3838H91.2705C91.2705 17.9535 91.1406 18.3978 90.8809 18.7168C90.6257 19.0358 90.2155 19.2614 89.6504 19.3936L88.707 19.6055C87.9551 19.7832 87.39 20.084 87.0117 20.5078C86.638 20.9271 86.3942 21.4876 86.2803 22.1895C86.9502 21.4147 87.766 21.0273 88.7275 21.0273ZM88.4814 22.0664C87.8617 22.0664 87.3695 22.276 87.0049 22.6953C86.6403 23.11 86.458 23.6865 86.458 24.4248V24.5342C86.458 25.3271 86.6403 25.9561 87.0049 26.4209C87.374 26.8812 87.8708 27.1113 88.4951 27.1113C89.124 27.1113 89.6208 26.8789 89.9854 26.4141C90.3499 25.9492 90.5322 25.2702 90.5322 24.377C90.5322 23.6797 90.3477 23.1214 89.9785 22.7021C89.6139 22.2783 89.1149 22.0664 88.4814 22.0664Z" fill="#484848"/>
</g>
<defs>
<filter id="filter0_d" x="0" y="0" width="109" height="49" filterUnits="userSpaceOnUse" color-interpolation-filters="sRGB">
<feFlood flood-opacity="0" result="BackgroundImageFix"/>
<feColorMatrix in="SourceAlpha" type="matrix" values="0 0 0 0 0 0 0 0 0 0 0 0 0 0 0 0 0 0 127 0" result="hardAlpha"/>
<feOffset dy="1"/>
<feGaussianBlur stdDeviation="2"/>
<feColorMatrix type="matrix" values="0 0 0 0 0 0 0 0 0 0 0 0 0 0 0 0 0 0 0.15 0"/>
<feBlend mode="normal" in2="BackgroundImageFix" result="effect1_dropShadow"/>
<feBlend mode="normal" in="SourceGraphic" in2="effect1_dropShadow" result="shape"/>
</filter>
</defs>
</svg>
