<svg width="120" height="49" viewBox="0 0 120 49" fill="none" xmlns="http://www.w3.org/2000/svg">
<g filter="url(#filter0_d)">
<rect x="4" y="3" width="112" height="41" rx="20" fill="white"/>
<path d="M18.666 22.4082H19.6162C20.2132 22.3991 20.6826 22.2419 21.0244 21.9365C21.3662 21.6312 21.5371 21.2188 21.5371 20.6992C21.5371 19.5326 20.9561 18.9492 19.7939 18.9492C19.2471 18.9492 18.8096 19.1064 18.4814 19.4209C18.1579 19.7308 17.9961 20.1432 17.9961 20.6582H16.7314C16.7314 19.8698 17.0186 19.2158 17.5928 18.6963C18.1715 18.1722 18.9053 17.9102 19.7939 17.9102C20.7327 17.9102 21.4688 18.1585 22.002 18.6553C22.5352 19.152 22.8018 19.8424 22.8018 20.7266C22.8018 21.1595 22.6605 21.5788 22.3779 21.9844C22.0999 22.39 21.7194 22.693 21.2363 22.8936C21.7832 23.0667 22.2048 23.3538 22.501 23.7549C22.8018 24.1559 22.9521 24.6458 22.9521 25.2246C22.9521 26.1178 22.6605 26.8265 22.0771 27.3506C21.4938 27.8747 20.735 28.1367 19.8008 28.1367C18.8665 28.1367 18.1055 27.8838 17.5176 27.3779C16.9342 26.8721 16.6426 26.2044 16.6426 25.375H17.9141C17.9141 25.8991 18.085 26.3184 18.4268 26.6328C18.7686 26.9473 19.2266 27.1045 19.8008 27.1045C20.4115 27.1045 20.8786 26.945 21.2021 26.626C21.5257 26.307 21.6875 25.849 21.6875 25.252C21.6875 24.6732 21.5098 24.2288 21.1543 23.9189C20.7988 23.609 20.2861 23.4495 19.6162 23.4404H18.666V22.4082ZM34.4023 23.7549C34.4023 25.236 34.1494 26.3366 33.6436 27.0566C33.1377 27.7767 32.347 28.1367 31.2715 28.1367C30.2096 28.1367 29.4235 27.7858 28.9131 27.084C28.4027 26.3776 28.1383 25.3249 28.1201 23.9258V22.2373C28.1201 20.7744 28.373 19.6875 28.8789 18.9766C29.3848 18.2656 30.1777 17.9102 31.2578 17.9102C32.3288 17.9102 33.1172 18.2542 33.623 18.9424C34.1289 19.626 34.3887 20.6833 34.4023 22.1143V23.7549ZM33.1377 22.0254C33.1377 20.9544 32.9873 20.1751 32.6865 19.6875C32.3857 19.1953 31.9095 18.9492 31.2578 18.9492C30.6107 18.9492 30.139 19.193 29.8428 19.6807C29.5465 20.1683 29.3939 20.918 29.3848 21.9297V23.9531C29.3848 25.0286 29.5397 25.8239 29.8496 26.3389C30.1641 26.8493 30.638 27.1045 31.2715 27.1045C31.8958 27.1045 32.3584 26.863 32.6592 26.3799C32.9645 25.8968 33.124 25.1357 33.1377 24.0967V22.0254ZM42.2637 23.7549C42.2637 25.236 42.0107 26.3366 41.5049 27.0566C40.999 27.7767 40.2083 28.1367 39.1328 28.1367C38.071 28.1367 37.2848 27.7858 36.7744 27.084C36.264 26.3776 35.9997 25.3249 35.9814 23.9258V22.2373C35.9814 20.7744 36.2344 19.6875 36.7402 18.9766C37.2461 18.2656 38.0391 17.9102 39.1191 17.9102C40.1901 17.9102 40.9785 18.2542 41.4844 18.9424C41.9902 19.626 42.25 20.6833 42.2637 22.1143V23.7549ZM40.999 22.0254C40.999 20.9544 40.8486 20.1751 40.5479 19.6875C40.2471 19.1953 39.7708 18.9492 39.1191 18.9492C38.472 18.9492 38.0003 19.193 37.7041 19.6807C37.4079 20.1683 37.2552 20.918 37.2461 21.9297V23.9531C37.2461 25.0286 37.401 25.8239 37.7109 26.3389C38.0254 26.8493 38.4993 27.1045 39.1328 27.1045C39.7572 27.1045 40.2197 26.863 40.5205 26.3799C40.8258 25.8968 40.9854 25.1357 40.999 24.0967V22.0254ZM50.125 23.7549C50.125 25.236 49.8721 26.3366 49.3662 27.0566C48.8604 27.7767 48.0697 28.1367 46.9941 28.1367C45.9323 28.1367 45.1462 27.7858 44.6357 27.084C44.1253 26.3776 43.861 25.3249 43.8428 23.9258V22.2373C43.8428 20.7744 44.0957 19.6875 44.6016 18.9766C45.1074 18.2656 45.9004 17.9102 46.9805 17.9102C48.0514 17.9102 48.8398 18.2542 49.3457 18.9424C49.8516 19.626 50.1113 20.6833 50.125 22.1143V23.7549ZM48.8604 22.0254C48.8604 20.9544 48.71 20.1751 48.4092 19.6875C48.1084 19.1953 47.6322 18.9492 46.9805 18.9492C46.3333 18.9492 45.8617 19.193 45.5654 19.6807C45.2692 20.1683 45.1165 20.918 45.1074 21.9297V23.9531C45.1074 25.0286 45.2624 25.8239 45.5723 26.3389C45.8867 26.8493 46.3607 27.1045 46.9941 27.1045C47.6185 27.1045 48.0811 26.863 48.3818 26.3799C48.6872 25.8968 48.8467 25.1357 48.8604 24.0967V22.0254ZM61.459 23.7549C61.459 25.236 61.2061 26.3366 60.7002 27.0566C60.1943 27.7767 59.4036 28.1367 58.3281 28.1367C57.2663 28.1367 56.4801 27.7858 55.9697 27.084C55.4593 26.3776 55.195 25.3249 55.1768 23.9258V22.2373C55.1768 20.7744 55.4297 19.6875 55.9355 18.9766C56.4414 18.2656 57.2344 17.9102 58.3145 17.9102C59.3854 17.9102 60.1738 18.2542 60.6797 18.9424C61.1855 19.626 61.4453 20.6833 61.459 22.1143V23.7549ZM60.1943 22.0254C60.1943 20.9544 60.0439 20.1751 59.7432 19.6875C59.4424 19.1953 58.9661 18.9492 58.3145 18.9492C57.6673 18.9492 57.1956 19.193 56.8994 19.6807C56.6032 20.1683 56.4505 20.918 56.4414 21.9297V23.9531C56.4414 25.0286 56.5964 25.8239 56.9062 26.3389C57.2207 26.8493 57.6947 27.1045 58.3281 27.1045C58.9525 27.1045 59.415 26.863 59.7158 26.3799C60.0212 25.8968 60.1807 25.1357 60.1943 24.0967V22.0254ZM69.3203 23.7549C69.3203 25.236 69.0674 26.3366 68.5615 27.0566C68.0557 27.7767 67.265 28.1367 66.1895 28.1367C65.1276 28.1367 64.3415 27.7858 63.8311 27.084C63.3206 26.3776 63.0563 25.3249 63.0381 23.9258V22.2373C63.0381 20.7744 63.291 19.6875 63.7969 18.9766C64.3027 18.2656 65.0957 17.9102 66.1758 17.9102C67.2467 17.9102 68.0352 18.2542 68.541 18.9424C69.0469 19.626 69.3066 20.6833 69.3203 22.1143V23.7549ZM68.0557 22.0254C68.0557 20.9544 67.9053 20.1751 67.6045 19.6875C67.3037 19.1953 66.8275 18.9492 66.1758 18.9492C65.5286 18.9492 65.057 19.193 64.7607 19.6807C64.4645 20.1683 64.3118 20.918 64.3027 21.9297V23.9531C64.3027 25.0286 64.4577 25.8239 64.7676 26.3389C65.082 26.8493 65.556 27.1045 66.1895 27.1045C66.8138 27.1045 67.2764 26.863 67.5771 26.3799C67.8825 25.8968 68.042 25.1357 68.0557 24.0967V22.0254ZM77.1816 23.7549C77.1816 25.236 76.9287 26.3366 76.4229 27.0566C75.917 27.7767 75.1263 28.1367 74.0508 28.1367C72.9889 28.1367 72.2028 27.7858 71.6924 27.084C71.182 26.3776 70.9176 25.3249 70.8994 23.9258V22.2373C70.8994 20.7744 71.1523 19.6875 71.6582 18.9766C72.1641 18.2656 72.957 17.9102 74.0371 17.9102C75.1081 17.9102 75.8965 18.2542 76.4023 18.9424C76.9082 19.626 77.168 20.6833 77.1816 22.1143V23.7549ZM75.917 22.0254C75.917 20.9544 75.7666 20.1751 75.4658 19.6875C75.165 19.1953 74.6888 18.9492 74.0371 18.9492C73.39 18.9492 72.9183 19.193 72.6221 19.6807C72.3258 20.1683 72.1732 20.918 72.1641 21.9297V23.9531C72.1641 25.0286 72.319 25.8239 72.6289 26.3389C72.9434 26.8493 73.4173 27.1045 74.0508 27.1045C74.6751 27.1045 75.1377 26.863 75.4385 26.3799C75.7438 25.8968 75.9033 25.1357 75.917 24.0967V22.0254ZM88.6523 24.3838C88.6523 25.5094 88.3949 26.4163 87.8799 27.1045C87.3649 27.7926 86.6676 28.1367 85.7881 28.1367C84.8903 28.1367 84.1839 27.8519 83.6689 27.2822V30.8438H82.4043V20.6035H83.5596L83.6211 21.4238C84.1361 20.7858 84.8516 20.4668 85.7676 20.4668C86.6562 20.4668 87.3581 20.8018 87.873 21.4717C88.3926 22.1416 88.6523 23.0736 88.6523 24.2676V24.3838ZM87.3877 24.2402C87.3877 23.4062 87.21 22.7477 86.8545 22.2646C86.499 21.7816 86.0114 21.54 85.3916 21.54C84.626 21.54 84.0518 21.8796 83.6689 22.5586V26.0928C84.0472 26.7673 84.626 27.1045 85.4053 27.1045C86.0114 27.1045 86.4922 26.8652 86.8477 26.3867C87.2077 25.9036 87.3877 25.1882 87.3877 24.2402ZM92.6035 26.1475L94.3262 20.6035H95.6797L92.7061 29.1416C92.2458 30.3721 91.5143 30.9873 90.5117 30.9873L90.2725 30.9668L89.8008 30.8779V29.8525L90.1426 29.8799C90.571 29.8799 90.9036 29.7933 91.1406 29.6201C91.3822 29.4469 91.5804 29.1302 91.7354 28.6699L92.0156 27.918L89.377 20.6035H90.7578L92.6035 26.1475ZM100.062 21.0273C100.991 21.0273 101.734 21.3395 102.29 21.9639C102.851 22.5837 103.131 23.4017 103.131 24.418V24.5342C103.131 25.2314 102.996 25.8558 102.728 26.4072C102.459 26.9541 102.071 27.3802 101.565 27.6855C101.064 27.9863 100.485 28.1367 99.8291 28.1367C98.8356 28.1367 98.0358 27.8063 97.4297 27.1455C96.8236 26.4801 96.5205 25.5892 96.5205 24.4727V23.8574C96.5205 22.3034 96.8076 21.0684 97.3818 20.1523C97.9606 19.2363 98.8128 18.6781 99.9385 18.4775C100.576 18.3636 101.007 18.2246 101.23 18.0605C101.454 17.8965 101.565 17.6709 101.565 17.3838H102.604C102.604 17.9535 102.475 18.3978 102.215 18.7168C101.96 19.0358 101.549 19.2614 100.984 19.3936L100.041 19.6055C99.2891 19.7832 98.724 20.084 98.3457 20.5078C97.972 20.9271 97.7282 21.4876 97.6143 22.1895C98.2842 21.4147 99.0999 21.0273 100.062 21.0273ZM99.8154 22.0664C99.1956 22.0664 98.7035 22.276 98.3389 22.6953C97.9743 23.11 97.792 23.6865 97.792 24.4248V24.5342C97.792 25.3271 97.9743 25.9561 98.3389 26.4209C98.708 26.8812 99.2048 27.1113 99.8291 27.1113C100.458 27.1113 100.955 26.8789 101.319 26.4141C101.684 25.9492 101.866 25.2702 101.866 24.377C101.866 23.6797 101.682 23.1214 101.312 22.7021C100.948 22.2783 100.449 22.0664 99.8154 22.0664Z" fill="#484848"/>
</g>
<defs>
<filter id="filter0_d" x="0" y="0" width="120" height="49" filterUnits="userSpaceOnUse" color-interpolation-filters="sRGB">
<feFlood flood-opacity="0" result="BackgroundImageFix"/>
<feColorMatrix in="SourceAlpha" type="matrix" values="0 0 0 0 0 0 0 0 0 0 0 0 0 0 0 0 0 0 127 0" result="hardAlpha"/>
<feOffset dy="1"/>
<feGaussianBlur stdDeviation="2"/>
<feColorMatrix type="matrix" values="0 0 0 0 0 0 0 0 0 0 0 0 0 0 0 0 0 0 0.15 0"/>
<feBlend mode="normal" in2="BackgroundImageFix" result="effect1_dropShadow"/>
<feBlend mode="normal" in="SourceGraphic" in2="effect1_dropShadow" result="shape"/>
</filter>
</defs>
</svg>
